%TF.GenerationSoftware,KiCad,Pcbnew,(6.0.4)*%
%TF.CreationDate,2025-03-27T00:11:59-07:00*%
%TF.ProjectId,led-goals,6c65642d-676f-4616-9c73-2e6b69636164,rev?*%
%TF.SameCoordinates,Original*%
%TF.FileFunction,Copper,L1,Top*%
%TF.FilePolarity,Positive*%
%FSLAX46Y46*%
G04 Gerber Fmt 4.6, Leading zero omitted, Abs format (unit mm)*
G04 Created by KiCad (PCBNEW (6.0.4)) date 2025-03-27 00:11:59*
%MOMM*%
%LPD*%
G01*
G04 APERTURE LIST*
%TA.AperFunction,ComponentPad*%
%ADD10C,0.800000*%
%TD*%
%TA.AperFunction,ComponentPad*%
%ADD11C,5.400000*%
%TD*%
%TA.AperFunction,ComponentPad*%
%ADD12C,2.000000*%
%TD*%
%TA.AperFunction,ComponentPad*%
%ADD13C,1.600000*%
%TD*%
%TA.AperFunction,ComponentPad*%
%ADD14O,1.600000X1.600000*%
%TD*%
%TA.AperFunction,SMDPad,CuDef*%
%ADD15R,4.000000X4.000000*%
%TD*%
%TA.AperFunction,ComponentPad*%
%ADD16R,1.600000X1.600000*%
%TD*%
%TA.AperFunction,ComponentPad*%
%ADD17R,1.800000X1.800000*%
%TD*%
%TA.AperFunction,ComponentPad*%
%ADD18C,1.800000*%
%TD*%
%TA.AperFunction,ViaPad*%
%ADD19C,0.800000*%
%TD*%
%TA.AperFunction,Conductor*%
%ADD20C,0.600000*%
%TD*%
G04 APERTURE END LIST*
D10*
%TO.P,H4,1*%
%TO.N,N/C*%
X60445000Y-111760000D03*
X58420000Y-113785000D03*
X59851891Y-113191891D03*
D11*
X58420000Y-111760000D03*
D10*
X58420000Y-109735000D03*
X56988109Y-113191891D03*
X59851891Y-110328109D03*
X56395000Y-111760000D03*
X56988109Y-110328109D03*
%TD*%
%TO.P,H3,1*%
%TO.N,N/C*%
X126485000Y-51315000D03*
X124460000Y-53340000D03*
X125891891Y-52746891D03*
D11*
X124460000Y-51315000D03*
D10*
X124460000Y-49290000D03*
X123028109Y-52746891D03*
X125891891Y-49883109D03*
X122435000Y-51315000D03*
X123028109Y-49883109D03*
%TD*%
%TO.P,H2,1*%
%TO.N,N/C*%
X60445000Y-50800000D03*
X58420000Y-52825000D03*
X59851891Y-52231891D03*
D11*
X58420000Y-50800000D03*
D10*
X58420000Y-48775000D03*
X56988109Y-52231891D03*
X59851891Y-49368109D03*
X56395000Y-50800000D03*
X56988109Y-49368109D03*
%TD*%
%TO.P,H1,1*%
%TO.N,N/C*%
X126485000Y-111760000D03*
X124460000Y-113785000D03*
X125891891Y-113191891D03*
D11*
X124460000Y-111760000D03*
D10*
X124460000Y-109735000D03*
X123028109Y-113191891D03*
X125891891Y-110328109D03*
X122435000Y-111760000D03*
X123028109Y-110328109D03*
%TD*%
D12*
%TO.P,SW1,1,1*%
%TO.N,Net-(A1-Pad27)*%
X115420000Y-83820000D03*
X121920000Y-83820000D03*
%TO.P,SW1,2,2*%
%TO.N,Net-(A1-Pad5)*%
X121920000Y-79320000D03*
X115420000Y-79320000D03*
%TD*%
D13*
%TO.P,R1,1*%
%TO.N,Net-(A1-Pad9)*%
X81280000Y-60960000D03*
D14*
%TO.P,R1,2*%
%TO.N,Net-(J4-Pad1)*%
X81280000Y-58420000D03*
%TD*%
D15*
%TO.P,J4,1,LEDSTRIPD*%
%TO.N,Net-(J4-Pad1)*%
X81280000Y-48260000D03*
%TD*%
D13*
%TO.P,R3,1*%
%TO.N,Net-(A1-Pad5)*%
X109220000Y-63500000D03*
D14*
%TO.P,R3,2*%
%TO.N,GND*%
X106680000Y-63500000D03*
%TD*%
D15*
%TO.P,J1,1,GND*%
%TO.N,GND*%
X58420000Y-96520000D03*
%TD*%
D16*
%TO.P,A1,1,D1/TX*%
%TO.N,unconnected-(A1-Pad1)*%
X99060000Y-73660000D03*
D14*
%TO.P,A1,2,D0/RX*%
%TO.N,unconnected-(A1-Pad2)*%
X96520000Y-73660000D03*
%TO.P,A1,3,~{RESET}*%
%TO.N,unconnected-(A1-Pad3)*%
X93980000Y-73660000D03*
%TO.P,A1,4,GND*%
%TO.N,GND*%
X91440000Y-73660000D03*
%TO.P,A1,5,D2*%
%TO.N,Net-(A1-Pad5)*%
X88900000Y-73660000D03*
%TO.P,A1,6,D3*%
%TO.N,Net-(A1-Pad6)*%
X86360000Y-73660000D03*
%TO.P,A1,7,D4*%
%TO.N,unconnected-(A1-Pad7)*%
X83820000Y-73660000D03*
%TO.P,A1,8,D5*%
%TO.N,unconnected-(A1-Pad8)*%
X81280000Y-73660000D03*
%TO.P,A1,9,D6*%
%TO.N,Net-(A1-Pad9)*%
X78740000Y-73660000D03*
%TO.P,A1,10,D7*%
%TO.N,unconnected-(A1-Pad10)*%
X76200000Y-73660000D03*
%TO.P,A1,11,D8*%
%TO.N,unconnected-(A1-Pad11)*%
X73660000Y-73660000D03*
%TO.P,A1,12,D9*%
%TO.N,unconnected-(A1-Pad12)*%
X71120000Y-73660000D03*
%TO.P,A1,13,D10*%
%TO.N,unconnected-(A1-Pad13)*%
X68580000Y-73660000D03*
%TO.P,A1,14,D11*%
%TO.N,unconnected-(A1-Pad14)*%
X66040000Y-73660000D03*
%TO.P,A1,15,D12*%
%TO.N,unconnected-(A1-Pad15)*%
X63500000Y-73660000D03*
%TO.P,A1,16,D13*%
%TO.N,unconnected-(A1-Pad16)*%
X63500000Y-88900000D03*
%TO.P,A1,17,3V3*%
%TO.N,unconnected-(A1-Pad17)*%
X66040000Y-88900000D03*
%TO.P,A1,18,AREF*%
%TO.N,unconnected-(A1-Pad18)*%
X68580000Y-88900000D03*
%TO.P,A1,19,A0*%
%TO.N,unconnected-(A1-Pad19)*%
X71120000Y-88900000D03*
%TO.P,A1,20,A1*%
%TO.N,unconnected-(A1-Pad20)*%
X73660000Y-88900000D03*
%TO.P,A1,21,A2*%
%TO.N,unconnected-(A1-Pad21)*%
X76200000Y-88900000D03*
%TO.P,A1,22,A3*%
%TO.N,unconnected-(A1-Pad22)*%
X78740000Y-88900000D03*
%TO.P,A1,23,A4*%
%TO.N,unconnected-(A1-Pad23)*%
X81280000Y-88900000D03*
%TO.P,A1,24,A5*%
%TO.N,unconnected-(A1-Pad24)*%
X83820000Y-88900000D03*
%TO.P,A1,25,A6*%
%TO.N,unconnected-(A1-Pad25)*%
X86360000Y-88900000D03*
%TO.P,A1,26,A7*%
%TO.N,unconnected-(A1-Pad26)*%
X88900000Y-88900000D03*
%TO.P,A1,27,+5V*%
%TO.N,Net-(A1-Pad27)*%
X91440000Y-88900000D03*
%TO.P,A1,28,~{RESET}*%
%TO.N,unconnected-(A1-Pad28)*%
X93980000Y-88900000D03*
%TO.P,A1,29,GND*%
%TO.N,GND*%
X96520000Y-88900000D03*
%TO.P,A1,30,VIN*%
%TO.N,Net-(A1-Pad30)*%
X99060000Y-88900000D03*
%TD*%
D15*
%TO.P,J3,1,LED_Strip+*%
%TO.N,Net-(A1-Pad27)*%
X88900000Y-48260000D03*
%TD*%
D17*
%TO.P,D1,1,K*%
%TO.N,Net-(D1-Pad1)*%
X88900000Y-101600000D03*
D18*
%TO.P,D1,2,A*%
%TO.N,Net-(A1-Pad6)*%
X86360000Y-101600000D03*
%TD*%
D15*
%TO.P,J5,1,LEDSTRIP-*%
%TO.N,GND*%
X73660000Y-48260000D03*
%TD*%
%TO.P,J2,1,VCC(9V)*%
%TO.N,Net-(A1-Pad30)*%
X58420000Y-104140000D03*
%TD*%
D13*
%TO.P,R2,1*%
%TO.N,Net-(D1-Pad1)*%
X99060000Y-101600000D03*
D14*
%TO.P,R2,2*%
%TO.N,GND*%
X101600000Y-101600000D03*
%TD*%
D19*
%TO.N,GND*%
X106680000Y-63500000D03*
X101600000Y-101600000D03*
X73660000Y-48260000D03*
X96520000Y-88900000D03*
X58420000Y-96520000D03*
%TO.N,Net-(A1-Pad30)*%
X99060000Y-88900000D03*
X99060000Y-88900000D03*
%TD*%
D20*
%TO.N,Net-(A1-Pad5)*%
X121920000Y-79320000D02*
X115420000Y-79320000D01*
%TO.N,Net-(A1-Pad27)*%
X121920000Y-83820000D02*
X115420000Y-83820000D01*
%TO.N,Net-(A1-Pad30)*%
X73660000Y-109220000D02*
X68580000Y-104140000D01*
X101600000Y-109220000D02*
X73660000Y-109220000D01*
X104140000Y-106680000D02*
X101600000Y-109220000D01*
X68580000Y-104140000D02*
X58420000Y-104140000D01*
%TO.N,Net-(A1-Pad27)*%
X127000000Y-86360000D02*
X121920000Y-91440000D01*
X109220000Y-91440000D02*
X101600000Y-83820000D01*
X127000000Y-71120000D02*
X127000000Y-86360000D01*
X121920000Y-91440000D02*
X119380000Y-91440000D01*
X119380000Y-91440000D02*
X109220000Y-91440000D01*
X104140000Y-48260000D02*
X127000000Y-71120000D01*
X88900000Y-48260000D02*
X104140000Y-48260000D01*
%TO.N,Net-(A1-Pad5)*%
X115420000Y-69700000D02*
X109220000Y-63500000D01*
X115420000Y-79320000D02*
X115420000Y-69700000D01*
X94560000Y-79320000D02*
X88900000Y-73660000D01*
X115420000Y-79320000D02*
X94560000Y-79320000D01*
%TO.N,Net-(A1-Pad27)*%
X115420000Y-83820000D02*
X96520000Y-83820000D01*
X96520000Y-83820000D02*
X91440000Y-88900000D01*
%TO.N,Net-(D1-Pad1)*%
X88900000Y-101600000D02*
X99060000Y-101600000D01*
%TO.N,Net-(A1-Pad30)*%
X104140000Y-106680000D02*
X104140000Y-93980000D01*
X104140000Y-93980000D02*
X99060000Y-88900000D01*
%TO.N,Net-(A1-Pad6)*%
X78740000Y-81280000D02*
X86360000Y-73660000D01*
X63500000Y-81280000D02*
X78740000Y-81280000D01*
X58420000Y-86360000D02*
X63500000Y-81280000D01*
X58420000Y-91440000D02*
X58420000Y-86360000D01*
X68580000Y-101600000D02*
X58420000Y-91440000D01*
X86360000Y-101600000D02*
X68580000Y-101600000D01*
%TO.N,Net-(A1-Pad9)*%
X81280000Y-60960000D02*
X81280000Y-71120000D01*
X81280000Y-71120000D02*
X78740000Y-73660000D01*
%TO.N,Net-(J4-Pad1)*%
X81280000Y-48260000D02*
X81280000Y-58420000D01*
%TD*%
%TA.AperFunction,Conductor*%
%TO.N,GND*%
G36*
X71246053Y-45740002D02*
G01*
X71292546Y-45793658D01*
X71302650Y-45863932D01*
X71278758Y-45921565D01*
X71215214Y-46006352D01*
X71206676Y-46021946D01*
X71161522Y-46142394D01*
X71157895Y-46157649D01*
X71152369Y-46208514D01*
X71152000Y-46215328D01*
X71152000Y-47987885D01*
X71156475Y-48003124D01*
X71157865Y-48004329D01*
X71165548Y-48006000D01*
X76149884Y-48006000D01*
X76165123Y-48001525D01*
X76166328Y-48000135D01*
X76167999Y-47992452D01*
X76167999Y-46215331D01*
X76167629Y-46208510D01*
X76162105Y-46157648D01*
X76158479Y-46142396D01*
X76113324Y-46021946D01*
X76104786Y-46006352D01*
X76041242Y-45921565D01*
X76016394Y-45855059D01*
X76031447Y-45785676D01*
X76081621Y-45735446D01*
X76142068Y-45720000D01*
X78797307Y-45720000D01*
X78865428Y-45740002D01*
X78911921Y-45793658D01*
X78922025Y-45863932D01*
X78898133Y-45921565D01*
X78829385Y-46013295D01*
X78778255Y-46149684D01*
X78771500Y-46211866D01*
X78771500Y-50308134D01*
X78778255Y-50370316D01*
X78829385Y-50506705D01*
X78916739Y-50623261D01*
X79033295Y-50710615D01*
X79169684Y-50761745D01*
X79231866Y-50768500D01*
X80345500Y-50768500D01*
X80413621Y-50788502D01*
X80460114Y-50842158D01*
X80471500Y-50894500D01*
X80471500Y-57325812D01*
X80451498Y-57393933D01*
X80434595Y-57414907D01*
X80273802Y-57575700D01*
X80142477Y-57763251D01*
X80140154Y-57768233D01*
X80140151Y-57768238D01*
X80048039Y-57965775D01*
X80045716Y-57970757D01*
X79986457Y-58191913D01*
X79966502Y-58420000D01*
X79986457Y-58648087D01*
X80045716Y-58869243D01*
X80048039Y-58874224D01*
X80048039Y-58874225D01*
X80140151Y-59071762D01*
X80140154Y-59071767D01*
X80142477Y-59076749D01*
X80273802Y-59264300D01*
X80435700Y-59426198D01*
X80440208Y-59429355D01*
X80440211Y-59429357D01*
X80518389Y-59484098D01*
X80623251Y-59557523D01*
X80628233Y-59559846D01*
X80628238Y-59559849D01*
X80662457Y-59575805D01*
X80715742Y-59622722D01*
X80735203Y-59690999D01*
X80714661Y-59758959D01*
X80662457Y-59804195D01*
X80628238Y-59820151D01*
X80628233Y-59820154D01*
X80623251Y-59822477D01*
X80518389Y-59895902D01*
X80440211Y-59950643D01*
X80440208Y-59950645D01*
X80435700Y-59953802D01*
X80273802Y-60115700D01*
X80142477Y-60303251D01*
X80140154Y-60308233D01*
X80140151Y-60308238D01*
X80048039Y-60505775D01*
X80045716Y-60510757D01*
X79986457Y-60731913D01*
X79966502Y-60960000D01*
X79986457Y-61188087D01*
X80045716Y-61409243D01*
X80048039Y-61414224D01*
X80048039Y-61414225D01*
X80140151Y-61611762D01*
X80140154Y-61611767D01*
X80142477Y-61616749D01*
X80273802Y-61804300D01*
X80434595Y-61965093D01*
X80468621Y-62027405D01*
X80471500Y-62054188D01*
X80471500Y-70732919D01*
X80451498Y-70801040D01*
X80434595Y-70822014D01*
X78937968Y-72318640D01*
X78875656Y-72352666D01*
X78837892Y-72355066D01*
X78745476Y-72346981D01*
X78745475Y-72346981D01*
X78740000Y-72346502D01*
X78511913Y-72366457D01*
X78506600Y-72367881D01*
X78506598Y-72367881D01*
X78296067Y-72424293D01*
X78296065Y-72424294D01*
X78290757Y-72425716D01*
X78285776Y-72428039D01*
X78285775Y-72428039D01*
X78088238Y-72520151D01*
X78088233Y-72520154D01*
X78083251Y-72522477D01*
X77978389Y-72595902D01*
X77900211Y-72650643D01*
X77900208Y-72650645D01*
X77895700Y-72653802D01*
X77733802Y-72815700D01*
X77602477Y-73003251D01*
X77600154Y-73008233D01*
X77600151Y-73008238D01*
X77584195Y-73042457D01*
X77537278Y-73095742D01*
X77469001Y-73115203D01*
X77401041Y-73094661D01*
X77355805Y-73042457D01*
X77339849Y-73008238D01*
X77339846Y-73008233D01*
X77337523Y-73003251D01*
X77206198Y-72815700D01*
X77044300Y-72653802D01*
X77039792Y-72650645D01*
X77039789Y-72650643D01*
X76961611Y-72595902D01*
X76856749Y-72522477D01*
X76851767Y-72520154D01*
X76851762Y-72520151D01*
X76654225Y-72428039D01*
X76654224Y-72428039D01*
X76649243Y-72425716D01*
X76643935Y-72424294D01*
X76643933Y-72424293D01*
X76433402Y-72367881D01*
X76433400Y-72367881D01*
X76428087Y-72366457D01*
X76200000Y-72346502D01*
X75971913Y-72366457D01*
X75966600Y-72367881D01*
X75966598Y-72367881D01*
X75756067Y-72424293D01*
X75756065Y-72424294D01*
X75750757Y-72425716D01*
X75745776Y-72428039D01*
X75745775Y-72428039D01*
X75548238Y-72520151D01*
X75548233Y-72520154D01*
X75543251Y-72522477D01*
X75438389Y-72595902D01*
X75360211Y-72650643D01*
X75360208Y-72650645D01*
X75355700Y-72653802D01*
X75193802Y-72815700D01*
X75062477Y-73003251D01*
X75060154Y-73008233D01*
X75060151Y-73008238D01*
X75044195Y-73042457D01*
X74997278Y-73095742D01*
X74929001Y-73115203D01*
X74861041Y-73094661D01*
X74815805Y-73042457D01*
X74799849Y-73008238D01*
X74799846Y-73008233D01*
X74797523Y-73003251D01*
X74666198Y-72815700D01*
X74504300Y-72653802D01*
X74499792Y-72650645D01*
X74499789Y-72650643D01*
X74421611Y-72595902D01*
X74316749Y-72522477D01*
X74311767Y-72520154D01*
X74311762Y-72520151D01*
X74114225Y-72428039D01*
X74114224Y-72428039D01*
X74109243Y-72425716D01*
X74103935Y-72424294D01*
X74103933Y-72424293D01*
X73893402Y-72367881D01*
X73893400Y-72367881D01*
X73888087Y-72366457D01*
X73660000Y-72346502D01*
X73431913Y-72366457D01*
X73426600Y-72367881D01*
X73426598Y-72367881D01*
X73216067Y-72424293D01*
X73216065Y-72424294D01*
X73210757Y-72425716D01*
X73205776Y-72428039D01*
X73205775Y-72428039D01*
X73008238Y-72520151D01*
X73008233Y-72520154D01*
X73003251Y-72522477D01*
X72898389Y-72595902D01*
X72820211Y-72650643D01*
X72820208Y-72650645D01*
X72815700Y-72653802D01*
X72653802Y-72815700D01*
X72522477Y-73003251D01*
X72520154Y-73008233D01*
X72520151Y-73008238D01*
X72504195Y-73042457D01*
X72457278Y-73095742D01*
X72389001Y-73115203D01*
X72321041Y-73094661D01*
X72275805Y-73042457D01*
X72259849Y-73008238D01*
X72259846Y-73008233D01*
X72257523Y-73003251D01*
X72126198Y-72815700D01*
X71964300Y-72653802D01*
X71959792Y-72650645D01*
X71959789Y-72650643D01*
X71881611Y-72595902D01*
X71776749Y-72522477D01*
X71771767Y-72520154D01*
X71771762Y-72520151D01*
X71574225Y-72428039D01*
X71574224Y-72428039D01*
X71569243Y-72425716D01*
X71563935Y-72424294D01*
X71563933Y-72424293D01*
X71353402Y-72367881D01*
X71353400Y-72367881D01*
X71348087Y-72366457D01*
X71120000Y-72346502D01*
X70891913Y-72366457D01*
X70886600Y-72367881D01*
X70886598Y-72367881D01*
X70676067Y-72424293D01*
X70676065Y-72424294D01*
X70670757Y-72425716D01*
X70665776Y-72428039D01*
X70665775Y-72428039D01*
X70468238Y-72520151D01*
X70468233Y-72520154D01*
X70463251Y-72522477D01*
X70358389Y-72595902D01*
X70280211Y-72650643D01*
X70280208Y-72650645D01*
X70275700Y-72653802D01*
X70113802Y-72815700D01*
X69982477Y-73003251D01*
X69980154Y-73008233D01*
X69980151Y-73008238D01*
X69964195Y-73042457D01*
X69917278Y-73095742D01*
X69849001Y-73115203D01*
X69781041Y-73094661D01*
X69735805Y-73042457D01*
X69719849Y-73008238D01*
X69719846Y-73008233D01*
X69717523Y-73003251D01*
X69586198Y-72815700D01*
X69424300Y-72653802D01*
X69419792Y-72650645D01*
X69419789Y-72650643D01*
X69341611Y-72595902D01*
X69236749Y-72522477D01*
X69231767Y-72520154D01*
X69231762Y-72520151D01*
X69034225Y-72428039D01*
X69034224Y-72428039D01*
X69029243Y-72425716D01*
X69023935Y-72424294D01*
X69023933Y-72424293D01*
X68813402Y-72367881D01*
X68813400Y-72367881D01*
X68808087Y-72366457D01*
X68580000Y-72346502D01*
X68351913Y-72366457D01*
X68346600Y-72367881D01*
X68346598Y-72367881D01*
X68136067Y-72424293D01*
X68136065Y-72424294D01*
X68130757Y-72425716D01*
X68125776Y-72428039D01*
X68125775Y-72428039D01*
X67928238Y-72520151D01*
X67928233Y-72520154D01*
X67923251Y-72522477D01*
X67818389Y-72595902D01*
X67740211Y-72650643D01*
X67740208Y-72650645D01*
X67735700Y-72653802D01*
X67573802Y-72815700D01*
X67442477Y-73003251D01*
X67440154Y-73008233D01*
X67440151Y-73008238D01*
X67424195Y-73042457D01*
X67377278Y-73095742D01*
X67309001Y-73115203D01*
X67241041Y-73094661D01*
X67195805Y-73042457D01*
X67179849Y-73008238D01*
X67179846Y-73008233D01*
X67177523Y-73003251D01*
X67046198Y-72815700D01*
X66884300Y-72653802D01*
X66879792Y-72650645D01*
X66879789Y-72650643D01*
X66801611Y-72595902D01*
X66696749Y-72522477D01*
X66691767Y-72520154D01*
X66691762Y-72520151D01*
X66494225Y-72428039D01*
X66494224Y-72428039D01*
X66489243Y-72425716D01*
X66483935Y-72424294D01*
X66483933Y-72424293D01*
X66273402Y-72367881D01*
X66273400Y-72367881D01*
X66268087Y-72366457D01*
X66040000Y-72346502D01*
X65811913Y-72366457D01*
X65806600Y-72367881D01*
X65806598Y-72367881D01*
X65596067Y-72424293D01*
X65596065Y-72424294D01*
X65590757Y-72425716D01*
X65585776Y-72428039D01*
X65585775Y-72428039D01*
X65388238Y-72520151D01*
X65388233Y-72520154D01*
X65383251Y-72522477D01*
X65278389Y-72595902D01*
X65200211Y-72650643D01*
X65200208Y-72650645D01*
X65195700Y-72653802D01*
X65033802Y-72815700D01*
X64902477Y-73003251D01*
X64900154Y-73008233D01*
X64900151Y-73008238D01*
X64884195Y-73042457D01*
X64837278Y-73095742D01*
X64769001Y-73115203D01*
X64701041Y-73094661D01*
X64655805Y-73042457D01*
X64639849Y-73008238D01*
X64639846Y-73008233D01*
X64637523Y-73003251D01*
X64506198Y-72815700D01*
X64344300Y-72653802D01*
X64339792Y-72650645D01*
X64339789Y-72650643D01*
X64261611Y-72595902D01*
X64156749Y-72522477D01*
X64151767Y-72520154D01*
X64151762Y-72520151D01*
X63954225Y-72428039D01*
X63954224Y-72428039D01*
X63949243Y-72425716D01*
X63943935Y-72424294D01*
X63943933Y-72424293D01*
X63733402Y-72367881D01*
X63733400Y-72367881D01*
X63728087Y-72366457D01*
X63500000Y-72346502D01*
X63271913Y-72366457D01*
X63266600Y-72367881D01*
X63266598Y-72367881D01*
X63056067Y-72424293D01*
X63056065Y-72424294D01*
X63050757Y-72425716D01*
X63045776Y-72428039D01*
X63045775Y-72428039D01*
X62848238Y-72520151D01*
X62848233Y-72520154D01*
X62843251Y-72522477D01*
X62738389Y-72595902D01*
X62660211Y-72650643D01*
X62660208Y-72650645D01*
X62655700Y-72653802D01*
X62493802Y-72815700D01*
X62362477Y-73003251D01*
X62360154Y-73008233D01*
X62360151Y-73008238D01*
X62360034Y-73008489D01*
X62265716Y-73210757D01*
X62206457Y-73431913D01*
X62186502Y-73660000D01*
X62206457Y-73888087D01*
X62207881Y-73893400D01*
X62207881Y-73893402D01*
X62210350Y-73902614D01*
X62265716Y-74109243D01*
X62268039Y-74114224D01*
X62268039Y-74114225D01*
X62360151Y-74311762D01*
X62360154Y-74311767D01*
X62362477Y-74316749D01*
X62493802Y-74504300D01*
X62655700Y-74666198D01*
X62660208Y-74669355D01*
X62660211Y-74669357D01*
X62701542Y-74698297D01*
X62843251Y-74797523D01*
X62848233Y-74799846D01*
X62848238Y-74799849D01*
X63044765Y-74891490D01*
X63050757Y-74894284D01*
X63056065Y-74895706D01*
X63056067Y-74895707D01*
X63266598Y-74952119D01*
X63266600Y-74952119D01*
X63271913Y-74953543D01*
X63500000Y-74973498D01*
X63728087Y-74953543D01*
X63733400Y-74952119D01*
X63733402Y-74952119D01*
X63943933Y-74895707D01*
X63943935Y-74895706D01*
X63949243Y-74894284D01*
X63955235Y-74891490D01*
X64151762Y-74799849D01*
X64151767Y-74799846D01*
X64156749Y-74797523D01*
X64298458Y-74698297D01*
X64339789Y-74669357D01*
X64339792Y-74669355D01*
X64344300Y-74666198D01*
X64506198Y-74504300D01*
X64637523Y-74316749D01*
X64639846Y-74311767D01*
X64639849Y-74311762D01*
X64655805Y-74277543D01*
X64702722Y-74224258D01*
X64770999Y-74204797D01*
X64838959Y-74225339D01*
X64884195Y-74277543D01*
X64900151Y-74311762D01*
X64900154Y-74311767D01*
X64902477Y-74316749D01*
X65033802Y-74504300D01*
X65195700Y-74666198D01*
X65200208Y-74669355D01*
X65200211Y-74669357D01*
X65241542Y-74698297D01*
X65383251Y-74797523D01*
X65388233Y-74799846D01*
X65388238Y-74799849D01*
X65584765Y-74891490D01*
X65590757Y-74894284D01*
X65596065Y-74895706D01*
X65596067Y-74895707D01*
X65806598Y-74952119D01*
X65806600Y-74952119D01*
X65811913Y-74953543D01*
X66040000Y-74973498D01*
X66268087Y-74953543D01*
X66273400Y-74952119D01*
X66273402Y-74952119D01*
X66483933Y-74895707D01*
X66483935Y-74895706D01*
X66489243Y-74894284D01*
X66495235Y-74891490D01*
X66691762Y-74799849D01*
X66691767Y-74799846D01*
X66696749Y-74797523D01*
X66838458Y-74698297D01*
X66879789Y-74669357D01*
X66879792Y-74669355D01*
X66884300Y-74666198D01*
X67046198Y-74504300D01*
X67177523Y-74316749D01*
X67179846Y-74311767D01*
X67179849Y-74311762D01*
X67195805Y-74277543D01*
X67242722Y-74224258D01*
X67310999Y-74204797D01*
X67378959Y-74225339D01*
X67424195Y-74277543D01*
X67440151Y-74311762D01*
X67440154Y-74311767D01*
X67442477Y-74316749D01*
X67573802Y-74504300D01*
X67735700Y-74666198D01*
X67740208Y-74669355D01*
X67740211Y-74669357D01*
X67781542Y-74698297D01*
X67923251Y-74797523D01*
X67928233Y-74799846D01*
X67928238Y-74799849D01*
X68124765Y-74891490D01*
X68130757Y-74894284D01*
X68136065Y-74895706D01*
X68136067Y-74895707D01*
X68346598Y-74952119D01*
X68346600Y-74952119D01*
X68351913Y-74953543D01*
X68580000Y-74973498D01*
X68808087Y-74953543D01*
X68813400Y-74952119D01*
X68813402Y-74952119D01*
X69023933Y-74895707D01*
X69023935Y-74895706D01*
X69029243Y-74894284D01*
X69035235Y-74891490D01*
X69231762Y-74799849D01*
X69231767Y-74799846D01*
X69236749Y-74797523D01*
X69378458Y-74698297D01*
X69419789Y-74669357D01*
X69419792Y-74669355D01*
X69424300Y-74666198D01*
X69586198Y-74504300D01*
X69717523Y-74316749D01*
X69719846Y-74311767D01*
X69719849Y-74311762D01*
X69735805Y-74277543D01*
X69782722Y-74224258D01*
X69850999Y-74204797D01*
X69918959Y-74225339D01*
X69964195Y-74277543D01*
X69980151Y-74311762D01*
X69980154Y-74311767D01*
X69982477Y-74316749D01*
X70113802Y-74504300D01*
X70275700Y-74666198D01*
X70280208Y-74669355D01*
X70280211Y-74669357D01*
X70321542Y-74698297D01*
X70463251Y-74797523D01*
X70468233Y-74799846D01*
X70468238Y-74799849D01*
X70664765Y-74891490D01*
X70670757Y-74894284D01*
X70676065Y-74895706D01*
X70676067Y-74895707D01*
X70886598Y-74952119D01*
X70886600Y-74952119D01*
X70891913Y-74953543D01*
X71120000Y-74973498D01*
X71348087Y-74953543D01*
X71353400Y-74952119D01*
X71353402Y-74952119D01*
X71563933Y-74895707D01*
X71563935Y-74895706D01*
X71569243Y-74894284D01*
X71575235Y-74891490D01*
X71771762Y-74799849D01*
X71771767Y-74799846D01*
X71776749Y-74797523D01*
X71918458Y-74698297D01*
X71959789Y-74669357D01*
X71959792Y-74669355D01*
X71964300Y-74666198D01*
X72126198Y-74504300D01*
X72257523Y-74316749D01*
X72259846Y-74311767D01*
X72259849Y-74311762D01*
X72275805Y-74277543D01*
X72322722Y-74224258D01*
X72390999Y-74204797D01*
X72458959Y-74225339D01*
X72504195Y-74277543D01*
X72520151Y-74311762D01*
X72520154Y-74311767D01*
X72522477Y-74316749D01*
X72653802Y-74504300D01*
X72815700Y-74666198D01*
X72820208Y-74669355D01*
X72820211Y-74669357D01*
X72861542Y-74698297D01*
X73003251Y-74797523D01*
X73008233Y-74799846D01*
X73008238Y-74799849D01*
X73204765Y-74891490D01*
X73210757Y-74894284D01*
X73216065Y-74895706D01*
X73216067Y-74895707D01*
X73426598Y-74952119D01*
X73426600Y-74952119D01*
X73431913Y-74953543D01*
X73660000Y-74973498D01*
X73888087Y-74953543D01*
X73893400Y-74952119D01*
X73893402Y-74952119D01*
X74103933Y-74895707D01*
X74103935Y-74895706D01*
X74109243Y-74894284D01*
X74115235Y-74891490D01*
X74311762Y-74799849D01*
X74311767Y-74799846D01*
X74316749Y-74797523D01*
X74458458Y-74698297D01*
X74499789Y-74669357D01*
X74499792Y-74669355D01*
X74504300Y-74666198D01*
X74666198Y-74504300D01*
X74797523Y-74316749D01*
X74799846Y-74311767D01*
X74799849Y-74311762D01*
X74815805Y-74277543D01*
X74862722Y-74224258D01*
X74930999Y-74204797D01*
X74998959Y-74225339D01*
X75044195Y-74277543D01*
X75060151Y-74311762D01*
X75060154Y-74311767D01*
X75062477Y-74316749D01*
X75193802Y-74504300D01*
X75355700Y-74666198D01*
X75360208Y-74669355D01*
X75360211Y-74669357D01*
X75401542Y-74698297D01*
X75543251Y-74797523D01*
X75548233Y-74799846D01*
X75548238Y-74799849D01*
X75744765Y-74891490D01*
X75750757Y-74894284D01*
X75756065Y-74895706D01*
X75756067Y-74895707D01*
X75966598Y-74952119D01*
X75966600Y-74952119D01*
X75971913Y-74953543D01*
X76200000Y-74973498D01*
X76428087Y-74953543D01*
X76433400Y-74952119D01*
X76433402Y-74952119D01*
X76643933Y-74895707D01*
X76643935Y-74895706D01*
X76649243Y-74894284D01*
X76655235Y-74891490D01*
X76851762Y-74799849D01*
X76851767Y-74799846D01*
X76856749Y-74797523D01*
X76998458Y-74698297D01*
X77039789Y-74669357D01*
X77039792Y-74669355D01*
X77044300Y-74666198D01*
X77206198Y-74504300D01*
X77337523Y-74316749D01*
X77339846Y-74311767D01*
X77339849Y-74311762D01*
X77355805Y-74277543D01*
X77402722Y-74224258D01*
X77470999Y-74204797D01*
X77538959Y-74225339D01*
X77584195Y-74277543D01*
X77600151Y-74311762D01*
X77600154Y-74311767D01*
X77602477Y-74316749D01*
X77733802Y-74504300D01*
X77895700Y-74666198D01*
X77900208Y-74669355D01*
X77900211Y-74669357D01*
X77941542Y-74698297D01*
X78083251Y-74797523D01*
X78088233Y-74799846D01*
X78088238Y-74799849D01*
X78284765Y-74891490D01*
X78290757Y-74894284D01*
X78296065Y-74895706D01*
X78296067Y-74895707D01*
X78506598Y-74952119D01*
X78506600Y-74952119D01*
X78511913Y-74953543D01*
X78740000Y-74973498D01*
X78968087Y-74953543D01*
X78973400Y-74952119D01*
X78973402Y-74952119D01*
X79183933Y-74895707D01*
X79183935Y-74895706D01*
X79189243Y-74894284D01*
X79195235Y-74891490D01*
X79391762Y-74799849D01*
X79391767Y-74799846D01*
X79396749Y-74797523D01*
X79538458Y-74698297D01*
X79579789Y-74669357D01*
X79579792Y-74669355D01*
X79584300Y-74666198D01*
X79746198Y-74504300D01*
X79877523Y-74316749D01*
X79879846Y-74311767D01*
X79879849Y-74311762D01*
X79895805Y-74277543D01*
X79942722Y-74224258D01*
X80010999Y-74204797D01*
X80078959Y-74225339D01*
X80124195Y-74277543D01*
X80140151Y-74311762D01*
X80140154Y-74311767D01*
X80142477Y-74316749D01*
X80273802Y-74504300D01*
X80435700Y-74666198D01*
X80440208Y-74669355D01*
X80440211Y-74669357D01*
X80481542Y-74698297D01*
X80623251Y-74797523D01*
X80628233Y-74799846D01*
X80628238Y-74799849D01*
X80824765Y-74891490D01*
X80830757Y-74894284D01*
X80836065Y-74895706D01*
X80836067Y-74895707D01*
X81046598Y-74952119D01*
X81046600Y-74952119D01*
X81051913Y-74953543D01*
X81280000Y-74973498D01*
X81508087Y-74953543D01*
X81513400Y-74952119D01*
X81513402Y-74952119D01*
X81723933Y-74895707D01*
X81723935Y-74895706D01*
X81729243Y-74894284D01*
X81735235Y-74891490D01*
X81931762Y-74799849D01*
X81931767Y-74799846D01*
X81936749Y-74797523D01*
X82078458Y-74698297D01*
X82119789Y-74669357D01*
X82119792Y-74669355D01*
X82124300Y-74666198D01*
X82286198Y-74504300D01*
X82417523Y-74316749D01*
X82419846Y-74311767D01*
X82419849Y-74311762D01*
X82435805Y-74277543D01*
X82482722Y-74224258D01*
X82550999Y-74204797D01*
X82618959Y-74225339D01*
X82664195Y-74277543D01*
X82680151Y-74311762D01*
X82680154Y-74311767D01*
X82682477Y-74316749D01*
X82813802Y-74504300D01*
X82975700Y-74666198D01*
X82980208Y-74669355D01*
X82980211Y-74669357D01*
X83021542Y-74698297D01*
X83163251Y-74797523D01*
X83168233Y-74799846D01*
X83168238Y-74799849D01*
X83364765Y-74891490D01*
X83370757Y-74894284D01*
X83376065Y-74895706D01*
X83376067Y-74895707D01*
X83586598Y-74952119D01*
X83586600Y-74952119D01*
X83591913Y-74953543D01*
X83597389Y-74954022D01*
X83597394Y-74954023D01*
X83620255Y-74956023D01*
X83627245Y-74956634D01*
X83693363Y-74982497D01*
X83735003Y-75040000D01*
X83738944Y-75110887D01*
X83705359Y-75171250D01*
X78442013Y-80434595D01*
X78379701Y-80468621D01*
X78352918Y-80471500D01*
X63509214Y-80471500D01*
X63507894Y-80471493D01*
X63506819Y-80471482D01*
X63417779Y-80470549D01*
X63375403Y-80479711D01*
X63362837Y-80481769D01*
X63319745Y-80486603D01*
X63313094Y-80488919D01*
X63313090Y-80488920D01*
X63288070Y-80497633D01*
X63273257Y-80501796D01*
X63240490Y-80508881D01*
X63201187Y-80527208D01*
X63189411Y-80531990D01*
X63148448Y-80546255D01*
X63142473Y-80549989D01*
X63142470Y-80549990D01*
X63120005Y-80564027D01*
X63106488Y-80571366D01*
X63082486Y-80582559D01*
X63076098Y-80585538D01*
X63070533Y-80589855D01*
X63070531Y-80589856D01*
X63041847Y-80612106D01*
X63031388Y-80619402D01*
X63000596Y-80638642D01*
X63000593Y-80638644D01*
X62994624Y-80642374D01*
X62989629Y-80647334D01*
X62989628Y-80647335D01*
X62965821Y-80670976D01*
X62965196Y-80671561D01*
X62964530Y-80672078D01*
X62938540Y-80698068D01*
X62865918Y-80770185D01*
X62865260Y-80771222D01*
X62864157Y-80772451D01*
X57854842Y-85781766D01*
X57853905Y-85782694D01*
X57789493Y-85845771D01*
X57766002Y-85882221D01*
X57758583Y-85892546D01*
X57731524Y-85926443D01*
X57728459Y-85932784D01*
X57728458Y-85932785D01*
X57716928Y-85956637D01*
X57709399Y-85970054D01*
X57691235Y-85998238D01*
X57688827Y-86004855D01*
X57688824Y-86004860D01*
X57676408Y-86038973D01*
X57671447Y-86050716D01*
X57655646Y-86083403D01*
X57655644Y-86083408D01*
X57652579Y-86089749D01*
X57650996Y-86096607D01*
X57650995Y-86096609D01*
X57645035Y-86122426D01*
X57640668Y-86137169D01*
X57629197Y-86168685D01*
X57628314Y-86175675D01*
X57628312Y-86175683D01*
X57623762Y-86211701D01*
X57621526Y-86224253D01*
X57611776Y-86266485D01*
X57611751Y-86273531D01*
X57611751Y-86273534D01*
X57611634Y-86307056D01*
X57611605Y-86307938D01*
X57611500Y-86308769D01*
X57611500Y-86345572D01*
X57611143Y-86447870D01*
X57611411Y-86449070D01*
X57611500Y-86450707D01*
X57611500Y-91430786D01*
X57611493Y-91432106D01*
X57610549Y-91522221D01*
X57619711Y-91564597D01*
X57621769Y-91577163D01*
X57626603Y-91620255D01*
X57628919Y-91626906D01*
X57628920Y-91626910D01*
X57637633Y-91651930D01*
X57641796Y-91666742D01*
X57648881Y-91699510D01*
X57667208Y-91738813D01*
X57671990Y-91750589D01*
X57686255Y-91791552D01*
X57689989Y-91797527D01*
X57689990Y-91797530D01*
X57704027Y-91819995D01*
X57711366Y-91833512D01*
X57722559Y-91857514D01*
X57725538Y-91863902D01*
X57729855Y-91869467D01*
X57729856Y-91869469D01*
X57752106Y-91898153D01*
X57759402Y-91908612D01*
X57782374Y-91945376D01*
X57787334Y-91950371D01*
X57787335Y-91950372D01*
X57810976Y-91974179D01*
X57811561Y-91974804D01*
X57812078Y-91975470D01*
X57838068Y-92001460D01*
X57910185Y-92074082D01*
X57911222Y-92074740D01*
X57912451Y-92075843D01*
X59633513Y-93796905D01*
X59667539Y-93859217D01*
X59662474Y-93930032D01*
X59619927Y-93986868D01*
X59553407Y-94011679D01*
X59544418Y-94012000D01*
X58692115Y-94012000D01*
X58676876Y-94016475D01*
X58675671Y-94017865D01*
X58674000Y-94025548D01*
X58674000Y-96247885D01*
X58678475Y-96263124D01*
X58679865Y-96264329D01*
X58687548Y-96266000D01*
X60909884Y-96266000D01*
X60925123Y-96261525D01*
X60926328Y-96260135D01*
X60927999Y-96252452D01*
X60927999Y-95395581D01*
X60948001Y-95327460D01*
X61001657Y-95280967D01*
X61071931Y-95270863D01*
X61136511Y-95300357D01*
X61143094Y-95306486D01*
X68001766Y-102165158D01*
X68002694Y-102166095D01*
X68065771Y-102230507D01*
X68102221Y-102253998D01*
X68112546Y-102261417D01*
X68146443Y-102288476D01*
X68152784Y-102291541D01*
X68152785Y-102291542D01*
X68176637Y-102303072D01*
X68190054Y-102310601D01*
X68218238Y-102328765D01*
X68224855Y-102331173D01*
X68224860Y-102331176D01*
X68258973Y-102343592D01*
X68270716Y-102348553D01*
X68303400Y-102364353D01*
X68303409Y-102364356D01*
X68309749Y-102367421D01*
X68316614Y-102369006D01*
X68342428Y-102374966D01*
X68357168Y-102379332D01*
X68388685Y-102390803D01*
X68395670Y-102391685D01*
X68395677Y-102391687D01*
X68431692Y-102396237D01*
X68444243Y-102398472D01*
X68486485Y-102408225D01*
X68493529Y-102408250D01*
X68493533Y-102408250D01*
X68527072Y-102408367D01*
X68527942Y-102408396D01*
X68528769Y-102408500D01*
X68565258Y-102408500D01*
X68565697Y-102408501D01*
X68664343Y-102408845D01*
X68664348Y-102408845D01*
X68667870Y-102408857D01*
X68669070Y-102408589D01*
X68670708Y-102408500D01*
X85139235Y-102408500D01*
X85207356Y-102428502D01*
X85234472Y-102452003D01*
X85371147Y-102609784D01*
X85549349Y-102757730D01*
X85749322Y-102874584D01*
X85754147Y-102876426D01*
X85754148Y-102876427D01*
X85767428Y-102881498D01*
X85965694Y-102957209D01*
X85970760Y-102958240D01*
X85970761Y-102958240D01*
X86023846Y-102969040D01*
X86192656Y-103003385D01*
X86322089Y-103008131D01*
X86418949Y-103011683D01*
X86418953Y-103011683D01*
X86424113Y-103011872D01*
X86429233Y-103011216D01*
X86429235Y-103011216D01*
X86503166Y-103001745D01*
X86653847Y-102982442D01*
X86658795Y-102980957D01*
X86658802Y-102980956D01*
X86870747Y-102917369D01*
X86875690Y-102915886D01*
X86880565Y-102913498D01*
X87079049Y-102816262D01*
X87079052Y-102816260D01*
X87083684Y-102813991D01*
X87272243Y-102679494D01*
X87317309Y-102634585D01*
X87379681Y-102600669D01*
X87450487Y-102605857D01*
X87507249Y-102648503D01*
X87524231Y-102679607D01*
X87549385Y-102746705D01*
X87636739Y-102863261D01*
X87753295Y-102950615D01*
X87889684Y-103001745D01*
X87951866Y-103008500D01*
X89848134Y-103008500D01*
X89910316Y-103001745D01*
X90046705Y-102950615D01*
X90163261Y-102863261D01*
X90250615Y-102746705D01*
X90301745Y-102610316D01*
X90308500Y-102548134D01*
X90308500Y-102534500D01*
X90328502Y-102466379D01*
X90382158Y-102419886D01*
X90434500Y-102408500D01*
X97965812Y-102408500D01*
X98033933Y-102428502D01*
X98054907Y-102445405D01*
X98215700Y-102606198D01*
X98220208Y-102609355D01*
X98220211Y-102609357D01*
X98298389Y-102664098D01*
X98403251Y-102737523D01*
X98408233Y-102739846D01*
X98408238Y-102739849D01*
X98567238Y-102813991D01*
X98610757Y-102834284D01*
X98616065Y-102835706D01*
X98616067Y-102835707D01*
X98826598Y-102892119D01*
X98826600Y-102892119D01*
X98831913Y-102893543D01*
X99060000Y-102913498D01*
X99288087Y-102893543D01*
X99293400Y-102892119D01*
X99293402Y-102892119D01*
X99503933Y-102835707D01*
X99503935Y-102835706D01*
X99509243Y-102834284D01*
X99552762Y-102813991D01*
X99711762Y-102739849D01*
X99711767Y-102739846D01*
X99716749Y-102737523D01*
X99821611Y-102664098D01*
X99899789Y-102609357D01*
X99899792Y-102609355D01*
X99904300Y-102606198D01*
X100066198Y-102444300D01*
X100099294Y-102397035D01*
X100136715Y-102343592D01*
X100197523Y-102256749D01*
X100199846Y-102251767D01*
X100199849Y-102251762D01*
X100216081Y-102216951D01*
X100262998Y-102163666D01*
X100331275Y-102144205D01*
X100399235Y-102164747D01*
X100444471Y-102216951D01*
X100460586Y-102251511D01*
X100466069Y-102261007D01*
X100591028Y-102439467D01*
X100598084Y-102447875D01*
X100752125Y-102601916D01*
X100760533Y-102608972D01*
X100938993Y-102733931D01*
X100948489Y-102739414D01*
X101145947Y-102831490D01*
X101156239Y-102835236D01*
X101328503Y-102881394D01*
X101342599Y-102881058D01*
X101346000Y-102873116D01*
X101346000Y-102867967D01*
X101854000Y-102867967D01*
X101857973Y-102881498D01*
X101866522Y-102882727D01*
X102043761Y-102835236D01*
X102054053Y-102831490D01*
X102251511Y-102739414D01*
X102261007Y-102733931D01*
X102439467Y-102608972D01*
X102447875Y-102601916D01*
X102601916Y-102447875D01*
X102608972Y-102439467D01*
X102733931Y-102261007D01*
X102739414Y-102251511D01*
X102831490Y-102054053D01*
X102835236Y-102043761D01*
X102881394Y-101871497D01*
X102881058Y-101857401D01*
X102873116Y-101854000D01*
X101872115Y-101854000D01*
X101856876Y-101858475D01*
X101855671Y-101859865D01*
X101854000Y-101867548D01*
X101854000Y-102867967D01*
X101346000Y-102867967D01*
X101346000Y-101327885D01*
X101854000Y-101327885D01*
X101858475Y-101343124D01*
X101859865Y-101344329D01*
X101867548Y-101346000D01*
X102867967Y-101346000D01*
X102881498Y-101342027D01*
X102882727Y-101333478D01*
X102835236Y-101156239D01*
X102831490Y-101145947D01*
X102739414Y-100948489D01*
X102733931Y-100938993D01*
X102608972Y-100760533D01*
X102601916Y-100752125D01*
X102447875Y-100598084D01*
X102439467Y-100591028D01*
X102261007Y-100466069D01*
X102251511Y-100460586D01*
X102054053Y-100368510D01*
X102043761Y-100364764D01*
X101871497Y-100318606D01*
X101857401Y-100318942D01*
X101854000Y-100326884D01*
X101854000Y-101327885D01*
X101346000Y-101327885D01*
X101346000Y-100332033D01*
X101342027Y-100318502D01*
X101333478Y-100317273D01*
X101156239Y-100364764D01*
X101145947Y-100368510D01*
X100948489Y-100460586D01*
X100938993Y-100466069D01*
X100760533Y-100591028D01*
X100752125Y-100598084D01*
X100598084Y-100752125D01*
X100591028Y-100760533D01*
X100466069Y-100938993D01*
X100460586Y-100948489D01*
X100444471Y-100983049D01*
X100397554Y-101036334D01*
X100329277Y-101055795D01*
X100261317Y-101035253D01*
X100216081Y-100983049D01*
X100199849Y-100948238D01*
X100199846Y-100948233D01*
X100197523Y-100943251D01*
X100089250Y-100788621D01*
X100069357Y-100760211D01*
X100069355Y-100760208D01*
X100066198Y-100755700D01*
X99904300Y-100593802D01*
X99899792Y-100590645D01*
X99899789Y-100590643D01*
X99794481Y-100516906D01*
X99716749Y-100462477D01*
X99711767Y-100460154D01*
X99711762Y-100460151D01*
X99514225Y-100368039D01*
X99514224Y-100368039D01*
X99509243Y-100365716D01*
X99503935Y-100364294D01*
X99503933Y-100364293D01*
X99293402Y-100307881D01*
X99293400Y-100307881D01*
X99288087Y-100306457D01*
X99060000Y-100286502D01*
X98831913Y-100306457D01*
X98826600Y-100307881D01*
X98826598Y-100307881D01*
X98616067Y-100364293D01*
X98616065Y-100364294D01*
X98610757Y-100365716D01*
X98605776Y-100368039D01*
X98605775Y-100368039D01*
X98408238Y-100460151D01*
X98408233Y-100460154D01*
X98403251Y-100462477D01*
X98325519Y-100516906D01*
X98220211Y-100590643D01*
X98220208Y-100590645D01*
X98215700Y-100593802D01*
X98054907Y-100754595D01*
X97992595Y-100788621D01*
X97965812Y-100791500D01*
X90434500Y-100791500D01*
X90366379Y-100771498D01*
X90319886Y-100717842D01*
X90308500Y-100665500D01*
X90308500Y-100651866D01*
X90301745Y-100589684D01*
X90250615Y-100453295D01*
X90163261Y-100336739D01*
X90046705Y-100249385D01*
X89910316Y-100198255D01*
X89848134Y-100191500D01*
X87951866Y-100191500D01*
X87889684Y-100198255D01*
X87753295Y-100249385D01*
X87636739Y-100336739D01*
X87549385Y-100453295D01*
X87546233Y-100461703D01*
X87546232Y-100461705D01*
X87525538Y-100516906D01*
X87482897Y-100573671D01*
X87416335Y-100598371D01*
X87346986Y-100583164D01*
X87324167Y-100566666D01*
X87323887Y-100566358D01*
X87196348Y-100465634D01*
X87146177Y-100426011D01*
X87146172Y-100426008D01*
X87142123Y-100422810D01*
X87137607Y-100420317D01*
X87137604Y-100420315D01*
X86943879Y-100313373D01*
X86943875Y-100313371D01*
X86939355Y-100310876D01*
X86934486Y-100309152D01*
X86934482Y-100309150D01*
X86725903Y-100235288D01*
X86725899Y-100235287D01*
X86721028Y-100233562D01*
X86715935Y-100232655D01*
X86715932Y-100232654D01*
X86498095Y-100193851D01*
X86498089Y-100193850D01*
X86493006Y-100192945D01*
X86420096Y-100192054D01*
X86266581Y-100190179D01*
X86266579Y-100190179D01*
X86261411Y-100190116D01*
X86032464Y-100225150D01*
X85812314Y-100297106D01*
X85807726Y-100299494D01*
X85807722Y-100299496D01*
X85611461Y-100401663D01*
X85606872Y-100404052D01*
X85602739Y-100407155D01*
X85602736Y-100407157D01*
X85425790Y-100540012D01*
X85421655Y-100543117D01*
X85261639Y-100710564D01*
X85243942Y-100736506D01*
X85189033Y-100781507D01*
X85139856Y-100791500D01*
X68967082Y-100791500D01*
X68898961Y-100771498D01*
X68877987Y-100754595D01*
X59265405Y-91142013D01*
X59231379Y-91079701D01*
X59228500Y-91052918D01*
X59228500Y-86747082D01*
X59248502Y-86678961D01*
X59265405Y-86657987D01*
X63797987Y-82125405D01*
X63860299Y-82091379D01*
X63887082Y-82088500D01*
X78730786Y-82088500D01*
X78732106Y-82088507D01*
X78822221Y-82089451D01*
X78864597Y-82080289D01*
X78877163Y-82078231D01*
X78920255Y-82073397D01*
X78926906Y-82071081D01*
X78926910Y-82071080D01*
X78951930Y-82062367D01*
X78966742Y-82058204D01*
X78992619Y-82052609D01*
X78999510Y-82051119D01*
X79038813Y-82032792D01*
X79050589Y-82028010D01*
X79091552Y-82013745D01*
X79097527Y-82010011D01*
X79097530Y-82010010D01*
X79119995Y-81995973D01*
X79133512Y-81988634D01*
X79157514Y-81977441D01*
X79157515Y-81977440D01*
X79163902Y-81974462D01*
X79198153Y-81947894D01*
X79208612Y-81940598D01*
X79239404Y-81921358D01*
X79239407Y-81921356D01*
X79245376Y-81917626D01*
X79274179Y-81889024D01*
X79274804Y-81888439D01*
X79275470Y-81887922D01*
X79301460Y-81861932D01*
X79374082Y-81789815D01*
X79374740Y-81788778D01*
X79375843Y-81787549D01*
X86162032Y-75001360D01*
X86224344Y-74967334D01*
X86262108Y-74964934D01*
X86354524Y-74973019D01*
X86354525Y-74973019D01*
X86360000Y-74973498D01*
X86588087Y-74953543D01*
X86593400Y-74952119D01*
X86593402Y-74952119D01*
X86803933Y-74895707D01*
X86803935Y-74895706D01*
X86809243Y-74894284D01*
X86815235Y-74891490D01*
X87011762Y-74799849D01*
X87011767Y-74799846D01*
X87016749Y-74797523D01*
X87158458Y-74698297D01*
X87199789Y-74669357D01*
X87199792Y-74669355D01*
X87204300Y-74666198D01*
X87366198Y-74504300D01*
X87497523Y-74316749D01*
X87499846Y-74311767D01*
X87499849Y-74311762D01*
X87515805Y-74277543D01*
X87562722Y-74224258D01*
X87630999Y-74204797D01*
X87698959Y-74225339D01*
X87744195Y-74277543D01*
X87760151Y-74311762D01*
X87760154Y-74311767D01*
X87762477Y-74316749D01*
X87893802Y-74504300D01*
X88055700Y-74666198D01*
X88060208Y-74669355D01*
X88060211Y-74669357D01*
X88101542Y-74698297D01*
X88243251Y-74797523D01*
X88248233Y-74799846D01*
X88248238Y-74799849D01*
X88444765Y-74891490D01*
X88450757Y-74894284D01*
X88456065Y-74895706D01*
X88456067Y-74895707D01*
X88666598Y-74952119D01*
X88666600Y-74952119D01*
X88671913Y-74953543D01*
X88900000Y-74973498D01*
X88905475Y-74973019D01*
X88905476Y-74973019D01*
X88997892Y-74964934D01*
X89067497Y-74978924D01*
X89097968Y-75001360D01*
X93981766Y-79885158D01*
X93982694Y-79886095D01*
X94045771Y-79950507D01*
X94082221Y-79973998D01*
X94092546Y-79981417D01*
X94126443Y-80008476D01*
X94132784Y-80011541D01*
X94132785Y-80011542D01*
X94156637Y-80023072D01*
X94170054Y-80030601D01*
X94198238Y-80048765D01*
X94204855Y-80051173D01*
X94204860Y-80051176D01*
X94238973Y-80063592D01*
X94250716Y-80068553D01*
X94283400Y-80084353D01*
X94283409Y-80084356D01*
X94289749Y-80087421D01*
X94296614Y-80089006D01*
X94322428Y-80094966D01*
X94337168Y-80099332D01*
X94368685Y-80110803D01*
X94375670Y-80111685D01*
X94375677Y-80111687D01*
X94411692Y-80116237D01*
X94424243Y-80118472D01*
X94466485Y-80128225D01*
X94473529Y-80128250D01*
X94473533Y-80128250D01*
X94507072Y-80128367D01*
X94507942Y-80128396D01*
X94508769Y-80128500D01*
X94545258Y-80128500D01*
X94545697Y-80128501D01*
X94644343Y-80128845D01*
X94644348Y-80128845D01*
X94647870Y-80128857D01*
X94649070Y-80128589D01*
X94650708Y-80128500D01*
X114075676Y-80128500D01*
X114143797Y-80148502D01*
X114183107Y-80188664D01*
X114195824Y-80209416D01*
X114350031Y-80389969D01*
X114530584Y-80544176D01*
X114534792Y-80546755D01*
X114534798Y-80546759D01*
X114698923Y-80647335D01*
X114733037Y-80668240D01*
X114737607Y-80670133D01*
X114737611Y-80670135D01*
X114947833Y-80757211D01*
X114952406Y-80759105D01*
X115032609Y-80778360D01*
X115178476Y-80813380D01*
X115178482Y-80813381D01*
X115183289Y-80814535D01*
X115420000Y-80833165D01*
X115656711Y-80814535D01*
X115661518Y-80813381D01*
X115661524Y-80813380D01*
X115807391Y-80778360D01*
X115887594Y-80759105D01*
X115892167Y-80757211D01*
X116102389Y-80670135D01*
X116102393Y-80670133D01*
X116106963Y-80668240D01*
X116141077Y-80647335D01*
X116305202Y-80546759D01*
X116305208Y-80546755D01*
X116309416Y-80544176D01*
X116489969Y-80389969D01*
X116644176Y-80209416D01*
X116656893Y-80188664D01*
X116709538Y-80141034D01*
X116764324Y-80128500D01*
X120575676Y-80128500D01*
X120643797Y-80148502D01*
X120683107Y-80188664D01*
X120695824Y-80209416D01*
X120850031Y-80389969D01*
X121030584Y-80544176D01*
X121034792Y-80546755D01*
X121034798Y-80546759D01*
X121198923Y-80647335D01*
X121233037Y-80668240D01*
X121237607Y-80670133D01*
X121237611Y-80670135D01*
X121447833Y-80757211D01*
X121452406Y-80759105D01*
X121532609Y-80778360D01*
X121678476Y-80813380D01*
X121678482Y-80813381D01*
X121683289Y-80814535D01*
X121920000Y-80833165D01*
X122156711Y-80814535D01*
X122161518Y-80813381D01*
X122161524Y-80813380D01*
X122307391Y-80778360D01*
X122387594Y-80759105D01*
X122392167Y-80757211D01*
X122602389Y-80670135D01*
X122602393Y-80670133D01*
X122606963Y-80668240D01*
X122641077Y-80647335D01*
X122805202Y-80546759D01*
X122805208Y-80546755D01*
X122809416Y-80544176D01*
X122989969Y-80389969D01*
X123144176Y-80209416D01*
X123146755Y-80205208D01*
X123146759Y-80205202D01*
X123265654Y-80011183D01*
X123268240Y-80006963D01*
X123280467Y-79977446D01*
X123357211Y-79792167D01*
X123357212Y-79792165D01*
X123359105Y-79787594D01*
X123414535Y-79556711D01*
X123433165Y-79320000D01*
X123414535Y-79083289D01*
X123359105Y-78852406D01*
X123268240Y-78633037D01*
X123186081Y-78498966D01*
X123146759Y-78434798D01*
X123146755Y-78434792D01*
X123144176Y-78430584D01*
X122989969Y-78250031D01*
X122809416Y-78095824D01*
X122805208Y-78093245D01*
X122805202Y-78093241D01*
X122611183Y-77974346D01*
X122606963Y-77971760D01*
X122602393Y-77969867D01*
X122602389Y-77969865D01*
X122392167Y-77882789D01*
X122392165Y-77882788D01*
X122387594Y-77880895D01*
X122307391Y-77861640D01*
X122161524Y-77826620D01*
X122161518Y-77826619D01*
X122156711Y-77825465D01*
X121920000Y-77806835D01*
X121683289Y-77825465D01*
X121678482Y-77826619D01*
X121678476Y-77826620D01*
X121532609Y-77861640D01*
X121452406Y-77880895D01*
X121447835Y-77882788D01*
X121447833Y-77882789D01*
X121237611Y-77969865D01*
X121237607Y-77969867D01*
X121233037Y-77971760D01*
X121228817Y-77974346D01*
X121034798Y-78093241D01*
X121034792Y-78093245D01*
X121030584Y-78095824D01*
X120850031Y-78250031D01*
X120695824Y-78430584D01*
X120683107Y-78451336D01*
X120630462Y-78498966D01*
X120575676Y-78511500D01*
X116764324Y-78511500D01*
X116696203Y-78491498D01*
X116656893Y-78451336D01*
X116644176Y-78430584D01*
X116489969Y-78250031D01*
X116309416Y-78095824D01*
X116288664Y-78083107D01*
X116241034Y-78030462D01*
X116228500Y-77975676D01*
X116228500Y-69709214D01*
X116228507Y-69707894D01*
X116229377Y-69624826D01*
X116229451Y-69617779D01*
X116220289Y-69575403D01*
X116218230Y-69562832D01*
X116214182Y-69526744D01*
X116213397Y-69519745D01*
X116202367Y-69488070D01*
X116198204Y-69473258D01*
X116192609Y-69447381D01*
X116191119Y-69440490D01*
X116172792Y-69401187D01*
X116168010Y-69389411D01*
X116153745Y-69348448D01*
X116150010Y-69342470D01*
X116135973Y-69320005D01*
X116128634Y-69306488D01*
X116117441Y-69282486D01*
X116117440Y-69282485D01*
X116114462Y-69276098D01*
X116087894Y-69241847D01*
X116080598Y-69231388D01*
X116061358Y-69200596D01*
X116061356Y-69200593D01*
X116057626Y-69194624D01*
X116029024Y-69165821D01*
X116028439Y-69165196D01*
X116027922Y-69164530D01*
X116001932Y-69138540D01*
X115929815Y-69065918D01*
X115928778Y-69065260D01*
X115927549Y-69064157D01*
X110561360Y-63697968D01*
X110527334Y-63635656D01*
X110524934Y-63597892D01*
X110533019Y-63505476D01*
X110533019Y-63505475D01*
X110533498Y-63500000D01*
X110513543Y-63271913D01*
X110505028Y-63240135D01*
X110455707Y-63056067D01*
X110455706Y-63056065D01*
X110454284Y-63050757D01*
X110359966Y-62848489D01*
X110359849Y-62848238D01*
X110359846Y-62848233D01*
X110357523Y-62843251D01*
X110226198Y-62655700D01*
X110064300Y-62493802D01*
X110059792Y-62490645D01*
X110059789Y-62490643D01*
X109981611Y-62435902D01*
X109876749Y-62362477D01*
X109871767Y-62360154D01*
X109871762Y-62360151D01*
X109674225Y-62268039D01*
X109674224Y-62268039D01*
X109669243Y-62265716D01*
X109663935Y-62264294D01*
X109663933Y-62264293D01*
X109453402Y-62207881D01*
X109453400Y-62207881D01*
X109448087Y-62206457D01*
X109220000Y-62186502D01*
X108991913Y-62206457D01*
X108986600Y-62207881D01*
X108986598Y-62207881D01*
X108776067Y-62264293D01*
X108776065Y-62264294D01*
X108770757Y-62265716D01*
X108765776Y-62268039D01*
X108765775Y-62268039D01*
X108568238Y-62360151D01*
X108568233Y-62360154D01*
X108563251Y-62362477D01*
X108458389Y-62435902D01*
X108380211Y-62490643D01*
X108380208Y-62490645D01*
X108375700Y-62493802D01*
X108213802Y-62655700D01*
X108082477Y-62843251D01*
X108080154Y-62848233D01*
X108080151Y-62848238D01*
X108063919Y-62883049D01*
X108017002Y-62936334D01*
X107948725Y-62955795D01*
X107880765Y-62935253D01*
X107835529Y-62883049D01*
X107819414Y-62848489D01*
X107813931Y-62838993D01*
X107688972Y-62660533D01*
X107681916Y-62652125D01*
X107527875Y-62498084D01*
X107519467Y-62491028D01*
X107341007Y-62366069D01*
X107331511Y-62360586D01*
X107134053Y-62268510D01*
X107123761Y-62264764D01*
X106951497Y-62218606D01*
X106937401Y-62218942D01*
X106934000Y-62226884D01*
X106934000Y-64767967D01*
X106937973Y-64781498D01*
X106946522Y-64782727D01*
X107123761Y-64735236D01*
X107134053Y-64731490D01*
X107331511Y-64639414D01*
X107341007Y-64633931D01*
X107519467Y-64508972D01*
X107527875Y-64501916D01*
X107681916Y-64347875D01*
X107688972Y-64339467D01*
X107813931Y-64161007D01*
X107819414Y-64151511D01*
X107835529Y-64116951D01*
X107882446Y-64063666D01*
X107950723Y-64044205D01*
X108018683Y-64064747D01*
X108063919Y-64116951D01*
X108080151Y-64151762D01*
X108080154Y-64151767D01*
X108082477Y-64156749D01*
X108213802Y-64344300D01*
X108375700Y-64506198D01*
X108380208Y-64509355D01*
X108380211Y-64509357D01*
X108458389Y-64564098D01*
X108563251Y-64637523D01*
X108568233Y-64639846D01*
X108568238Y-64639849D01*
X108764765Y-64731490D01*
X108770757Y-64734284D01*
X108776065Y-64735706D01*
X108776067Y-64735707D01*
X108986598Y-64792119D01*
X108986600Y-64792119D01*
X108991913Y-64793543D01*
X109220000Y-64813498D01*
X109225475Y-64813019D01*
X109225476Y-64813019D01*
X109317892Y-64804934D01*
X109387497Y-64818924D01*
X109417968Y-64841360D01*
X114574595Y-69997987D01*
X114608621Y-70060299D01*
X114611500Y-70087082D01*
X114611500Y-77975676D01*
X114591498Y-78043797D01*
X114551336Y-78083107D01*
X114530584Y-78095824D01*
X114350031Y-78250031D01*
X114195824Y-78430584D01*
X114183107Y-78451336D01*
X114130462Y-78498966D01*
X114075676Y-78511500D01*
X94947082Y-78511500D01*
X94878961Y-78491498D01*
X94857987Y-78474595D01*
X91554181Y-75170789D01*
X91520155Y-75108477D01*
X91525220Y-75037662D01*
X91567767Y-74980826D01*
X91632293Y-74956174D01*
X91662510Y-74953530D01*
X91673312Y-74951625D01*
X91883761Y-74895236D01*
X91894053Y-74891490D01*
X92091511Y-74799414D01*
X92101007Y-74793931D01*
X92279467Y-74668972D01*
X92287875Y-74661916D01*
X92441916Y-74507875D01*
X92448972Y-74499467D01*
X92573931Y-74321007D01*
X92579414Y-74311511D01*
X92595529Y-74276951D01*
X92642446Y-74223666D01*
X92710723Y-74204205D01*
X92778683Y-74224747D01*
X92823919Y-74276951D01*
X92840151Y-74311762D01*
X92840154Y-74311767D01*
X92842477Y-74316749D01*
X92973802Y-74504300D01*
X93135700Y-74666198D01*
X93140208Y-74669355D01*
X93140211Y-74669357D01*
X93181542Y-74698297D01*
X93323251Y-74797523D01*
X93328233Y-74799846D01*
X93328238Y-74799849D01*
X93524765Y-74891490D01*
X93530757Y-74894284D01*
X93536065Y-74895706D01*
X93536067Y-74895707D01*
X93746598Y-74952119D01*
X93746600Y-74952119D01*
X93751913Y-74953543D01*
X93980000Y-74973498D01*
X94208087Y-74953543D01*
X94213400Y-74952119D01*
X94213402Y-74952119D01*
X94423933Y-74895707D01*
X94423935Y-74895706D01*
X94429243Y-74894284D01*
X94435235Y-74891490D01*
X94631762Y-74799849D01*
X94631767Y-74799846D01*
X94636749Y-74797523D01*
X94778458Y-74698297D01*
X94819789Y-74669357D01*
X94819792Y-74669355D01*
X94824300Y-74666198D01*
X94986198Y-74504300D01*
X95117523Y-74316749D01*
X95119846Y-74311767D01*
X95119849Y-74311762D01*
X95135805Y-74277543D01*
X95182722Y-74224258D01*
X95250999Y-74204797D01*
X95318959Y-74225339D01*
X95364195Y-74277543D01*
X95380151Y-74311762D01*
X95380154Y-74311767D01*
X95382477Y-74316749D01*
X95513802Y-74504300D01*
X95675700Y-74666198D01*
X95680208Y-74669355D01*
X95680211Y-74669357D01*
X95721542Y-74698297D01*
X95863251Y-74797523D01*
X95868233Y-74799846D01*
X95868238Y-74799849D01*
X96064765Y-74891490D01*
X96070757Y-74894284D01*
X96076065Y-74895706D01*
X96076067Y-74895707D01*
X96286598Y-74952119D01*
X96286600Y-74952119D01*
X96291913Y-74953543D01*
X96520000Y-74973498D01*
X96748087Y-74953543D01*
X96753400Y-74952119D01*
X96753402Y-74952119D01*
X96963933Y-74895707D01*
X96963935Y-74895706D01*
X96969243Y-74894284D01*
X96975235Y-74891490D01*
X97171762Y-74799849D01*
X97171767Y-74799846D01*
X97176749Y-74797523D01*
X97318458Y-74698297D01*
X97359789Y-74669357D01*
X97359792Y-74669355D01*
X97364300Y-74666198D01*
X97526198Y-74504300D01*
X97529357Y-74499789D01*
X97532892Y-74495576D01*
X97534026Y-74496527D01*
X97584071Y-74456529D01*
X97654690Y-74449224D01*
X97718049Y-74481258D01*
X97754030Y-74542462D01*
X97757082Y-74559517D01*
X97758255Y-74570316D01*
X97809385Y-74706705D01*
X97896739Y-74823261D01*
X98013295Y-74910615D01*
X98149684Y-74961745D01*
X98211866Y-74968500D01*
X99908134Y-74968500D01*
X99970316Y-74961745D01*
X100106705Y-74910615D01*
X100223261Y-74823261D01*
X100310615Y-74706705D01*
X100361745Y-74570316D01*
X100368500Y-74508134D01*
X100368500Y-72811866D01*
X100361745Y-72749684D01*
X100310615Y-72613295D01*
X100223261Y-72496739D01*
X100106705Y-72409385D01*
X99970316Y-72358255D01*
X99908134Y-72351500D01*
X98211866Y-72351500D01*
X98149684Y-72358255D01*
X98013295Y-72409385D01*
X97896739Y-72496739D01*
X97809385Y-72613295D01*
X97758255Y-72749684D01*
X97757083Y-72760474D01*
X97756197Y-72762606D01*
X97755575Y-72765222D01*
X97755152Y-72765121D01*
X97729845Y-72826035D01*
X97671483Y-72866463D01*
X97600529Y-72868922D01*
X97539510Y-72832629D01*
X97532511Y-72823969D01*
X97529354Y-72820207D01*
X97526198Y-72815700D01*
X97364300Y-72653802D01*
X97359792Y-72650645D01*
X97359789Y-72650643D01*
X97281611Y-72595902D01*
X97176749Y-72522477D01*
X97171767Y-72520154D01*
X97171762Y-72520151D01*
X96974225Y-72428039D01*
X96974224Y-72428039D01*
X96969243Y-72425716D01*
X96963935Y-72424294D01*
X96963933Y-72424293D01*
X96753402Y-72367881D01*
X96753400Y-72367881D01*
X96748087Y-72366457D01*
X96520000Y-72346502D01*
X96291913Y-72366457D01*
X96286600Y-72367881D01*
X96286598Y-72367881D01*
X96076067Y-72424293D01*
X96076065Y-72424294D01*
X96070757Y-72425716D01*
X96065776Y-72428039D01*
X96065775Y-72428039D01*
X95868238Y-72520151D01*
X95868233Y-72520154D01*
X95863251Y-72522477D01*
X95758389Y-72595902D01*
X95680211Y-72650643D01*
X95680208Y-72650645D01*
X95675700Y-72653802D01*
X95513802Y-72815700D01*
X95382477Y-73003251D01*
X95380154Y-73008233D01*
X95380151Y-73008238D01*
X95364195Y-73042457D01*
X95317278Y-73095742D01*
X95249001Y-73115203D01*
X95181041Y-73094661D01*
X95135805Y-73042457D01*
X95119849Y-73008238D01*
X95119846Y-73008233D01*
X95117523Y-73003251D01*
X94986198Y-72815700D01*
X94824300Y-72653802D01*
X94819792Y-72650645D01*
X94819789Y-72650643D01*
X94741611Y-72595902D01*
X94636749Y-72522477D01*
X94631767Y-72520154D01*
X94631762Y-72520151D01*
X94434225Y-72428039D01*
X94434224Y-72428039D01*
X94429243Y-72425716D01*
X94423935Y-72424294D01*
X94423933Y-72424293D01*
X94213402Y-72367881D01*
X94213400Y-72367881D01*
X94208087Y-72366457D01*
X93980000Y-72346502D01*
X93751913Y-72366457D01*
X93746600Y-72367881D01*
X93746598Y-72367881D01*
X93536067Y-72424293D01*
X93536065Y-72424294D01*
X93530757Y-72425716D01*
X93525776Y-72428039D01*
X93525775Y-72428039D01*
X93328238Y-72520151D01*
X93328233Y-72520154D01*
X93323251Y-72522477D01*
X93218389Y-72595902D01*
X93140211Y-72650643D01*
X93140208Y-72650645D01*
X93135700Y-72653802D01*
X92973802Y-72815700D01*
X92842477Y-73003251D01*
X92840154Y-73008233D01*
X92840151Y-73008238D01*
X92823919Y-73043049D01*
X92777002Y-73096334D01*
X92708725Y-73115795D01*
X92640765Y-73095253D01*
X92595529Y-73043049D01*
X92579414Y-73008489D01*
X92573931Y-72998993D01*
X92448972Y-72820533D01*
X92441916Y-72812125D01*
X92287875Y-72658084D01*
X92279467Y-72651028D01*
X92101007Y-72526069D01*
X92091511Y-72520586D01*
X91894053Y-72428510D01*
X91883761Y-72424764D01*
X91711497Y-72378606D01*
X91697401Y-72378942D01*
X91694000Y-72386884D01*
X91694000Y-73788000D01*
X91673998Y-73856121D01*
X91620342Y-73902614D01*
X91568000Y-73914000D01*
X91312000Y-73914000D01*
X91243879Y-73893998D01*
X91197386Y-73840342D01*
X91186000Y-73788000D01*
X91186000Y-72392033D01*
X91182027Y-72378502D01*
X91173478Y-72377273D01*
X90996239Y-72424764D01*
X90985947Y-72428510D01*
X90788489Y-72520586D01*
X90778993Y-72526069D01*
X90600533Y-72651028D01*
X90592125Y-72658084D01*
X90438084Y-72812125D01*
X90431028Y-72820533D01*
X90306069Y-72998993D01*
X90300586Y-73008489D01*
X90284471Y-73043049D01*
X90237554Y-73096334D01*
X90169277Y-73115795D01*
X90101317Y-73095253D01*
X90056081Y-73043049D01*
X90039849Y-73008238D01*
X90039846Y-73008233D01*
X90037523Y-73003251D01*
X89906198Y-72815700D01*
X89744300Y-72653802D01*
X89739792Y-72650645D01*
X89739789Y-72650643D01*
X89661611Y-72595902D01*
X89556749Y-72522477D01*
X89551767Y-72520154D01*
X89551762Y-72520151D01*
X89354225Y-72428039D01*
X89354224Y-72428039D01*
X89349243Y-72425716D01*
X89343935Y-72424294D01*
X89343933Y-72424293D01*
X89133402Y-72367881D01*
X89133400Y-72367881D01*
X89128087Y-72366457D01*
X88900000Y-72346502D01*
X88671913Y-72366457D01*
X88666600Y-72367881D01*
X88666598Y-72367881D01*
X88456067Y-72424293D01*
X88456065Y-72424294D01*
X88450757Y-72425716D01*
X88445776Y-72428039D01*
X88445775Y-72428039D01*
X88248238Y-72520151D01*
X88248233Y-72520154D01*
X88243251Y-72522477D01*
X88138389Y-72595902D01*
X88060211Y-72650643D01*
X88060208Y-72650645D01*
X88055700Y-72653802D01*
X87893802Y-72815700D01*
X87762477Y-73003251D01*
X87760154Y-73008233D01*
X87760151Y-73008238D01*
X87744195Y-73042457D01*
X87697278Y-73095742D01*
X87629001Y-73115203D01*
X87561041Y-73094661D01*
X87515805Y-73042457D01*
X87499849Y-73008238D01*
X87499846Y-73008233D01*
X87497523Y-73003251D01*
X87366198Y-72815700D01*
X87204300Y-72653802D01*
X87199792Y-72650645D01*
X87199789Y-72650643D01*
X87121611Y-72595902D01*
X87016749Y-72522477D01*
X87011767Y-72520154D01*
X87011762Y-72520151D01*
X86814225Y-72428039D01*
X86814224Y-72428039D01*
X86809243Y-72425716D01*
X86803935Y-72424294D01*
X86803933Y-72424293D01*
X86593402Y-72367881D01*
X86593400Y-72367881D01*
X86588087Y-72366457D01*
X86360000Y-72346502D01*
X86131913Y-72366457D01*
X86126600Y-72367881D01*
X86126598Y-72367881D01*
X85916067Y-72424293D01*
X85916065Y-72424294D01*
X85910757Y-72425716D01*
X85905776Y-72428039D01*
X85905775Y-72428039D01*
X85708238Y-72520151D01*
X85708233Y-72520154D01*
X85703251Y-72522477D01*
X85598389Y-72595902D01*
X85520211Y-72650643D01*
X85520208Y-72650645D01*
X85515700Y-72653802D01*
X85353802Y-72815700D01*
X85222477Y-73003251D01*
X85220154Y-73008233D01*
X85220151Y-73008238D01*
X85204195Y-73042457D01*
X85157278Y-73095742D01*
X85089001Y-73115203D01*
X85021041Y-73094661D01*
X84975805Y-73042457D01*
X84959849Y-73008238D01*
X84959846Y-73008233D01*
X84957523Y-73003251D01*
X84826198Y-72815700D01*
X84664300Y-72653802D01*
X84659792Y-72650645D01*
X84659789Y-72650643D01*
X84581611Y-72595902D01*
X84476749Y-72522477D01*
X84471767Y-72520154D01*
X84471762Y-72520151D01*
X84274225Y-72428039D01*
X84274224Y-72428039D01*
X84269243Y-72425716D01*
X84263935Y-72424294D01*
X84263933Y-72424293D01*
X84053402Y-72367881D01*
X84053400Y-72367881D01*
X84048087Y-72366457D01*
X83820000Y-72346502D01*
X83591913Y-72366457D01*
X83586600Y-72367881D01*
X83586598Y-72367881D01*
X83376067Y-72424293D01*
X83376065Y-72424294D01*
X83370757Y-72425716D01*
X83365776Y-72428039D01*
X83365775Y-72428039D01*
X83168238Y-72520151D01*
X83168233Y-72520154D01*
X83163251Y-72522477D01*
X83058389Y-72595902D01*
X82980211Y-72650643D01*
X82980208Y-72650645D01*
X82975700Y-72653802D01*
X82813802Y-72815700D01*
X82682477Y-73003251D01*
X82680154Y-73008233D01*
X82680151Y-73008238D01*
X82664195Y-73042457D01*
X82617278Y-73095742D01*
X82549001Y-73115203D01*
X82481041Y-73094661D01*
X82435805Y-73042457D01*
X82419849Y-73008238D01*
X82419846Y-73008233D01*
X82417523Y-73003251D01*
X82286198Y-72815700D01*
X82124300Y-72653802D01*
X82119792Y-72650645D01*
X82119789Y-72650643D01*
X82041611Y-72595902D01*
X81936749Y-72522477D01*
X81931767Y-72520154D01*
X81931762Y-72520151D01*
X81734225Y-72428039D01*
X81734224Y-72428039D01*
X81729243Y-72425716D01*
X81723935Y-72424294D01*
X81723933Y-72424293D01*
X81513402Y-72367881D01*
X81513400Y-72367881D01*
X81508087Y-72366457D01*
X81502611Y-72365978D01*
X81502606Y-72365977D01*
X81475994Y-72363649D01*
X81472756Y-72363366D01*
X81406638Y-72337503D01*
X81364998Y-72279999D01*
X81361057Y-72209112D01*
X81394642Y-72148750D01*
X81845158Y-71698234D01*
X81846095Y-71697306D01*
X81905475Y-71639157D01*
X81905476Y-71639156D01*
X81910507Y-71634229D01*
X81933998Y-71597779D01*
X81941417Y-71587454D01*
X81968476Y-71553557D01*
X81971540Y-71547218D01*
X81971543Y-71547214D01*
X81983074Y-71523362D01*
X81990601Y-71509949D01*
X82004947Y-71487687D01*
X82004948Y-71487684D01*
X82008765Y-71481762D01*
X82018545Y-71454892D01*
X82023592Y-71441027D01*
X82028553Y-71429283D01*
X82044352Y-71396601D01*
X82044353Y-71396599D01*
X82047421Y-71390252D01*
X82054966Y-71357573D01*
X82059334Y-71342825D01*
X82070803Y-71311315D01*
X82071685Y-71304329D01*
X82071687Y-71304323D01*
X82076238Y-71268299D01*
X82078474Y-71255747D01*
X82086638Y-71220386D01*
X82086638Y-71220383D01*
X82088224Y-71213515D01*
X82088366Y-71172944D01*
X82088395Y-71172062D01*
X82088500Y-71171231D01*
X82088500Y-71134428D01*
X82088813Y-71044826D01*
X82088845Y-71035657D01*
X82088845Y-71035652D01*
X82088857Y-71032130D01*
X82088589Y-71030930D01*
X82088500Y-71029293D01*
X82088500Y-63766522D01*
X105397273Y-63766522D01*
X105444764Y-63943761D01*
X105448510Y-63954053D01*
X105540586Y-64151511D01*
X105546069Y-64161007D01*
X105671028Y-64339467D01*
X105678084Y-64347875D01*
X105832125Y-64501916D01*
X105840533Y-64508972D01*
X106018993Y-64633931D01*
X106028489Y-64639414D01*
X106225947Y-64731490D01*
X106236239Y-64735236D01*
X106408503Y-64781394D01*
X106422599Y-64781058D01*
X106426000Y-64773116D01*
X106426000Y-63772115D01*
X106421525Y-63756876D01*
X106420135Y-63755671D01*
X106412452Y-63754000D01*
X105412033Y-63754000D01*
X105398502Y-63757973D01*
X105397273Y-63766522D01*
X82088500Y-63766522D01*
X82088500Y-63228503D01*
X105398606Y-63228503D01*
X105398942Y-63242599D01*
X105406884Y-63246000D01*
X106407885Y-63246000D01*
X106423124Y-63241525D01*
X106424329Y-63240135D01*
X106426000Y-63232452D01*
X106426000Y-62232033D01*
X106422027Y-62218502D01*
X106413478Y-62217273D01*
X106236239Y-62264764D01*
X106225947Y-62268510D01*
X106028489Y-62360586D01*
X106018993Y-62366069D01*
X105840533Y-62491028D01*
X105832125Y-62498084D01*
X105678084Y-62652125D01*
X105671028Y-62660533D01*
X105546069Y-62838993D01*
X105540586Y-62848489D01*
X105448510Y-63045947D01*
X105444764Y-63056239D01*
X105398606Y-63228503D01*
X82088500Y-63228503D01*
X82088500Y-62054188D01*
X82108502Y-61986067D01*
X82125405Y-61965093D01*
X82286198Y-61804300D01*
X82417523Y-61616749D01*
X82419846Y-61611767D01*
X82419849Y-61611762D01*
X82511961Y-61414225D01*
X82511961Y-61414224D01*
X82514284Y-61409243D01*
X82573543Y-61188087D01*
X82593498Y-60960000D01*
X82573543Y-60731913D01*
X82514284Y-60510757D01*
X82511961Y-60505775D01*
X82419849Y-60308238D01*
X82419846Y-60308233D01*
X82417523Y-60303251D01*
X82286198Y-60115700D01*
X82124300Y-59953802D01*
X82119792Y-59950645D01*
X82119789Y-59950643D01*
X82041611Y-59895902D01*
X81936749Y-59822477D01*
X81931767Y-59820154D01*
X81931762Y-59820151D01*
X81897543Y-59804195D01*
X81844258Y-59757278D01*
X81824797Y-59689001D01*
X81845339Y-59621041D01*
X81897543Y-59575805D01*
X81931762Y-59559849D01*
X81931767Y-59559846D01*
X81936749Y-59557523D01*
X82041611Y-59484098D01*
X82119789Y-59429357D01*
X82119792Y-59429355D01*
X82124300Y-59426198D01*
X82286198Y-59264300D01*
X82417523Y-59076749D01*
X82419846Y-59071767D01*
X82419849Y-59071762D01*
X82511961Y-58874225D01*
X82511961Y-58874224D01*
X82514284Y-58869243D01*
X82573543Y-58648087D01*
X82593498Y-58420000D01*
X82573543Y-58191913D01*
X82514284Y-57970757D01*
X82511961Y-57965775D01*
X82419849Y-57768238D01*
X82419846Y-57768233D01*
X82417523Y-57763251D01*
X82286198Y-57575700D01*
X82125405Y-57414907D01*
X82091379Y-57352595D01*
X82088500Y-57325812D01*
X82088500Y-50894500D01*
X82108502Y-50826379D01*
X82162158Y-50779886D01*
X82214500Y-50768500D01*
X83328134Y-50768500D01*
X83390316Y-50761745D01*
X83526705Y-50710615D01*
X83643261Y-50623261D01*
X83730615Y-50506705D01*
X83781745Y-50370316D01*
X83788500Y-50308134D01*
X83788500Y-46211866D01*
X83781745Y-46149684D01*
X83730615Y-46013295D01*
X83661867Y-45921565D01*
X83637019Y-45855059D01*
X83652072Y-45785676D01*
X83702246Y-45735446D01*
X83762693Y-45720000D01*
X86417307Y-45720000D01*
X86485428Y-45740002D01*
X86531921Y-45793658D01*
X86542025Y-45863932D01*
X86518133Y-45921565D01*
X86449385Y-46013295D01*
X86398255Y-46149684D01*
X86391500Y-46211866D01*
X86391500Y-50308134D01*
X86398255Y-50370316D01*
X86449385Y-50506705D01*
X86536739Y-50623261D01*
X86653295Y-50710615D01*
X86789684Y-50761745D01*
X86851866Y-50768500D01*
X90948134Y-50768500D01*
X91010316Y-50761745D01*
X91146705Y-50710615D01*
X91263261Y-50623261D01*
X91350615Y-50506705D01*
X91401745Y-50370316D01*
X91408500Y-50308134D01*
X91408500Y-49194500D01*
X91428502Y-49126379D01*
X91482158Y-49079886D01*
X91534500Y-49068500D01*
X103752918Y-49068500D01*
X103821039Y-49088502D01*
X103842013Y-49105405D01*
X126154595Y-71417987D01*
X126188621Y-71480299D01*
X126191500Y-71507082D01*
X126191500Y-85972918D01*
X126171498Y-86041039D01*
X126154595Y-86062013D01*
X121622013Y-90594595D01*
X121559701Y-90628621D01*
X121532918Y-90631500D01*
X109607081Y-90631500D01*
X109538960Y-90611498D01*
X109517986Y-90594595D01*
X103766987Y-84843595D01*
X103732961Y-84781283D01*
X103738026Y-84710468D01*
X103780573Y-84653632D01*
X103847093Y-84628821D01*
X103856082Y-84628500D01*
X114075676Y-84628500D01*
X114143797Y-84648502D01*
X114183107Y-84688664D01*
X114195824Y-84709416D01*
X114350031Y-84889969D01*
X114530584Y-85044176D01*
X114534792Y-85046755D01*
X114534798Y-85046759D01*
X114728817Y-85165654D01*
X114733037Y-85168240D01*
X114737607Y-85170133D01*
X114737611Y-85170135D01*
X114947833Y-85257211D01*
X114952406Y-85259105D01*
X115032609Y-85278360D01*
X115178476Y-85313380D01*
X115178482Y-85313381D01*
X115183289Y-85314535D01*
X115420000Y-85333165D01*
X115656711Y-85314535D01*
X115661518Y-85313381D01*
X115661524Y-85313380D01*
X115807391Y-85278360D01*
X115887594Y-85259105D01*
X115892167Y-85257211D01*
X116102389Y-85170135D01*
X116102393Y-85170133D01*
X116106963Y-85168240D01*
X116111183Y-85165654D01*
X116305202Y-85046759D01*
X116305208Y-85046755D01*
X116309416Y-85044176D01*
X116489969Y-84889969D01*
X116644176Y-84709416D01*
X116656893Y-84688664D01*
X116709538Y-84641034D01*
X116764324Y-84628500D01*
X120575676Y-84628500D01*
X120643797Y-84648502D01*
X120683107Y-84688664D01*
X120695824Y-84709416D01*
X120850031Y-84889969D01*
X121030584Y-85044176D01*
X121034792Y-85046755D01*
X121034798Y-85046759D01*
X121228817Y-85165654D01*
X121233037Y-85168240D01*
X121237607Y-85170133D01*
X121237611Y-85170135D01*
X121447833Y-85257211D01*
X121452406Y-85259105D01*
X121532609Y-85278360D01*
X121678476Y-85313380D01*
X121678482Y-85313381D01*
X121683289Y-85314535D01*
X121920000Y-85333165D01*
X122156711Y-85314535D01*
X122161518Y-85313381D01*
X122161524Y-85313380D01*
X122307391Y-85278360D01*
X122387594Y-85259105D01*
X122392167Y-85257211D01*
X122602389Y-85170135D01*
X122602393Y-85170133D01*
X122606963Y-85168240D01*
X122611183Y-85165654D01*
X122805202Y-85046759D01*
X122805208Y-85046755D01*
X122809416Y-85044176D01*
X122989969Y-84889969D01*
X123144176Y-84709416D01*
X123146755Y-84705208D01*
X123146759Y-84705202D01*
X123265654Y-84511183D01*
X123268240Y-84506963D01*
X123359105Y-84287594D01*
X123414535Y-84056711D01*
X123433165Y-83820000D01*
X123414535Y-83583289D01*
X123359105Y-83352406D01*
X123300980Y-83212078D01*
X123270135Y-83137611D01*
X123270133Y-83137607D01*
X123268240Y-83133037D01*
X123229548Y-83069898D01*
X123146759Y-82934798D01*
X123146755Y-82934792D01*
X123144176Y-82930584D01*
X122989969Y-82750031D01*
X122809416Y-82595824D01*
X122805208Y-82593245D01*
X122805202Y-82593241D01*
X122611183Y-82474346D01*
X122606963Y-82471760D01*
X122602393Y-82469867D01*
X122602389Y-82469865D01*
X122392167Y-82382789D01*
X122392165Y-82382788D01*
X122387594Y-82380895D01*
X122307391Y-82361640D01*
X122161524Y-82326620D01*
X122161518Y-82326619D01*
X122156711Y-82325465D01*
X121920000Y-82306835D01*
X121683289Y-82325465D01*
X121678482Y-82326619D01*
X121678476Y-82326620D01*
X121532609Y-82361640D01*
X121452406Y-82380895D01*
X121447835Y-82382788D01*
X121447833Y-82382789D01*
X121237611Y-82469865D01*
X121237607Y-82469867D01*
X121233037Y-82471760D01*
X121228817Y-82474346D01*
X121034798Y-82593241D01*
X121034792Y-82593245D01*
X121030584Y-82595824D01*
X120850031Y-82750031D01*
X120695824Y-82930584D01*
X120683107Y-82951336D01*
X120630462Y-82998966D01*
X120575676Y-83011500D01*
X116764324Y-83011500D01*
X116696203Y-82991498D01*
X116656893Y-82951336D01*
X116644176Y-82930584D01*
X116489969Y-82750031D01*
X116309416Y-82595824D01*
X116305208Y-82593245D01*
X116305202Y-82593241D01*
X116111183Y-82474346D01*
X116106963Y-82471760D01*
X116102393Y-82469867D01*
X116102389Y-82469865D01*
X115892167Y-82382789D01*
X115892165Y-82382788D01*
X115887594Y-82380895D01*
X115807391Y-82361640D01*
X115661524Y-82326620D01*
X115661518Y-82326619D01*
X115656711Y-82325465D01*
X115420000Y-82306835D01*
X115183289Y-82325465D01*
X115178482Y-82326619D01*
X115178476Y-82326620D01*
X115032609Y-82361640D01*
X114952406Y-82380895D01*
X114947835Y-82382788D01*
X114947833Y-82382789D01*
X114737611Y-82469865D01*
X114737607Y-82469867D01*
X114733037Y-82471760D01*
X114728817Y-82474346D01*
X114534798Y-82593241D01*
X114534792Y-82593245D01*
X114530584Y-82595824D01*
X114350031Y-82750031D01*
X114195824Y-82930584D01*
X114183107Y-82951336D01*
X114130462Y-82998966D01*
X114075676Y-83011500D01*
X101614581Y-83011500D01*
X101614141Y-83011499D01*
X101515657Y-83011155D01*
X101515652Y-83011155D01*
X101512130Y-83011143D01*
X101510930Y-83011411D01*
X101509293Y-83011500D01*
X96529214Y-83011500D01*
X96527894Y-83011493D01*
X96526819Y-83011482D01*
X96437779Y-83010549D01*
X96395403Y-83019711D01*
X96382837Y-83021769D01*
X96339745Y-83026603D01*
X96333094Y-83028919D01*
X96333090Y-83028920D01*
X96308070Y-83037633D01*
X96293257Y-83041796D01*
X96260490Y-83048881D01*
X96221187Y-83067208D01*
X96209411Y-83071990D01*
X96168448Y-83086255D01*
X96162473Y-83089989D01*
X96162470Y-83089990D01*
X96140005Y-83104027D01*
X96126488Y-83111366D01*
X96102486Y-83122559D01*
X96096098Y-83125538D01*
X96090533Y-83129855D01*
X96090531Y-83129856D01*
X96061847Y-83152106D01*
X96051388Y-83159402D01*
X96020596Y-83178642D01*
X96020593Y-83178644D01*
X96014624Y-83182374D01*
X96009629Y-83187334D01*
X96009628Y-83187335D01*
X95985821Y-83210976D01*
X95985196Y-83211561D01*
X95984530Y-83212078D01*
X95958540Y-83238068D01*
X95885918Y-83310185D01*
X95885260Y-83311222D01*
X95884157Y-83312451D01*
X91637968Y-87558640D01*
X91575656Y-87592666D01*
X91537892Y-87595066D01*
X91445476Y-87586981D01*
X91445475Y-87586981D01*
X91440000Y-87586502D01*
X91211913Y-87606457D01*
X91206600Y-87607881D01*
X91206598Y-87607881D01*
X90996067Y-87664293D01*
X90996065Y-87664294D01*
X90990757Y-87665716D01*
X90985776Y-87668039D01*
X90985775Y-87668039D01*
X90788238Y-87760151D01*
X90788233Y-87760154D01*
X90783251Y-87762477D01*
X90678389Y-87835902D01*
X90600211Y-87890643D01*
X90600208Y-87890645D01*
X90595700Y-87893802D01*
X90433802Y-88055700D01*
X90302477Y-88243251D01*
X90300154Y-88248233D01*
X90300151Y-88248238D01*
X90284195Y-88282457D01*
X90237278Y-88335742D01*
X90169001Y-88355203D01*
X90101041Y-88334661D01*
X90055805Y-88282457D01*
X90039849Y-88248238D01*
X90039846Y-88248233D01*
X90037523Y-88243251D01*
X89906198Y-88055700D01*
X89744300Y-87893802D01*
X89739792Y-87890645D01*
X89739789Y-87890643D01*
X89661611Y-87835902D01*
X89556749Y-87762477D01*
X89551767Y-87760154D01*
X89551762Y-87760151D01*
X89354225Y-87668039D01*
X89354224Y-87668039D01*
X89349243Y-87665716D01*
X89343935Y-87664294D01*
X89343933Y-87664293D01*
X89133402Y-87607881D01*
X89133400Y-87607881D01*
X89128087Y-87606457D01*
X88900000Y-87586502D01*
X88671913Y-87606457D01*
X88666600Y-87607881D01*
X88666598Y-87607881D01*
X88456067Y-87664293D01*
X88456065Y-87664294D01*
X88450757Y-87665716D01*
X88445776Y-87668039D01*
X88445775Y-87668039D01*
X88248238Y-87760151D01*
X88248233Y-87760154D01*
X88243251Y-87762477D01*
X88138389Y-87835902D01*
X88060211Y-87890643D01*
X88060208Y-87890645D01*
X88055700Y-87893802D01*
X87893802Y-88055700D01*
X87762477Y-88243251D01*
X87760154Y-88248233D01*
X87760151Y-88248238D01*
X87744195Y-88282457D01*
X87697278Y-88335742D01*
X87629001Y-88355203D01*
X87561041Y-88334661D01*
X87515805Y-88282457D01*
X87499849Y-88248238D01*
X87499846Y-88248233D01*
X87497523Y-88243251D01*
X87366198Y-88055700D01*
X87204300Y-87893802D01*
X87199792Y-87890645D01*
X87199789Y-87890643D01*
X87121611Y-87835902D01*
X87016749Y-87762477D01*
X87011767Y-87760154D01*
X87011762Y-87760151D01*
X86814225Y-87668039D01*
X86814224Y-87668039D01*
X86809243Y-87665716D01*
X86803935Y-87664294D01*
X86803933Y-87664293D01*
X86593402Y-87607881D01*
X86593400Y-87607881D01*
X86588087Y-87606457D01*
X86360000Y-87586502D01*
X86131913Y-87606457D01*
X86126600Y-87607881D01*
X86126598Y-87607881D01*
X85916067Y-87664293D01*
X85916065Y-87664294D01*
X85910757Y-87665716D01*
X85905776Y-87668039D01*
X85905775Y-87668039D01*
X85708238Y-87760151D01*
X85708233Y-87760154D01*
X85703251Y-87762477D01*
X85598389Y-87835902D01*
X85520211Y-87890643D01*
X85520208Y-87890645D01*
X85515700Y-87893802D01*
X85353802Y-88055700D01*
X85222477Y-88243251D01*
X85220154Y-88248233D01*
X85220151Y-88248238D01*
X85204195Y-88282457D01*
X85157278Y-88335742D01*
X85089001Y-88355203D01*
X85021041Y-88334661D01*
X84975805Y-88282457D01*
X84959849Y-88248238D01*
X84959846Y-88248233D01*
X84957523Y-88243251D01*
X84826198Y-88055700D01*
X84664300Y-87893802D01*
X84659792Y-87890645D01*
X84659789Y-87890643D01*
X84581611Y-87835902D01*
X84476749Y-87762477D01*
X84471767Y-87760154D01*
X84471762Y-87760151D01*
X84274225Y-87668039D01*
X84274224Y-87668039D01*
X84269243Y-87665716D01*
X84263935Y-87664294D01*
X84263933Y-87664293D01*
X84053402Y-87607881D01*
X84053400Y-87607881D01*
X84048087Y-87606457D01*
X83820000Y-87586502D01*
X83591913Y-87606457D01*
X83586600Y-87607881D01*
X83586598Y-87607881D01*
X83376067Y-87664293D01*
X83376065Y-87664294D01*
X83370757Y-87665716D01*
X83365776Y-87668039D01*
X83365775Y-87668039D01*
X83168238Y-87760151D01*
X83168233Y-87760154D01*
X83163251Y-87762477D01*
X83058389Y-87835902D01*
X82980211Y-87890643D01*
X82980208Y-87890645D01*
X82975700Y-87893802D01*
X82813802Y-88055700D01*
X82682477Y-88243251D01*
X82680154Y-88248233D01*
X82680151Y-88248238D01*
X82664195Y-88282457D01*
X82617278Y-88335742D01*
X82549001Y-88355203D01*
X82481041Y-88334661D01*
X82435805Y-88282457D01*
X82419849Y-88248238D01*
X82419846Y-88248233D01*
X82417523Y-88243251D01*
X82286198Y-88055700D01*
X82124300Y-87893802D01*
X82119792Y-87890645D01*
X82119789Y-87890643D01*
X82041611Y-87835902D01*
X81936749Y-87762477D01*
X81931767Y-87760154D01*
X81931762Y-87760151D01*
X81734225Y-87668039D01*
X81734224Y-87668039D01*
X81729243Y-87665716D01*
X81723935Y-87664294D01*
X81723933Y-87664293D01*
X81513402Y-87607881D01*
X81513400Y-87607881D01*
X81508087Y-87606457D01*
X81280000Y-87586502D01*
X81051913Y-87606457D01*
X81046600Y-87607881D01*
X81046598Y-87607881D01*
X80836067Y-87664293D01*
X80836065Y-87664294D01*
X80830757Y-87665716D01*
X80825776Y-87668039D01*
X80825775Y-87668039D01*
X80628238Y-87760151D01*
X80628233Y-87760154D01*
X80623251Y-87762477D01*
X80518389Y-87835902D01*
X80440211Y-87890643D01*
X80440208Y-87890645D01*
X80435700Y-87893802D01*
X80273802Y-88055700D01*
X80142477Y-88243251D01*
X80140154Y-88248233D01*
X80140151Y-88248238D01*
X80124195Y-88282457D01*
X80077278Y-88335742D01*
X80009001Y-88355203D01*
X79941041Y-88334661D01*
X79895805Y-88282457D01*
X79879849Y-88248238D01*
X79879846Y-88248233D01*
X79877523Y-88243251D01*
X79746198Y-88055700D01*
X79584300Y-87893802D01*
X79579792Y-87890645D01*
X79579789Y-87890643D01*
X79501611Y-87835902D01*
X79396749Y-87762477D01*
X79391767Y-87760154D01*
X79391762Y-87760151D01*
X79194225Y-87668039D01*
X79194224Y-87668039D01*
X79189243Y-87665716D01*
X79183935Y-87664294D01*
X79183933Y-87664293D01*
X78973402Y-87607881D01*
X78973400Y-87607881D01*
X78968087Y-87606457D01*
X78740000Y-87586502D01*
X78511913Y-87606457D01*
X78506600Y-87607881D01*
X78506598Y-87607881D01*
X78296067Y-87664293D01*
X78296065Y-87664294D01*
X78290757Y-87665716D01*
X78285776Y-87668039D01*
X78285775Y-87668039D01*
X78088238Y-87760151D01*
X78088233Y-87760154D01*
X78083251Y-87762477D01*
X77978389Y-87835902D01*
X77900211Y-87890643D01*
X77900208Y-87890645D01*
X77895700Y-87893802D01*
X77733802Y-88055700D01*
X77602477Y-88243251D01*
X77600154Y-88248233D01*
X77600151Y-88248238D01*
X77584195Y-88282457D01*
X77537278Y-88335742D01*
X77469001Y-88355203D01*
X77401041Y-88334661D01*
X77355805Y-88282457D01*
X77339849Y-88248238D01*
X77339846Y-88248233D01*
X77337523Y-88243251D01*
X77206198Y-88055700D01*
X77044300Y-87893802D01*
X77039792Y-87890645D01*
X77039789Y-87890643D01*
X76961611Y-87835902D01*
X76856749Y-87762477D01*
X76851767Y-87760154D01*
X76851762Y-87760151D01*
X76654225Y-87668039D01*
X76654224Y-87668039D01*
X76649243Y-87665716D01*
X76643935Y-87664294D01*
X76643933Y-87664293D01*
X76433402Y-87607881D01*
X76433400Y-87607881D01*
X76428087Y-87606457D01*
X76200000Y-87586502D01*
X75971913Y-87606457D01*
X75966600Y-87607881D01*
X75966598Y-87607881D01*
X75756067Y-87664293D01*
X75756065Y-87664294D01*
X75750757Y-87665716D01*
X75745776Y-87668039D01*
X75745775Y-87668039D01*
X75548238Y-87760151D01*
X75548233Y-87760154D01*
X75543251Y-87762477D01*
X75438389Y-87835902D01*
X75360211Y-87890643D01*
X75360208Y-87890645D01*
X75355700Y-87893802D01*
X75193802Y-88055700D01*
X75062477Y-88243251D01*
X75060154Y-88248233D01*
X75060151Y-88248238D01*
X75044195Y-88282457D01*
X74997278Y-88335742D01*
X74929001Y-88355203D01*
X74861041Y-88334661D01*
X74815805Y-88282457D01*
X74799849Y-88248238D01*
X74799846Y-88248233D01*
X74797523Y-88243251D01*
X74666198Y-88055700D01*
X74504300Y-87893802D01*
X74499792Y-87890645D01*
X74499789Y-87890643D01*
X74421611Y-87835902D01*
X74316749Y-87762477D01*
X74311767Y-87760154D01*
X74311762Y-87760151D01*
X74114225Y-87668039D01*
X74114224Y-87668039D01*
X74109243Y-87665716D01*
X74103935Y-87664294D01*
X74103933Y-87664293D01*
X73893402Y-87607881D01*
X73893400Y-87607881D01*
X73888087Y-87606457D01*
X73660000Y-87586502D01*
X73431913Y-87606457D01*
X73426600Y-87607881D01*
X73426598Y-87607881D01*
X73216067Y-87664293D01*
X73216065Y-87664294D01*
X73210757Y-87665716D01*
X73205776Y-87668039D01*
X73205775Y-87668039D01*
X73008238Y-87760151D01*
X73008233Y-87760154D01*
X73003251Y-87762477D01*
X72898389Y-87835902D01*
X72820211Y-87890643D01*
X72820208Y-87890645D01*
X72815700Y-87893802D01*
X72653802Y-88055700D01*
X72522477Y-88243251D01*
X72520154Y-88248233D01*
X72520151Y-88248238D01*
X72504195Y-88282457D01*
X72457278Y-88335742D01*
X72389001Y-88355203D01*
X72321041Y-88334661D01*
X72275805Y-88282457D01*
X72259849Y-88248238D01*
X72259846Y-88248233D01*
X72257523Y-88243251D01*
X72126198Y-88055700D01*
X71964300Y-87893802D01*
X71959792Y-87890645D01*
X71959789Y-87890643D01*
X71881611Y-87835902D01*
X71776749Y-87762477D01*
X71771767Y-87760154D01*
X71771762Y-87760151D01*
X71574225Y-87668039D01*
X71574224Y-87668039D01*
X71569243Y-87665716D01*
X71563935Y-87664294D01*
X71563933Y-87664293D01*
X71353402Y-87607881D01*
X71353400Y-87607881D01*
X71348087Y-87606457D01*
X71120000Y-87586502D01*
X70891913Y-87606457D01*
X70886600Y-87607881D01*
X70886598Y-87607881D01*
X70676067Y-87664293D01*
X70676065Y-87664294D01*
X70670757Y-87665716D01*
X70665776Y-87668039D01*
X70665775Y-87668039D01*
X70468238Y-87760151D01*
X70468233Y-87760154D01*
X70463251Y-87762477D01*
X70358389Y-87835902D01*
X70280211Y-87890643D01*
X70280208Y-87890645D01*
X70275700Y-87893802D01*
X70113802Y-88055700D01*
X69982477Y-88243251D01*
X69980154Y-88248233D01*
X69980151Y-88248238D01*
X69964195Y-88282457D01*
X69917278Y-88335742D01*
X69849001Y-88355203D01*
X69781041Y-88334661D01*
X69735805Y-88282457D01*
X69719849Y-88248238D01*
X69719846Y-88248233D01*
X69717523Y-88243251D01*
X69586198Y-88055700D01*
X69424300Y-87893802D01*
X69419792Y-87890645D01*
X69419789Y-87890643D01*
X69341611Y-87835902D01*
X69236749Y-87762477D01*
X69231767Y-87760154D01*
X69231762Y-87760151D01*
X69034225Y-87668039D01*
X69034224Y-87668039D01*
X69029243Y-87665716D01*
X69023935Y-87664294D01*
X69023933Y-87664293D01*
X68813402Y-87607881D01*
X68813400Y-87607881D01*
X68808087Y-87606457D01*
X68580000Y-87586502D01*
X68351913Y-87606457D01*
X68346600Y-87607881D01*
X68346598Y-87607881D01*
X68136067Y-87664293D01*
X68136065Y-87664294D01*
X68130757Y-87665716D01*
X68125776Y-87668039D01*
X68125775Y-87668039D01*
X67928238Y-87760151D01*
X67928233Y-87760154D01*
X67923251Y-87762477D01*
X67818389Y-87835902D01*
X67740211Y-87890643D01*
X67740208Y-87890645D01*
X67735700Y-87893802D01*
X67573802Y-88055700D01*
X67442477Y-88243251D01*
X67440154Y-88248233D01*
X67440151Y-88248238D01*
X67424195Y-88282457D01*
X67377278Y-88335742D01*
X67309001Y-88355203D01*
X67241041Y-88334661D01*
X67195805Y-88282457D01*
X67179849Y-88248238D01*
X67179846Y-88248233D01*
X67177523Y-88243251D01*
X67046198Y-88055700D01*
X66884300Y-87893802D01*
X66879792Y-87890645D01*
X66879789Y-87890643D01*
X66801611Y-87835902D01*
X66696749Y-87762477D01*
X66691767Y-87760154D01*
X66691762Y-87760151D01*
X66494225Y-87668039D01*
X66494224Y-87668039D01*
X66489243Y-87665716D01*
X66483935Y-87664294D01*
X66483933Y-87664293D01*
X66273402Y-87607881D01*
X66273400Y-87607881D01*
X66268087Y-87606457D01*
X66040000Y-87586502D01*
X65811913Y-87606457D01*
X65806600Y-87607881D01*
X65806598Y-87607881D01*
X65596067Y-87664293D01*
X65596065Y-87664294D01*
X65590757Y-87665716D01*
X65585776Y-87668039D01*
X65585775Y-87668039D01*
X65388238Y-87760151D01*
X65388233Y-87760154D01*
X65383251Y-87762477D01*
X65278389Y-87835902D01*
X65200211Y-87890643D01*
X65200208Y-87890645D01*
X65195700Y-87893802D01*
X65033802Y-88055700D01*
X64902477Y-88243251D01*
X64900154Y-88248233D01*
X64900151Y-88248238D01*
X64884195Y-88282457D01*
X64837278Y-88335742D01*
X64769001Y-88355203D01*
X64701041Y-88334661D01*
X64655805Y-88282457D01*
X64639849Y-88248238D01*
X64639846Y-88248233D01*
X64637523Y-88243251D01*
X64506198Y-88055700D01*
X64344300Y-87893802D01*
X64339792Y-87890645D01*
X64339789Y-87890643D01*
X64261611Y-87835902D01*
X64156749Y-87762477D01*
X64151767Y-87760154D01*
X64151762Y-87760151D01*
X63954225Y-87668039D01*
X63954224Y-87668039D01*
X63949243Y-87665716D01*
X63943935Y-87664294D01*
X63943933Y-87664293D01*
X63733402Y-87607881D01*
X63733400Y-87607881D01*
X63728087Y-87606457D01*
X63500000Y-87586502D01*
X63271913Y-87606457D01*
X63266600Y-87607881D01*
X63266598Y-87607881D01*
X63056067Y-87664293D01*
X63056065Y-87664294D01*
X63050757Y-87665716D01*
X63045776Y-87668039D01*
X63045775Y-87668039D01*
X62848238Y-87760151D01*
X62848233Y-87760154D01*
X62843251Y-87762477D01*
X62738389Y-87835902D01*
X62660211Y-87890643D01*
X62660208Y-87890645D01*
X62655700Y-87893802D01*
X62493802Y-88055700D01*
X62362477Y-88243251D01*
X62360154Y-88248233D01*
X62360151Y-88248238D01*
X62360034Y-88248489D01*
X62265716Y-88450757D01*
X62206457Y-88671913D01*
X62186502Y-88900000D01*
X62206457Y-89128087D01*
X62265716Y-89349243D01*
X62268039Y-89354224D01*
X62268039Y-89354225D01*
X62360151Y-89551762D01*
X62360154Y-89551767D01*
X62362477Y-89556749D01*
X62493802Y-89744300D01*
X62655700Y-89906198D01*
X62660208Y-89909355D01*
X62660211Y-89909357D01*
X62738389Y-89964098D01*
X62843251Y-90037523D01*
X62848233Y-90039846D01*
X62848238Y-90039849D01*
X63044765Y-90131490D01*
X63050757Y-90134284D01*
X63056065Y-90135706D01*
X63056067Y-90135707D01*
X63266598Y-90192119D01*
X63266600Y-90192119D01*
X63271913Y-90193543D01*
X63500000Y-90213498D01*
X63728087Y-90193543D01*
X63733400Y-90192119D01*
X63733402Y-90192119D01*
X63943933Y-90135707D01*
X63943935Y-90135706D01*
X63949243Y-90134284D01*
X63955235Y-90131490D01*
X64151762Y-90039849D01*
X64151767Y-90039846D01*
X64156749Y-90037523D01*
X64261611Y-89964098D01*
X64339789Y-89909357D01*
X64339792Y-89909355D01*
X64344300Y-89906198D01*
X64506198Y-89744300D01*
X64637523Y-89556749D01*
X64639846Y-89551767D01*
X64639849Y-89551762D01*
X64655805Y-89517543D01*
X64702722Y-89464258D01*
X64770999Y-89444797D01*
X64838959Y-89465339D01*
X64884195Y-89517543D01*
X64900151Y-89551762D01*
X64900154Y-89551767D01*
X64902477Y-89556749D01*
X65033802Y-89744300D01*
X65195700Y-89906198D01*
X65200208Y-89909355D01*
X65200211Y-89909357D01*
X65278389Y-89964098D01*
X65383251Y-90037523D01*
X65388233Y-90039846D01*
X65388238Y-90039849D01*
X65584765Y-90131490D01*
X65590757Y-90134284D01*
X65596065Y-90135706D01*
X65596067Y-90135707D01*
X65806598Y-90192119D01*
X65806600Y-90192119D01*
X65811913Y-90193543D01*
X66040000Y-90213498D01*
X66268087Y-90193543D01*
X66273400Y-90192119D01*
X66273402Y-90192119D01*
X66483933Y-90135707D01*
X66483935Y-90135706D01*
X66489243Y-90134284D01*
X66495235Y-90131490D01*
X66691762Y-90039849D01*
X66691767Y-90039846D01*
X66696749Y-90037523D01*
X66801611Y-89964098D01*
X66879789Y-89909357D01*
X66879792Y-89909355D01*
X66884300Y-89906198D01*
X67046198Y-89744300D01*
X67177523Y-89556749D01*
X67179846Y-89551767D01*
X67179849Y-89551762D01*
X67195805Y-89517543D01*
X67242722Y-89464258D01*
X67310999Y-89444797D01*
X67378959Y-89465339D01*
X67424195Y-89517543D01*
X67440151Y-89551762D01*
X67440154Y-89551767D01*
X67442477Y-89556749D01*
X67573802Y-89744300D01*
X67735700Y-89906198D01*
X67740208Y-89909355D01*
X67740211Y-89909357D01*
X67818389Y-89964098D01*
X67923251Y-90037523D01*
X67928233Y-90039846D01*
X67928238Y-90039849D01*
X68124765Y-90131490D01*
X68130757Y-90134284D01*
X68136065Y-90135706D01*
X68136067Y-90135707D01*
X68346598Y-90192119D01*
X68346600Y-90192119D01*
X68351913Y-90193543D01*
X68580000Y-90213498D01*
X68808087Y-90193543D01*
X68813400Y-90192119D01*
X68813402Y-90192119D01*
X69023933Y-90135707D01*
X69023935Y-90135706D01*
X69029243Y-90134284D01*
X69035235Y-90131490D01*
X69231762Y-90039849D01*
X69231767Y-90039846D01*
X69236749Y-90037523D01*
X69341611Y-89964098D01*
X69419789Y-89909357D01*
X69419792Y-89909355D01*
X69424300Y-89906198D01*
X69586198Y-89744300D01*
X69717523Y-89556749D01*
X69719846Y-89551767D01*
X69719849Y-89551762D01*
X69735805Y-89517543D01*
X69782722Y-89464258D01*
X69850999Y-89444797D01*
X69918959Y-89465339D01*
X69964195Y-89517543D01*
X69980151Y-89551762D01*
X69980154Y-89551767D01*
X69982477Y-89556749D01*
X70113802Y-89744300D01*
X70275700Y-89906198D01*
X70280208Y-89909355D01*
X70280211Y-89909357D01*
X70358389Y-89964098D01*
X70463251Y-90037523D01*
X70468233Y-90039846D01*
X70468238Y-90039849D01*
X70664765Y-90131490D01*
X70670757Y-90134284D01*
X70676065Y-90135706D01*
X70676067Y-90135707D01*
X70886598Y-90192119D01*
X70886600Y-90192119D01*
X70891913Y-90193543D01*
X71120000Y-90213498D01*
X71348087Y-90193543D01*
X71353400Y-90192119D01*
X71353402Y-90192119D01*
X71563933Y-90135707D01*
X71563935Y-90135706D01*
X71569243Y-90134284D01*
X71575235Y-90131490D01*
X71771762Y-90039849D01*
X71771767Y-90039846D01*
X71776749Y-90037523D01*
X71881611Y-89964098D01*
X71959789Y-89909357D01*
X71959792Y-89909355D01*
X71964300Y-89906198D01*
X72126198Y-89744300D01*
X72257523Y-89556749D01*
X72259846Y-89551767D01*
X72259849Y-89551762D01*
X72275805Y-89517543D01*
X72322722Y-89464258D01*
X72390999Y-89444797D01*
X72458959Y-89465339D01*
X72504195Y-89517543D01*
X72520151Y-89551762D01*
X72520154Y-89551767D01*
X72522477Y-89556749D01*
X72653802Y-89744300D01*
X72815700Y-89906198D01*
X72820208Y-89909355D01*
X72820211Y-89909357D01*
X72898389Y-89964098D01*
X73003251Y-90037523D01*
X73008233Y-90039846D01*
X73008238Y-90039849D01*
X73204765Y-90131490D01*
X73210757Y-90134284D01*
X73216065Y-90135706D01*
X73216067Y-90135707D01*
X73426598Y-90192119D01*
X73426600Y-90192119D01*
X73431913Y-90193543D01*
X73660000Y-90213498D01*
X73888087Y-90193543D01*
X73893400Y-90192119D01*
X73893402Y-90192119D01*
X74103933Y-90135707D01*
X74103935Y-90135706D01*
X74109243Y-90134284D01*
X74115235Y-90131490D01*
X74311762Y-90039849D01*
X74311767Y-90039846D01*
X74316749Y-90037523D01*
X74421611Y-89964098D01*
X74499789Y-89909357D01*
X74499792Y-89909355D01*
X74504300Y-89906198D01*
X74666198Y-89744300D01*
X74797523Y-89556749D01*
X74799846Y-89551767D01*
X74799849Y-89551762D01*
X74815805Y-89517543D01*
X74862722Y-89464258D01*
X74930999Y-89444797D01*
X74998959Y-89465339D01*
X75044195Y-89517543D01*
X75060151Y-89551762D01*
X75060154Y-89551767D01*
X75062477Y-89556749D01*
X75193802Y-89744300D01*
X75355700Y-89906198D01*
X75360208Y-89909355D01*
X75360211Y-89909357D01*
X75438389Y-89964098D01*
X75543251Y-90037523D01*
X75548233Y-90039846D01*
X75548238Y-90039849D01*
X75744765Y-90131490D01*
X75750757Y-90134284D01*
X75756065Y-90135706D01*
X75756067Y-90135707D01*
X75966598Y-90192119D01*
X75966600Y-90192119D01*
X75971913Y-90193543D01*
X76200000Y-90213498D01*
X76428087Y-90193543D01*
X76433400Y-90192119D01*
X76433402Y-90192119D01*
X76643933Y-90135707D01*
X76643935Y-90135706D01*
X76649243Y-90134284D01*
X76655235Y-90131490D01*
X76851762Y-90039849D01*
X76851767Y-90039846D01*
X76856749Y-90037523D01*
X76961611Y-89964098D01*
X77039789Y-89909357D01*
X77039792Y-89909355D01*
X77044300Y-89906198D01*
X77206198Y-89744300D01*
X77337523Y-89556749D01*
X77339846Y-89551767D01*
X77339849Y-89551762D01*
X77355805Y-89517543D01*
X77402722Y-89464258D01*
X77470999Y-89444797D01*
X77538959Y-89465339D01*
X77584195Y-89517543D01*
X77600151Y-89551762D01*
X77600154Y-89551767D01*
X77602477Y-89556749D01*
X77733802Y-89744300D01*
X77895700Y-89906198D01*
X77900208Y-89909355D01*
X77900211Y-89909357D01*
X77978389Y-89964098D01*
X78083251Y-90037523D01*
X78088233Y-90039846D01*
X78088238Y-90039849D01*
X78284765Y-90131490D01*
X78290757Y-90134284D01*
X78296065Y-90135706D01*
X78296067Y-90135707D01*
X78506598Y-90192119D01*
X78506600Y-90192119D01*
X78511913Y-90193543D01*
X78740000Y-90213498D01*
X78968087Y-90193543D01*
X78973400Y-90192119D01*
X78973402Y-90192119D01*
X79183933Y-90135707D01*
X79183935Y-90135706D01*
X79189243Y-90134284D01*
X79195235Y-90131490D01*
X79391762Y-90039849D01*
X79391767Y-90039846D01*
X79396749Y-90037523D01*
X79501611Y-89964098D01*
X79579789Y-89909357D01*
X79579792Y-89909355D01*
X79584300Y-89906198D01*
X79746198Y-89744300D01*
X79877523Y-89556749D01*
X79879846Y-89551767D01*
X79879849Y-89551762D01*
X79895805Y-89517543D01*
X79942722Y-89464258D01*
X80010999Y-89444797D01*
X80078959Y-89465339D01*
X80124195Y-89517543D01*
X80140151Y-89551762D01*
X80140154Y-89551767D01*
X80142477Y-89556749D01*
X80273802Y-89744300D01*
X80435700Y-89906198D01*
X80440208Y-89909355D01*
X80440211Y-89909357D01*
X80518389Y-89964098D01*
X80623251Y-90037523D01*
X80628233Y-90039846D01*
X80628238Y-90039849D01*
X80824765Y-90131490D01*
X80830757Y-90134284D01*
X80836065Y-90135706D01*
X80836067Y-90135707D01*
X81046598Y-90192119D01*
X81046600Y-90192119D01*
X81051913Y-90193543D01*
X81280000Y-90213498D01*
X81508087Y-90193543D01*
X81513400Y-90192119D01*
X81513402Y-90192119D01*
X81723933Y-90135707D01*
X81723935Y-90135706D01*
X81729243Y-90134284D01*
X81735235Y-90131490D01*
X81931762Y-90039849D01*
X81931767Y-90039846D01*
X81936749Y-90037523D01*
X82041611Y-89964098D01*
X82119789Y-89909357D01*
X82119792Y-89909355D01*
X82124300Y-89906198D01*
X82286198Y-89744300D01*
X82417523Y-89556749D01*
X82419846Y-89551767D01*
X82419849Y-89551762D01*
X82435805Y-89517543D01*
X82482722Y-89464258D01*
X82550999Y-89444797D01*
X82618959Y-89465339D01*
X82664195Y-89517543D01*
X82680151Y-89551762D01*
X82680154Y-89551767D01*
X82682477Y-89556749D01*
X82813802Y-89744300D01*
X82975700Y-89906198D01*
X82980208Y-89909355D01*
X82980211Y-89909357D01*
X83058389Y-89964098D01*
X83163251Y-90037523D01*
X83168233Y-90039846D01*
X83168238Y-90039849D01*
X83364765Y-90131490D01*
X83370757Y-90134284D01*
X83376065Y-90135706D01*
X83376067Y-90135707D01*
X83586598Y-90192119D01*
X83586600Y-90192119D01*
X83591913Y-90193543D01*
X83820000Y-90213498D01*
X84048087Y-90193543D01*
X84053400Y-90192119D01*
X84053402Y-90192119D01*
X84263933Y-90135707D01*
X84263935Y-90135706D01*
X84269243Y-90134284D01*
X84275235Y-90131490D01*
X84471762Y-90039849D01*
X84471767Y-90039846D01*
X84476749Y-90037523D01*
X84581611Y-89964098D01*
X84659789Y-89909357D01*
X84659792Y-89909355D01*
X84664300Y-89906198D01*
X84826198Y-89744300D01*
X84957523Y-89556749D01*
X84959846Y-89551767D01*
X84959849Y-89551762D01*
X84975805Y-89517543D01*
X85022722Y-89464258D01*
X85090999Y-89444797D01*
X85158959Y-89465339D01*
X85204195Y-89517543D01*
X85220151Y-89551762D01*
X85220154Y-89551767D01*
X85222477Y-89556749D01*
X85353802Y-89744300D01*
X85515700Y-89906198D01*
X85520208Y-89909355D01*
X85520211Y-89909357D01*
X85598389Y-89964098D01*
X85703251Y-90037523D01*
X85708233Y-90039846D01*
X85708238Y-90039849D01*
X85904765Y-90131490D01*
X85910757Y-90134284D01*
X85916065Y-90135706D01*
X85916067Y-90135707D01*
X86126598Y-90192119D01*
X86126600Y-90192119D01*
X86131913Y-90193543D01*
X86360000Y-90213498D01*
X86588087Y-90193543D01*
X86593400Y-90192119D01*
X86593402Y-90192119D01*
X86803933Y-90135707D01*
X86803935Y-90135706D01*
X86809243Y-90134284D01*
X86815235Y-90131490D01*
X87011762Y-90039849D01*
X87011767Y-90039846D01*
X87016749Y-90037523D01*
X87121611Y-89964098D01*
X87199789Y-89909357D01*
X87199792Y-89909355D01*
X87204300Y-89906198D01*
X87366198Y-89744300D01*
X87497523Y-89556749D01*
X87499846Y-89551767D01*
X87499849Y-89551762D01*
X87515805Y-89517543D01*
X87562722Y-89464258D01*
X87630999Y-89444797D01*
X87698959Y-89465339D01*
X87744195Y-89517543D01*
X87760151Y-89551762D01*
X87760154Y-89551767D01*
X87762477Y-89556749D01*
X87893802Y-89744300D01*
X88055700Y-89906198D01*
X88060208Y-89909355D01*
X88060211Y-89909357D01*
X88138389Y-89964098D01*
X88243251Y-90037523D01*
X88248233Y-90039846D01*
X88248238Y-90039849D01*
X88444765Y-90131490D01*
X88450757Y-90134284D01*
X88456065Y-90135706D01*
X88456067Y-90135707D01*
X88666598Y-90192119D01*
X88666600Y-90192119D01*
X88671913Y-90193543D01*
X88900000Y-90213498D01*
X89128087Y-90193543D01*
X89133400Y-90192119D01*
X89133402Y-90192119D01*
X89343933Y-90135707D01*
X89343935Y-90135706D01*
X89349243Y-90134284D01*
X89355235Y-90131490D01*
X89551762Y-90039849D01*
X89551767Y-90039846D01*
X89556749Y-90037523D01*
X89661611Y-89964098D01*
X89739789Y-89909357D01*
X89739792Y-89909355D01*
X89744300Y-89906198D01*
X89906198Y-89744300D01*
X90037523Y-89556749D01*
X90039846Y-89551767D01*
X90039849Y-89551762D01*
X90055805Y-89517543D01*
X90102722Y-89464258D01*
X90170999Y-89444797D01*
X90238959Y-89465339D01*
X90284195Y-89517543D01*
X90300151Y-89551762D01*
X90300154Y-89551767D01*
X90302477Y-89556749D01*
X90433802Y-89744300D01*
X90595700Y-89906198D01*
X90600208Y-89909355D01*
X90600211Y-89909357D01*
X90678389Y-89964098D01*
X90783251Y-90037523D01*
X90788233Y-90039846D01*
X90788238Y-90039849D01*
X90984765Y-90131490D01*
X90990757Y-90134284D01*
X90996065Y-90135706D01*
X90996067Y-90135707D01*
X91206598Y-90192119D01*
X91206600Y-90192119D01*
X91211913Y-90193543D01*
X91440000Y-90213498D01*
X91668087Y-90193543D01*
X91673400Y-90192119D01*
X91673402Y-90192119D01*
X91883933Y-90135707D01*
X91883935Y-90135706D01*
X91889243Y-90134284D01*
X91895235Y-90131490D01*
X92091762Y-90039849D01*
X92091767Y-90039846D01*
X92096749Y-90037523D01*
X92201611Y-89964098D01*
X92279789Y-89909357D01*
X92279792Y-89909355D01*
X92284300Y-89906198D01*
X92446198Y-89744300D01*
X92577523Y-89556749D01*
X92579846Y-89551767D01*
X92579849Y-89551762D01*
X92595805Y-89517543D01*
X92642722Y-89464258D01*
X92710999Y-89444797D01*
X92778959Y-89465339D01*
X92824195Y-89517543D01*
X92840151Y-89551762D01*
X92840154Y-89551767D01*
X92842477Y-89556749D01*
X92973802Y-89744300D01*
X93135700Y-89906198D01*
X93140208Y-89909355D01*
X93140211Y-89909357D01*
X93218389Y-89964098D01*
X93323251Y-90037523D01*
X93328233Y-90039846D01*
X93328238Y-90039849D01*
X93524765Y-90131490D01*
X93530757Y-90134284D01*
X93536065Y-90135706D01*
X93536067Y-90135707D01*
X93746598Y-90192119D01*
X93746600Y-90192119D01*
X93751913Y-90193543D01*
X93980000Y-90213498D01*
X94208087Y-90193543D01*
X94213400Y-90192119D01*
X94213402Y-90192119D01*
X94423933Y-90135707D01*
X94423935Y-90135706D01*
X94429243Y-90134284D01*
X94435235Y-90131490D01*
X94631762Y-90039849D01*
X94631767Y-90039846D01*
X94636749Y-90037523D01*
X94741611Y-89964098D01*
X94819789Y-89909357D01*
X94819792Y-89909355D01*
X94824300Y-89906198D01*
X94986198Y-89744300D01*
X95117523Y-89556749D01*
X95119846Y-89551767D01*
X95119849Y-89551762D01*
X95136081Y-89516951D01*
X95182998Y-89463666D01*
X95251275Y-89444205D01*
X95319235Y-89464747D01*
X95364471Y-89516951D01*
X95380586Y-89551511D01*
X95386069Y-89561007D01*
X95511028Y-89739467D01*
X95518084Y-89747875D01*
X95672125Y-89901916D01*
X95680533Y-89908972D01*
X95858993Y-90033931D01*
X95868489Y-90039414D01*
X96065947Y-90131490D01*
X96076239Y-90135236D01*
X96248503Y-90181394D01*
X96262599Y-90181058D01*
X96266000Y-90173116D01*
X96266000Y-87632033D01*
X96262027Y-87618502D01*
X96253478Y-87617273D01*
X96076239Y-87664764D01*
X96065947Y-87668510D01*
X95868489Y-87760586D01*
X95858993Y-87766069D01*
X95680533Y-87891028D01*
X95672125Y-87898084D01*
X95518084Y-88052125D01*
X95511028Y-88060533D01*
X95386069Y-88238993D01*
X95380586Y-88248489D01*
X95364471Y-88283049D01*
X95317554Y-88336334D01*
X95249277Y-88355795D01*
X95181317Y-88335253D01*
X95136081Y-88283049D01*
X95119849Y-88248238D01*
X95119846Y-88248233D01*
X95117523Y-88243251D01*
X94986198Y-88055700D01*
X94824300Y-87893802D01*
X94819792Y-87890645D01*
X94819789Y-87890643D01*
X94741611Y-87835902D01*
X94636749Y-87762477D01*
X94631767Y-87760154D01*
X94631762Y-87760151D01*
X94434225Y-87668039D01*
X94434224Y-87668039D01*
X94429243Y-87665716D01*
X94423935Y-87664294D01*
X94423933Y-87664293D01*
X94213402Y-87607881D01*
X94213400Y-87607881D01*
X94208087Y-87606457D01*
X94202611Y-87605978D01*
X94202606Y-87605977D01*
X94175994Y-87603649D01*
X94172756Y-87603366D01*
X94106638Y-87577503D01*
X94064998Y-87519999D01*
X94061057Y-87449112D01*
X94094642Y-87388750D01*
X96817987Y-84665405D01*
X96880299Y-84631379D01*
X96907082Y-84628500D01*
X101212918Y-84628500D01*
X101281039Y-84648502D01*
X101302013Y-84665405D01*
X108641766Y-92005158D01*
X108642694Y-92006095D01*
X108682021Y-92046254D01*
X108705771Y-92070507D01*
X108742221Y-92093998D01*
X108752546Y-92101417D01*
X108786443Y-92128476D01*
X108792782Y-92131540D01*
X108792786Y-92131543D01*
X108816638Y-92143074D01*
X108830051Y-92150601D01*
X108852313Y-92164947D01*
X108852316Y-92164948D01*
X108858238Y-92168765D01*
X108864857Y-92171174D01*
X108864861Y-92171176D01*
X108898973Y-92183592D01*
X108910717Y-92188553D01*
X108943399Y-92204352D01*
X108943401Y-92204353D01*
X108949748Y-92207421D01*
X108965765Y-92211119D01*
X108982427Y-92214966D01*
X108997168Y-92219332D01*
X109028685Y-92230803D01*
X109035671Y-92231685D01*
X109035677Y-92231687D01*
X109071701Y-92236238D01*
X109084253Y-92238474D01*
X109119614Y-92246638D01*
X109119617Y-92246638D01*
X109126485Y-92248224D01*
X109133531Y-92248249D01*
X109133534Y-92248249D01*
X109167056Y-92248366D01*
X109167938Y-92248395D01*
X109168769Y-92248500D01*
X109205419Y-92248500D01*
X109205859Y-92248501D01*
X109304343Y-92248845D01*
X109304348Y-92248845D01*
X109307870Y-92248857D01*
X109309070Y-92248589D01*
X109310707Y-92248500D01*
X121910786Y-92248500D01*
X121912106Y-92248507D01*
X122002221Y-92249451D01*
X122044597Y-92240289D01*
X122057163Y-92238231D01*
X122100255Y-92233397D01*
X122106906Y-92231081D01*
X122106910Y-92231080D01*
X122131930Y-92222367D01*
X122146742Y-92218204D01*
X122172619Y-92212609D01*
X122179510Y-92211119D01*
X122218813Y-92192792D01*
X122230589Y-92188010D01*
X122271552Y-92173745D01*
X122277527Y-92170011D01*
X122277530Y-92170010D01*
X122299995Y-92155973D01*
X122313512Y-92148634D01*
X122337514Y-92137441D01*
X122337515Y-92137440D01*
X122343902Y-92134462D01*
X122357279Y-92124086D01*
X122378153Y-92107894D01*
X122388612Y-92100598D01*
X122419404Y-92081358D01*
X122419407Y-92081356D01*
X122425376Y-92077626D01*
X122430372Y-92072665D01*
X122454179Y-92049024D01*
X122454804Y-92048439D01*
X122455470Y-92047922D01*
X122481460Y-92021932D01*
X122554082Y-91949815D01*
X122554740Y-91948778D01*
X122555843Y-91947549D01*
X127565158Y-86938234D01*
X127566095Y-86937306D01*
X127625475Y-86879157D01*
X127625476Y-86879156D01*
X127630507Y-86874229D01*
X127653998Y-86837779D01*
X127661417Y-86827454D01*
X127688476Y-86793557D01*
X127703073Y-86763362D01*
X127710602Y-86749945D01*
X127724948Y-86727684D01*
X127728765Y-86721762D01*
X127731173Y-86715145D01*
X127731176Y-86715140D01*
X127743592Y-86681027D01*
X127748553Y-86669284D01*
X127764353Y-86636600D01*
X127764356Y-86636591D01*
X127767421Y-86630251D01*
X127774966Y-86597572D01*
X127779334Y-86582825D01*
X127790803Y-86551315D01*
X127791685Y-86544330D01*
X127791687Y-86544323D01*
X127796237Y-86508308D01*
X127798472Y-86495757D01*
X127806640Y-86460378D01*
X127808225Y-86453515D01*
X127808367Y-86412928D01*
X127808396Y-86412058D01*
X127808500Y-86411231D01*
X127808500Y-86374590D01*
X127808721Y-86311109D01*
X127808845Y-86275657D01*
X127808845Y-86275652D01*
X127808857Y-86272130D01*
X127808589Y-86270930D01*
X127808500Y-86269292D01*
X127808500Y-71129214D01*
X127808507Y-71127894D01*
X127809377Y-71044826D01*
X127809451Y-71037779D01*
X127800289Y-70995403D01*
X127798230Y-70982832D01*
X127794182Y-70946744D01*
X127793397Y-70939745D01*
X127782367Y-70908070D01*
X127778204Y-70893258D01*
X127772609Y-70867381D01*
X127771119Y-70860490D01*
X127752792Y-70821187D01*
X127748010Y-70809411D01*
X127733745Y-70768448D01*
X127730010Y-70762470D01*
X127715973Y-70740005D01*
X127708634Y-70726488D01*
X127697441Y-70702486D01*
X127697440Y-70702485D01*
X127694462Y-70696098D01*
X127667894Y-70661847D01*
X127660598Y-70651388D01*
X127641358Y-70620596D01*
X127641356Y-70620593D01*
X127637626Y-70614624D01*
X127609024Y-70585821D01*
X127608439Y-70585196D01*
X127607922Y-70584530D01*
X127581932Y-70558540D01*
X127509815Y-70485918D01*
X127508778Y-70485260D01*
X127507549Y-70484157D01*
X108293524Y-51270132D01*
X121246757Y-51270132D01*
X121261781Y-51628588D01*
X121316668Y-51983136D01*
X121410734Y-52329356D01*
X121542806Y-52662933D01*
X121711239Y-52979709D01*
X121713224Y-52982607D01*
X121713230Y-52982618D01*
X121911942Y-53272829D01*
X121911947Y-53272835D01*
X121913933Y-53275736D01*
X121916236Y-53278404D01*
X122098008Y-53488989D01*
X122148361Y-53547324D01*
X122411602Y-53791087D01*
X122414428Y-53793170D01*
X122414431Y-53793173D01*
X122498298Y-53855005D01*
X122700375Y-54003989D01*
X123011080Y-54183375D01*
X123014301Y-54184782D01*
X123336622Y-54325601D01*
X123336632Y-54325605D01*
X123339844Y-54327008D01*
X123343201Y-54328047D01*
X123343206Y-54328049D01*
X123478744Y-54370005D01*
X123682570Y-54433100D01*
X124034987Y-54500327D01*
X124231571Y-54515453D01*
X124389203Y-54527582D01*
X124389204Y-54527582D01*
X124392700Y-54527851D01*
X124610001Y-54520263D01*
X124747738Y-54515453D01*
X124747743Y-54515453D01*
X124751253Y-54515330D01*
X124754734Y-54514816D01*
X125102683Y-54463436D01*
X125102689Y-54463435D01*
X125106175Y-54462920D01*
X125109579Y-54462021D01*
X125109582Y-54462020D01*
X125449652Y-54372169D01*
X125449653Y-54372169D01*
X125453043Y-54371273D01*
X125787534Y-54241533D01*
X126105478Y-54075316D01*
X126402913Y-53874693D01*
X126424557Y-53856273D01*
X126575506Y-53727805D01*
X126676131Y-53642167D01*
X126821929Y-53486908D01*
X126919316Y-53383202D01*
X126919320Y-53383197D01*
X126921727Y-53380634D01*
X126923832Y-53377820D01*
X126923838Y-53377813D01*
X127134530Y-53096174D01*
X127136639Y-53093355D01*
X127171040Y-53034721D01*
X127271897Y-52862813D01*
X127318189Y-52783910D01*
X127464115Y-52456156D01*
X127572596Y-52114179D01*
X127642282Y-51762241D01*
X127672303Y-51404728D01*
X127673556Y-51315000D01*
X127669962Y-51250705D01*
X127653725Y-50960301D01*
X127653529Y-50956788D01*
X127646589Y-50915757D01*
X127594286Y-50606522D01*
X127594285Y-50606518D01*
X127593697Y-50603041D01*
X127494806Y-50258169D01*
X127426119Y-50091522D01*
X127359427Y-49929713D01*
X127359423Y-49929705D01*
X127358089Y-49926468D01*
X127185250Y-49612075D01*
X127015289Y-49371140D01*
X126980479Y-49321793D01*
X126980478Y-49321791D01*
X126978443Y-49318907D01*
X126740245Y-49050619D01*
X126473626Y-48810554D01*
X126470776Y-48808513D01*
X126470769Y-48808508D01*
X126184763Y-48603748D01*
X126184760Y-48603746D01*
X126181909Y-48601705D01*
X125868730Y-48426675D01*
X125537992Y-48287646D01*
X125534623Y-48286655D01*
X125534619Y-48286653D01*
X125382754Y-48241957D01*
X125193818Y-48186350D01*
X124910904Y-48136464D01*
X124843958Y-48124660D01*
X124843956Y-48124660D01*
X124840498Y-48124050D01*
X124836987Y-48123829D01*
X124836986Y-48123829D01*
X124485953Y-48101743D01*
X124485947Y-48101743D01*
X124482435Y-48101522D01*
X124381046Y-48106481D01*
X124127599Y-48118876D01*
X124127591Y-48118877D01*
X124124092Y-48119048D01*
X124120624Y-48119610D01*
X124120621Y-48119610D01*
X123773411Y-48175846D01*
X123773408Y-48175847D01*
X123769936Y-48176409D01*
X123766549Y-48177355D01*
X123766543Y-48177356D01*
X123482406Y-48256689D01*
X123424381Y-48272890D01*
X123373350Y-48293508D01*
X123094998Y-48405969D01*
X123094994Y-48405971D01*
X123091734Y-48407288D01*
X123088647Y-48408957D01*
X123088643Y-48408959D01*
X123052699Y-48428394D01*
X122776142Y-48577928D01*
X122481537Y-48782683D01*
X122478895Y-48784996D01*
X122478891Y-48784999D01*
X122457293Y-48803907D01*
X122211593Y-49019002D01*
X121969672Y-49283938D01*
X121758792Y-49574190D01*
X121581580Y-49886140D01*
X121440245Y-50215899D01*
X121336549Y-50559358D01*
X121324821Y-50623261D01*
X121275915Y-50889728D01*
X121271784Y-50912235D01*
X121246757Y-51270132D01*
X108293524Y-51270132D01*
X104718234Y-47694842D01*
X104717306Y-47693905D01*
X104659157Y-47634525D01*
X104659156Y-47634524D01*
X104654229Y-47629493D01*
X104617779Y-47606002D01*
X104607454Y-47598583D01*
X104573557Y-47571524D01*
X104543362Y-47556927D01*
X104529945Y-47549398D01*
X104501762Y-47531235D01*
X104495145Y-47528827D01*
X104495140Y-47528824D01*
X104461027Y-47516408D01*
X104449284Y-47511447D01*
X104416597Y-47495646D01*
X104416592Y-47495644D01*
X104410251Y-47492579D01*
X104403393Y-47490996D01*
X104403391Y-47490995D01*
X104377574Y-47485035D01*
X104362831Y-47480668D01*
X104331315Y-47469197D01*
X104324325Y-47468314D01*
X104324317Y-47468312D01*
X104288299Y-47463762D01*
X104275747Y-47461526D01*
X104240386Y-47453362D01*
X104240383Y-47453362D01*
X104233515Y-47451776D01*
X104226469Y-47451751D01*
X104226466Y-47451751D01*
X104192944Y-47451634D01*
X104192062Y-47451605D01*
X104191231Y-47451500D01*
X104154581Y-47451500D01*
X104154141Y-47451499D01*
X104055657Y-47451155D01*
X104055652Y-47451155D01*
X104052130Y-47451143D01*
X104050930Y-47451411D01*
X104049293Y-47451500D01*
X91534500Y-47451500D01*
X91466379Y-47431498D01*
X91419886Y-47377842D01*
X91408500Y-47325500D01*
X91408500Y-46211866D01*
X91401745Y-46149684D01*
X91350615Y-46013295D01*
X91281867Y-45921565D01*
X91257019Y-45855059D01*
X91272072Y-45785676D01*
X91322246Y-45735446D01*
X91382693Y-45720000D01*
X129414000Y-45720000D01*
X129482121Y-45740002D01*
X129528614Y-45793658D01*
X129540000Y-45846000D01*
X129540000Y-116714000D01*
X129519998Y-116782121D01*
X129466342Y-116828614D01*
X129414000Y-116840000D01*
X53466000Y-116840000D01*
X53397879Y-116819998D01*
X53351386Y-116766342D01*
X53340000Y-116714000D01*
X53340000Y-111715132D01*
X55206757Y-111715132D01*
X55221781Y-112073588D01*
X55276668Y-112428136D01*
X55370734Y-112774356D01*
X55502806Y-113107933D01*
X55671239Y-113424709D01*
X55673224Y-113427607D01*
X55673230Y-113427618D01*
X55871942Y-113717829D01*
X55871947Y-113717835D01*
X55873933Y-113720736D01*
X56108361Y-113992324D01*
X56371602Y-114236087D01*
X56660375Y-114448989D01*
X56971080Y-114628375D01*
X56974301Y-114629782D01*
X57296622Y-114770601D01*
X57296632Y-114770605D01*
X57299844Y-114772008D01*
X57303201Y-114773047D01*
X57303206Y-114773049D01*
X57438744Y-114815005D01*
X57642570Y-114878100D01*
X57994987Y-114945327D01*
X58191571Y-114960453D01*
X58349203Y-114972582D01*
X58349204Y-114972582D01*
X58352700Y-114972851D01*
X58570001Y-114965263D01*
X58707738Y-114960453D01*
X58707743Y-114960453D01*
X58711253Y-114960330D01*
X58714734Y-114959816D01*
X59062683Y-114908436D01*
X59062689Y-114908435D01*
X59066175Y-114907920D01*
X59069579Y-114907021D01*
X59069582Y-114907020D01*
X59409652Y-114817169D01*
X59409653Y-114817169D01*
X59413043Y-114816273D01*
X59747534Y-114686533D01*
X60065478Y-114520316D01*
X60362913Y-114319693D01*
X60636131Y-114087167D01*
X60727702Y-113989654D01*
X60879316Y-113828202D01*
X60879320Y-113828197D01*
X60881727Y-113825634D01*
X60883832Y-113822820D01*
X60883838Y-113822813D01*
X61094530Y-113541174D01*
X61096639Y-113538355D01*
X61278189Y-113228910D01*
X61424115Y-112901156D01*
X61532596Y-112559179D01*
X61602282Y-112207241D01*
X61632303Y-111849728D01*
X61633556Y-111760000D01*
X61631048Y-111715132D01*
X121246757Y-111715132D01*
X121261781Y-112073588D01*
X121316668Y-112428136D01*
X121410734Y-112774356D01*
X121542806Y-113107933D01*
X121711239Y-113424709D01*
X121713224Y-113427607D01*
X121713230Y-113427618D01*
X121911942Y-113717829D01*
X121911947Y-113717835D01*
X121913933Y-113720736D01*
X122148361Y-113992324D01*
X122411602Y-114236087D01*
X122700375Y-114448989D01*
X123011080Y-114628375D01*
X123014301Y-114629782D01*
X123336622Y-114770601D01*
X123336632Y-114770605D01*
X123339844Y-114772008D01*
X123343201Y-114773047D01*
X123343206Y-114773049D01*
X123478744Y-114815005D01*
X123682570Y-114878100D01*
X124034987Y-114945327D01*
X124231571Y-114960453D01*
X124389203Y-114972582D01*
X124389204Y-114972582D01*
X124392700Y-114972851D01*
X124610001Y-114965263D01*
X124747738Y-114960453D01*
X124747743Y-114960453D01*
X124751253Y-114960330D01*
X124754734Y-114959816D01*
X125102683Y-114908436D01*
X125102689Y-114908435D01*
X125106175Y-114907920D01*
X125109579Y-114907021D01*
X125109582Y-114907020D01*
X125449652Y-114817169D01*
X125449653Y-114817169D01*
X125453043Y-114816273D01*
X125787534Y-114686533D01*
X126105478Y-114520316D01*
X126402913Y-114319693D01*
X126676131Y-114087167D01*
X126767702Y-113989654D01*
X126919316Y-113828202D01*
X126919320Y-113828197D01*
X126921727Y-113825634D01*
X126923832Y-113822820D01*
X126923838Y-113822813D01*
X127134530Y-113541174D01*
X127136639Y-113538355D01*
X127318189Y-113228910D01*
X127464115Y-112901156D01*
X127572596Y-112559179D01*
X127642282Y-112207241D01*
X127672303Y-111849728D01*
X127673556Y-111760000D01*
X127653529Y-111401788D01*
X127646589Y-111360757D01*
X127594286Y-111051522D01*
X127594285Y-111051518D01*
X127593697Y-111048041D01*
X127494806Y-110703169D01*
X127446662Y-110586362D01*
X127359427Y-110374713D01*
X127359423Y-110374705D01*
X127358089Y-110371468D01*
X127185250Y-110057075D01*
X126978443Y-109763907D01*
X126740245Y-109495619D01*
X126473626Y-109255554D01*
X126470776Y-109253513D01*
X126470769Y-109253508D01*
X126184763Y-109048748D01*
X126184760Y-109048746D01*
X126181909Y-109046705D01*
X125868730Y-108871675D01*
X125537992Y-108732646D01*
X125534623Y-108731655D01*
X125534619Y-108731653D01*
X125382754Y-108686957D01*
X125193818Y-108631350D01*
X124910904Y-108581464D01*
X124843958Y-108569660D01*
X124843956Y-108569660D01*
X124840498Y-108569050D01*
X124836987Y-108568829D01*
X124836986Y-108568829D01*
X124485953Y-108546743D01*
X124485947Y-108546743D01*
X124482435Y-108546522D01*
X124381046Y-108551481D01*
X124127599Y-108563876D01*
X124127591Y-108563877D01*
X124124092Y-108564048D01*
X124120624Y-108564610D01*
X124120621Y-108564610D01*
X123773411Y-108620846D01*
X123773408Y-108620847D01*
X123769936Y-108621409D01*
X123766549Y-108622355D01*
X123766543Y-108622356D01*
X123482406Y-108701689D01*
X123424381Y-108717890D01*
X123258057Y-108785089D01*
X123094998Y-108850969D01*
X123094994Y-108850971D01*
X123091734Y-108852288D01*
X123088647Y-108853957D01*
X123088643Y-108853959D01*
X123052699Y-108873394D01*
X122776142Y-109022928D01*
X122481537Y-109227683D01*
X122211593Y-109464002D01*
X121969672Y-109728938D01*
X121758792Y-110019190D01*
X121757050Y-110022256D01*
X121757049Y-110022258D01*
X121753499Y-110028507D01*
X121581580Y-110331140D01*
X121440245Y-110660899D01*
X121336549Y-111004358D01*
X121271784Y-111357235D01*
X121246757Y-111715132D01*
X61631048Y-111715132D01*
X61613529Y-111401788D01*
X61606589Y-111360757D01*
X61554286Y-111051522D01*
X61554285Y-111051518D01*
X61553697Y-111048041D01*
X61454806Y-110703169D01*
X61406662Y-110586362D01*
X61319427Y-110374713D01*
X61319423Y-110374705D01*
X61318089Y-110371468D01*
X61145250Y-110057075D01*
X60938443Y-109763907D01*
X60700245Y-109495619D01*
X60433626Y-109255554D01*
X60430776Y-109253513D01*
X60430769Y-109253508D01*
X60144763Y-109048748D01*
X60144760Y-109048746D01*
X60141909Y-109046705D01*
X59828730Y-108871675D01*
X59497992Y-108732646D01*
X59494623Y-108731655D01*
X59494619Y-108731653D01*
X59342754Y-108686957D01*
X59153818Y-108631350D01*
X58870904Y-108581464D01*
X58803958Y-108569660D01*
X58803956Y-108569660D01*
X58800498Y-108569050D01*
X58796987Y-108568829D01*
X58796986Y-108568829D01*
X58445953Y-108546743D01*
X58445947Y-108546743D01*
X58442435Y-108546522D01*
X58341046Y-108551481D01*
X58087599Y-108563876D01*
X58087591Y-108563877D01*
X58084092Y-108564048D01*
X58080624Y-108564610D01*
X58080621Y-108564610D01*
X57733411Y-108620846D01*
X57733408Y-108620847D01*
X57729936Y-108621409D01*
X57726549Y-108622355D01*
X57726543Y-108622356D01*
X57442406Y-108701689D01*
X57384381Y-108717890D01*
X57218057Y-108785089D01*
X57054998Y-108850969D01*
X57054994Y-108850971D01*
X57051734Y-108852288D01*
X57048647Y-108853957D01*
X57048643Y-108853959D01*
X57012699Y-108873394D01*
X56736142Y-109022928D01*
X56441537Y-109227683D01*
X56171593Y-109464002D01*
X55929672Y-109728938D01*
X55718792Y-110019190D01*
X55717050Y-110022256D01*
X55717049Y-110022258D01*
X55713499Y-110028507D01*
X55541580Y-110331140D01*
X55400245Y-110660899D01*
X55296549Y-111004358D01*
X55231784Y-111357235D01*
X55206757Y-111715132D01*
X53340000Y-111715132D01*
X53340000Y-106188134D01*
X55911500Y-106188134D01*
X55918255Y-106250316D01*
X55969385Y-106386705D01*
X56056739Y-106503261D01*
X56173295Y-106590615D01*
X56309684Y-106641745D01*
X56371866Y-106648500D01*
X60468134Y-106648500D01*
X60530316Y-106641745D01*
X60666705Y-106590615D01*
X60783261Y-106503261D01*
X60870615Y-106386705D01*
X60921745Y-106250316D01*
X60928500Y-106188134D01*
X60928500Y-105074500D01*
X60948502Y-105006379D01*
X61002158Y-104959886D01*
X61054500Y-104948500D01*
X68192918Y-104948500D01*
X68261039Y-104968502D01*
X68282013Y-104985405D01*
X73081766Y-109785158D01*
X73082694Y-109786095D01*
X73122021Y-109826254D01*
X73145771Y-109850507D01*
X73182221Y-109873998D01*
X73192546Y-109881417D01*
X73226443Y-109908476D01*
X73232784Y-109911541D01*
X73232785Y-109911542D01*
X73256637Y-109923072D01*
X73270054Y-109930601D01*
X73298238Y-109948765D01*
X73304855Y-109951173D01*
X73304860Y-109951176D01*
X73338973Y-109963592D01*
X73350716Y-109968553D01*
X73383400Y-109984353D01*
X73383409Y-109984356D01*
X73389749Y-109987421D01*
X73396614Y-109989006D01*
X73422428Y-109994966D01*
X73437168Y-109999332D01*
X73468685Y-110010803D01*
X73475670Y-110011685D01*
X73475677Y-110011687D01*
X73511692Y-110016237D01*
X73524243Y-110018472D01*
X73566485Y-110028225D01*
X73573529Y-110028250D01*
X73573533Y-110028250D01*
X73607072Y-110028367D01*
X73607942Y-110028396D01*
X73608769Y-110028500D01*
X73645258Y-110028500D01*
X73645697Y-110028501D01*
X73744343Y-110028845D01*
X73744348Y-110028845D01*
X73747870Y-110028857D01*
X73749070Y-110028589D01*
X73750708Y-110028500D01*
X101590786Y-110028500D01*
X101592106Y-110028507D01*
X101682221Y-110029451D01*
X101724597Y-110020289D01*
X101737163Y-110018231D01*
X101780255Y-110013397D01*
X101786906Y-110011081D01*
X101786910Y-110011080D01*
X101811930Y-110002367D01*
X101826742Y-109998204D01*
X101852619Y-109992609D01*
X101859510Y-109991119D01*
X101898813Y-109972792D01*
X101910589Y-109968010D01*
X101951552Y-109953745D01*
X101957527Y-109950011D01*
X101957530Y-109950010D01*
X101979995Y-109935973D01*
X101993512Y-109928634D01*
X102017514Y-109917441D01*
X102017515Y-109917440D01*
X102023902Y-109914462D01*
X102058153Y-109887894D01*
X102068612Y-109880598D01*
X102099404Y-109861358D01*
X102099407Y-109861356D01*
X102105376Y-109857626D01*
X102134179Y-109829024D01*
X102134804Y-109828439D01*
X102135470Y-109827922D01*
X102161460Y-109801932D01*
X102234082Y-109729815D01*
X102234740Y-109728778D01*
X102235843Y-109727549D01*
X104705158Y-107258234D01*
X104706095Y-107257306D01*
X104765475Y-107199157D01*
X104765476Y-107199156D01*
X104770507Y-107194229D01*
X104793998Y-107157779D01*
X104801417Y-107147454D01*
X104828476Y-107113557D01*
X104831540Y-107107218D01*
X104831543Y-107107214D01*
X104843074Y-107083362D01*
X104850601Y-107069949D01*
X104864947Y-107047687D01*
X104864948Y-107047684D01*
X104868765Y-107041762D01*
X104871176Y-107035139D01*
X104883592Y-107001027D01*
X104888553Y-106989283D01*
X104904352Y-106956601D01*
X104904353Y-106956599D01*
X104907421Y-106950252D01*
X104914966Y-106917573D01*
X104919334Y-106902825D01*
X104930803Y-106871315D01*
X104931685Y-106864329D01*
X104931687Y-106864323D01*
X104936238Y-106828299D01*
X104938474Y-106815747D01*
X104946638Y-106780386D01*
X104946638Y-106780383D01*
X104948224Y-106773515D01*
X104948366Y-106732944D01*
X104948395Y-106732062D01*
X104948500Y-106731231D01*
X104948500Y-106694428D01*
X104948857Y-106592130D01*
X104948589Y-106590930D01*
X104948500Y-106589293D01*
X104948500Y-93989214D01*
X104948507Y-93987894D01*
X104949377Y-93904826D01*
X104949451Y-93897779D01*
X104940289Y-93855403D01*
X104938230Y-93842832D01*
X104934182Y-93806744D01*
X104933397Y-93799745D01*
X104922367Y-93768070D01*
X104918204Y-93753258D01*
X104912609Y-93727381D01*
X104911119Y-93720490D01*
X104892792Y-93681187D01*
X104888010Y-93669411D01*
X104873745Y-93628448D01*
X104870010Y-93622470D01*
X104855973Y-93600005D01*
X104848634Y-93586488D01*
X104837441Y-93562486D01*
X104837440Y-93562485D01*
X104834462Y-93556098D01*
X104807894Y-93521847D01*
X104800598Y-93511388D01*
X104781358Y-93480596D01*
X104781356Y-93480593D01*
X104777626Y-93474624D01*
X104749024Y-93445821D01*
X104748439Y-93445196D01*
X104747922Y-93444530D01*
X104721932Y-93418540D01*
X104649815Y-93345918D01*
X104648778Y-93345260D01*
X104647549Y-93344157D01*
X100401360Y-89097968D01*
X100367334Y-89035656D01*
X100364934Y-88997892D01*
X100373019Y-88905476D01*
X100373019Y-88905475D01*
X100373498Y-88900000D01*
X100353543Y-88671913D01*
X100294284Y-88450757D01*
X100199966Y-88248489D01*
X100199849Y-88248238D01*
X100199846Y-88248233D01*
X100197523Y-88243251D01*
X100066198Y-88055700D01*
X99904300Y-87893802D01*
X99899792Y-87890645D01*
X99899789Y-87890643D01*
X99821611Y-87835902D01*
X99716749Y-87762477D01*
X99711767Y-87760154D01*
X99711762Y-87760151D01*
X99514225Y-87668039D01*
X99514224Y-87668039D01*
X99509243Y-87665716D01*
X99503935Y-87664294D01*
X99503933Y-87664293D01*
X99293402Y-87607881D01*
X99293400Y-87607881D01*
X99288087Y-87606457D01*
X99060000Y-87586502D01*
X98831913Y-87606457D01*
X98826600Y-87607881D01*
X98826598Y-87607881D01*
X98616067Y-87664293D01*
X98616065Y-87664294D01*
X98610757Y-87665716D01*
X98605776Y-87668039D01*
X98605775Y-87668039D01*
X98408238Y-87760151D01*
X98408233Y-87760154D01*
X98403251Y-87762477D01*
X98298389Y-87835902D01*
X98220211Y-87890643D01*
X98220208Y-87890645D01*
X98215700Y-87893802D01*
X98053802Y-88055700D01*
X97922477Y-88243251D01*
X97920154Y-88248233D01*
X97920151Y-88248238D01*
X97903919Y-88283049D01*
X97857002Y-88336334D01*
X97788725Y-88355795D01*
X97720765Y-88335253D01*
X97675529Y-88283049D01*
X97659414Y-88248489D01*
X97653931Y-88238993D01*
X97528972Y-88060533D01*
X97521916Y-88052125D01*
X97367875Y-87898084D01*
X97359467Y-87891028D01*
X97181007Y-87766069D01*
X97171511Y-87760586D01*
X96974053Y-87668510D01*
X96963761Y-87664764D01*
X96791497Y-87618606D01*
X96777401Y-87618942D01*
X96774000Y-87626884D01*
X96774000Y-90167967D01*
X96777973Y-90181498D01*
X96786522Y-90182727D01*
X96963761Y-90135236D01*
X96974053Y-90131490D01*
X97171511Y-90039414D01*
X97181007Y-90033931D01*
X97359467Y-89908972D01*
X97367875Y-89901916D01*
X97521916Y-89747875D01*
X97528972Y-89739467D01*
X97653931Y-89561007D01*
X97659414Y-89551511D01*
X97675529Y-89516951D01*
X97722446Y-89463666D01*
X97790723Y-89444205D01*
X97858683Y-89464747D01*
X97903919Y-89516951D01*
X97920151Y-89551762D01*
X97920154Y-89551767D01*
X97922477Y-89556749D01*
X98053802Y-89744300D01*
X98215700Y-89906198D01*
X98220208Y-89909355D01*
X98220211Y-89909357D01*
X98298389Y-89964098D01*
X98403251Y-90037523D01*
X98408233Y-90039846D01*
X98408238Y-90039849D01*
X98604765Y-90131490D01*
X98610757Y-90134284D01*
X98616065Y-90135706D01*
X98616067Y-90135707D01*
X98826598Y-90192119D01*
X98826600Y-90192119D01*
X98831913Y-90193543D01*
X99060000Y-90213498D01*
X99065475Y-90213019D01*
X99065476Y-90213019D01*
X99157892Y-90204934D01*
X99227497Y-90218924D01*
X99257968Y-90241360D01*
X103294595Y-94277987D01*
X103328621Y-94340299D01*
X103331500Y-94367082D01*
X103331500Y-106292919D01*
X103311498Y-106361040D01*
X103294595Y-106382014D01*
X101302013Y-108374595D01*
X101239701Y-108408621D01*
X101212918Y-108411500D01*
X74047082Y-108411500D01*
X73978961Y-108391498D01*
X73957987Y-108374595D01*
X69158234Y-103574842D01*
X69157306Y-103573905D01*
X69099157Y-103514525D01*
X69099156Y-103514524D01*
X69094229Y-103509493D01*
X69057779Y-103486002D01*
X69047454Y-103478583D01*
X69013557Y-103451524D01*
X68983362Y-103436927D01*
X68969945Y-103429398D01*
X68941762Y-103411235D01*
X68935145Y-103408827D01*
X68935140Y-103408824D01*
X68901027Y-103396408D01*
X68889284Y-103391447D01*
X68856597Y-103375646D01*
X68856592Y-103375644D01*
X68850251Y-103372579D01*
X68843393Y-103370996D01*
X68843391Y-103370995D01*
X68817574Y-103365035D01*
X68802831Y-103360668D01*
X68771315Y-103349197D01*
X68764325Y-103348314D01*
X68764317Y-103348312D01*
X68728299Y-103343762D01*
X68715747Y-103341526D01*
X68680386Y-103333362D01*
X68680383Y-103333362D01*
X68673515Y-103331776D01*
X68666469Y-103331751D01*
X68666466Y-103331751D01*
X68632944Y-103331634D01*
X68632062Y-103331605D01*
X68631231Y-103331500D01*
X68594581Y-103331500D01*
X68594141Y-103331499D01*
X68495657Y-103331155D01*
X68495652Y-103331155D01*
X68492130Y-103331143D01*
X68490930Y-103331411D01*
X68489293Y-103331500D01*
X61054500Y-103331500D01*
X60986379Y-103311498D01*
X60939886Y-103257842D01*
X60928500Y-103205500D01*
X60928500Y-102091866D01*
X60921745Y-102029684D01*
X60870615Y-101893295D01*
X60783261Y-101776739D01*
X60666705Y-101689385D01*
X60530316Y-101638255D01*
X60468134Y-101631500D01*
X56371866Y-101631500D01*
X56309684Y-101638255D01*
X56173295Y-101689385D01*
X56056739Y-101776739D01*
X55969385Y-101893295D01*
X55918255Y-102029684D01*
X55911500Y-102091866D01*
X55911500Y-106188134D01*
X53340000Y-106188134D01*
X53340000Y-98564669D01*
X55912001Y-98564669D01*
X55912371Y-98571490D01*
X55917895Y-98622352D01*
X55921521Y-98637604D01*
X55966676Y-98758054D01*
X55975214Y-98773649D01*
X56051715Y-98875724D01*
X56064276Y-98888285D01*
X56166351Y-98964786D01*
X56181946Y-98973324D01*
X56302394Y-99018478D01*
X56317649Y-99022105D01*
X56368514Y-99027631D01*
X56375328Y-99028000D01*
X58147885Y-99028000D01*
X58163124Y-99023525D01*
X58164329Y-99022135D01*
X58166000Y-99014452D01*
X58166000Y-99009884D01*
X58674000Y-99009884D01*
X58678475Y-99025123D01*
X58679865Y-99026328D01*
X58687548Y-99027999D01*
X60464669Y-99027999D01*
X60471490Y-99027629D01*
X60522352Y-99022105D01*
X60537604Y-99018479D01*
X60658054Y-98973324D01*
X60673649Y-98964786D01*
X60775724Y-98888285D01*
X60788285Y-98875724D01*
X60864786Y-98773649D01*
X60873324Y-98758054D01*
X60918478Y-98637606D01*
X60922105Y-98622351D01*
X60927631Y-98571486D01*
X60928000Y-98564672D01*
X60928000Y-96792115D01*
X60923525Y-96776876D01*
X60922135Y-96775671D01*
X60914452Y-96774000D01*
X58692115Y-96774000D01*
X58676876Y-96778475D01*
X58675671Y-96779865D01*
X58674000Y-96787548D01*
X58674000Y-99009884D01*
X58166000Y-99009884D01*
X58166000Y-96792115D01*
X58161525Y-96776876D01*
X58160135Y-96775671D01*
X58152452Y-96774000D01*
X55930116Y-96774000D01*
X55914877Y-96778475D01*
X55913672Y-96779865D01*
X55912001Y-96787548D01*
X55912001Y-98564669D01*
X53340000Y-98564669D01*
X53340000Y-96247885D01*
X55912000Y-96247885D01*
X55916475Y-96263124D01*
X55917865Y-96264329D01*
X55925548Y-96266000D01*
X58147885Y-96266000D01*
X58163124Y-96261525D01*
X58164329Y-96260135D01*
X58166000Y-96252452D01*
X58166000Y-94030116D01*
X58161525Y-94014877D01*
X58160135Y-94013672D01*
X58152452Y-94012001D01*
X56375331Y-94012001D01*
X56368510Y-94012371D01*
X56317648Y-94017895D01*
X56302396Y-94021521D01*
X56181946Y-94066676D01*
X56166351Y-94075214D01*
X56064276Y-94151715D01*
X56051715Y-94164276D01*
X55975214Y-94266351D01*
X55966676Y-94281946D01*
X55921522Y-94402394D01*
X55917895Y-94417649D01*
X55912369Y-94468514D01*
X55912000Y-94475328D01*
X55912000Y-96247885D01*
X53340000Y-96247885D01*
X53340000Y-50755132D01*
X55206757Y-50755132D01*
X55221781Y-51113588D01*
X55276668Y-51468136D01*
X55370734Y-51814356D01*
X55502806Y-52147933D01*
X55671239Y-52464709D01*
X55673224Y-52467607D01*
X55673230Y-52467618D01*
X55871942Y-52757829D01*
X55871947Y-52757835D01*
X55873933Y-52760736D01*
X56108361Y-53032324D01*
X56371602Y-53276087D01*
X56374428Y-53278170D01*
X56374431Y-53278173D01*
X56481911Y-53357414D01*
X56660375Y-53488989D01*
X56971080Y-53668375D01*
X56974301Y-53669782D01*
X57296622Y-53810601D01*
X57296632Y-53810605D01*
X57299844Y-53812008D01*
X57303201Y-53813047D01*
X57303206Y-53813049D01*
X57438744Y-53855005D01*
X57642570Y-53918100D01*
X57994987Y-53985327D01*
X58237526Y-54003989D01*
X58349203Y-54012582D01*
X58349204Y-54012582D01*
X58352700Y-54012851D01*
X58570001Y-54005263D01*
X58707738Y-54000453D01*
X58707743Y-54000453D01*
X58711253Y-54000330D01*
X58714734Y-53999816D01*
X59062683Y-53948436D01*
X59062689Y-53948435D01*
X59066175Y-53947920D01*
X59069579Y-53947021D01*
X59069582Y-53947020D01*
X59409652Y-53857169D01*
X59409653Y-53857169D01*
X59413043Y-53856273D01*
X59747534Y-53726533D01*
X60065478Y-53560316D01*
X60362913Y-53359693D01*
X60636131Y-53127167D01*
X60771872Y-52982618D01*
X60879316Y-52868202D01*
X60879320Y-52868197D01*
X60881727Y-52865634D01*
X60883832Y-52862820D01*
X60883838Y-52862813D01*
X61094530Y-52581174D01*
X61096639Y-52578355D01*
X61278189Y-52268910D01*
X61424115Y-51941156D01*
X61532596Y-51599179D01*
X61602282Y-51247241D01*
X61626964Y-50953311D01*
X61632120Y-50891912D01*
X61632121Y-50891901D01*
X61632303Y-50889728D01*
X61632968Y-50842158D01*
X61633526Y-50802178D01*
X61633526Y-50802166D01*
X61633556Y-50800000D01*
X61632914Y-50788502D01*
X61617560Y-50513891D01*
X61613529Y-50441788D01*
X61606589Y-50400757D01*
X61590337Y-50304669D01*
X71152001Y-50304669D01*
X71152371Y-50311490D01*
X71157895Y-50362352D01*
X71161521Y-50377604D01*
X71206676Y-50498054D01*
X71215214Y-50513649D01*
X71291715Y-50615724D01*
X71304276Y-50628285D01*
X71406351Y-50704786D01*
X71421946Y-50713324D01*
X71542394Y-50758478D01*
X71557649Y-50762105D01*
X71608514Y-50767631D01*
X71615328Y-50768000D01*
X73387885Y-50768000D01*
X73403124Y-50763525D01*
X73404329Y-50762135D01*
X73406000Y-50754452D01*
X73406000Y-50749884D01*
X73914000Y-50749884D01*
X73918475Y-50765123D01*
X73919865Y-50766328D01*
X73927548Y-50767999D01*
X75704669Y-50767999D01*
X75711490Y-50767629D01*
X75762352Y-50762105D01*
X75777604Y-50758479D01*
X75898054Y-50713324D01*
X75913649Y-50704786D01*
X76015724Y-50628285D01*
X76028285Y-50615724D01*
X76104786Y-50513649D01*
X76113324Y-50498054D01*
X76158478Y-50377606D01*
X76162105Y-50362351D01*
X76167631Y-50311486D01*
X76168000Y-50304672D01*
X76168000Y-48532115D01*
X76163525Y-48516876D01*
X76162135Y-48515671D01*
X76154452Y-48514000D01*
X73932115Y-48514000D01*
X73916876Y-48518475D01*
X73915671Y-48519865D01*
X73914000Y-48527548D01*
X73914000Y-50749884D01*
X73406000Y-50749884D01*
X73406000Y-48532115D01*
X73401525Y-48516876D01*
X73400135Y-48515671D01*
X73392452Y-48514000D01*
X71170116Y-48514000D01*
X71154877Y-48518475D01*
X71153672Y-48519865D01*
X71152001Y-48527548D01*
X71152001Y-50304669D01*
X61590337Y-50304669D01*
X61554286Y-50091522D01*
X61554285Y-50091518D01*
X61553697Y-50088041D01*
X61454806Y-49743169D01*
X61383982Y-49571336D01*
X61319427Y-49414713D01*
X61319423Y-49414705D01*
X61318089Y-49411468D01*
X61161360Y-49126379D01*
X61146943Y-49100154D01*
X61146940Y-49100150D01*
X61145250Y-49097075D01*
X60938443Y-48803907D01*
X60700245Y-48535619D01*
X60433626Y-48295554D01*
X60430776Y-48293513D01*
X60430769Y-48293508D01*
X60144763Y-48088748D01*
X60144760Y-48088746D01*
X60141909Y-48086705D01*
X59828730Y-47911675D01*
X59497992Y-47772646D01*
X59494623Y-47771655D01*
X59494619Y-47771653D01*
X59342754Y-47726957D01*
X59153818Y-47671350D01*
X58870904Y-47621464D01*
X58803958Y-47609660D01*
X58803956Y-47609660D01*
X58800498Y-47609050D01*
X58796987Y-47608829D01*
X58796986Y-47608829D01*
X58445953Y-47586743D01*
X58445947Y-47586743D01*
X58442435Y-47586522D01*
X58341046Y-47591481D01*
X58087599Y-47603876D01*
X58087591Y-47603877D01*
X58084092Y-47604048D01*
X58080624Y-47604610D01*
X58080621Y-47604610D01*
X57733411Y-47660846D01*
X57733408Y-47660847D01*
X57729936Y-47661409D01*
X57726549Y-47662355D01*
X57726543Y-47662356D01*
X57442406Y-47741689D01*
X57384381Y-47757890D01*
X57218058Y-47825089D01*
X57054998Y-47890969D01*
X57054994Y-47890971D01*
X57051734Y-47892288D01*
X57048647Y-47893957D01*
X57048643Y-47893959D01*
X57012699Y-47913394D01*
X56736142Y-48062928D01*
X56441537Y-48267683D01*
X56438895Y-48269996D01*
X56438891Y-48269999D01*
X56257959Y-48428394D01*
X56171593Y-48504002D01*
X55929672Y-48768938D01*
X55718792Y-49059190D01*
X55541580Y-49371140D01*
X55400245Y-49700899D01*
X55296549Y-50044358D01*
X55295913Y-50047825D01*
X55235367Y-50377715D01*
X55231784Y-50397235D01*
X55206757Y-50755132D01*
X53340000Y-50755132D01*
X53340000Y-45846000D01*
X53360002Y-45777879D01*
X53413658Y-45731386D01*
X53466000Y-45720000D01*
X71177932Y-45720000D01*
X71246053Y-45740002D01*
G37*
%TD.AperFunction*%
%TD*%
M02*
