%TF.GenerationSoftware,KiCad,Pcbnew,(6.0.4)*%
%TF.CreationDate,2025-03-27T00:11:59-07:00*%
%TF.ProjectId,led-goals,6c65642d-676f-4616-9c73-2e6b69636164,rev?*%
%TF.SameCoordinates,Original*%
%TF.FileFunction,Copper,L2,Bot*%
%TF.FilePolarity,Positive*%
%FSLAX46Y46*%
G04 Gerber Fmt 4.6, Leading zero omitted, Abs format (unit mm)*
G04 Created by KiCad (PCBNEW (6.0.4)) date 2025-03-27 00:11:59*
%MOMM*%
%LPD*%
G01*
G04 APERTURE LIST*
%TA.AperFunction,ComponentPad*%
%ADD10C,0.800000*%
%TD*%
%TA.AperFunction,ComponentPad*%
%ADD11C,5.400000*%
%TD*%
%TA.AperFunction,ComponentPad*%
%ADD12C,2.000000*%
%TD*%
%TA.AperFunction,ComponentPad*%
%ADD13C,1.600000*%
%TD*%
%TA.AperFunction,ComponentPad*%
%ADD14O,1.600000X1.600000*%
%TD*%
%TA.AperFunction,ComponentPad*%
%ADD15R,1.600000X1.600000*%
%TD*%
%TA.AperFunction,ComponentPad*%
%ADD16R,1.800000X1.800000*%
%TD*%
%TA.AperFunction,ComponentPad*%
%ADD17C,1.800000*%
%TD*%
%TA.AperFunction,ViaPad*%
%ADD18C,0.800000*%
%TD*%
%TA.AperFunction,Conductor*%
%ADD19C,0.600000*%
%TD*%
G04 APERTURE END LIST*
D10*
%TO.P,H4,1*%
%TO.N,N/C*%
X60445000Y-111760000D03*
X58420000Y-113785000D03*
X59851891Y-113191891D03*
D11*
X58420000Y-111760000D03*
D10*
X58420000Y-109735000D03*
X56988109Y-113191891D03*
X59851891Y-110328109D03*
X56395000Y-111760000D03*
X56988109Y-110328109D03*
%TD*%
%TO.P,H3,1*%
%TO.N,N/C*%
X126485000Y-51315000D03*
X124460000Y-53340000D03*
X125891891Y-52746891D03*
D11*
X124460000Y-51315000D03*
D10*
X124460000Y-49290000D03*
X123028109Y-52746891D03*
X125891891Y-49883109D03*
X122435000Y-51315000D03*
X123028109Y-49883109D03*
%TD*%
%TO.P,H2,1*%
%TO.N,N/C*%
X60445000Y-50800000D03*
X58420000Y-52825000D03*
X59851891Y-52231891D03*
D11*
X58420000Y-50800000D03*
D10*
X58420000Y-48775000D03*
X56988109Y-52231891D03*
X59851891Y-49368109D03*
X56395000Y-50800000D03*
X56988109Y-49368109D03*
%TD*%
%TO.P,H1,1*%
%TO.N,N/C*%
X126485000Y-111760000D03*
X124460000Y-113785000D03*
X125891891Y-113191891D03*
D11*
X124460000Y-111760000D03*
D10*
X124460000Y-109735000D03*
X123028109Y-113191891D03*
X125891891Y-110328109D03*
X122435000Y-111760000D03*
X123028109Y-110328109D03*
%TD*%
D12*
%TO.P,SW1,1,1*%
%TO.N,Net-(A1-Pad27)*%
X115420000Y-83820000D03*
X121920000Y-83820000D03*
%TO.P,SW1,2,2*%
%TO.N,Net-(A1-Pad5)*%
X121920000Y-79320000D03*
X115420000Y-79320000D03*
%TD*%
D13*
%TO.P,R1,1*%
%TO.N,Net-(A1-Pad9)*%
X81280000Y-60960000D03*
D14*
%TO.P,R1,2*%
%TO.N,Net-(J4-Pad1)*%
X81280000Y-58420000D03*
%TD*%
D13*
%TO.P,R3,1*%
%TO.N,Net-(A1-Pad5)*%
X109220000Y-63500000D03*
D14*
%TO.P,R3,2*%
%TO.N,GND*%
X106680000Y-63500000D03*
%TD*%
D15*
%TO.P,A1,1,D1/TX*%
%TO.N,unconnected-(A1-Pad1)*%
X99060000Y-73660000D03*
D14*
%TO.P,A1,2,D0/RX*%
%TO.N,unconnected-(A1-Pad2)*%
X96520000Y-73660000D03*
%TO.P,A1,3,~{RESET}*%
%TO.N,unconnected-(A1-Pad3)*%
X93980000Y-73660000D03*
%TO.P,A1,4,GND*%
%TO.N,GND*%
X91440000Y-73660000D03*
%TO.P,A1,5,D2*%
%TO.N,Net-(A1-Pad5)*%
X88900000Y-73660000D03*
%TO.P,A1,6,D3*%
%TO.N,Net-(A1-Pad6)*%
X86360000Y-73660000D03*
%TO.P,A1,7,D4*%
%TO.N,unconnected-(A1-Pad7)*%
X83820000Y-73660000D03*
%TO.P,A1,8,D5*%
%TO.N,unconnected-(A1-Pad8)*%
X81280000Y-73660000D03*
%TO.P,A1,9,D6*%
%TO.N,Net-(A1-Pad9)*%
X78740000Y-73660000D03*
%TO.P,A1,10,D7*%
%TO.N,unconnected-(A1-Pad10)*%
X76200000Y-73660000D03*
%TO.P,A1,11,D8*%
%TO.N,unconnected-(A1-Pad11)*%
X73660000Y-73660000D03*
%TO.P,A1,12,D9*%
%TO.N,unconnected-(A1-Pad12)*%
X71120000Y-73660000D03*
%TO.P,A1,13,D10*%
%TO.N,unconnected-(A1-Pad13)*%
X68580000Y-73660000D03*
%TO.P,A1,14,D11*%
%TO.N,unconnected-(A1-Pad14)*%
X66040000Y-73660000D03*
%TO.P,A1,15,D12*%
%TO.N,unconnected-(A1-Pad15)*%
X63500000Y-73660000D03*
%TO.P,A1,16,D13*%
%TO.N,unconnected-(A1-Pad16)*%
X63500000Y-88900000D03*
%TO.P,A1,17,3V3*%
%TO.N,unconnected-(A1-Pad17)*%
X66040000Y-88900000D03*
%TO.P,A1,18,AREF*%
%TO.N,unconnected-(A1-Pad18)*%
X68580000Y-88900000D03*
%TO.P,A1,19,A0*%
%TO.N,unconnected-(A1-Pad19)*%
X71120000Y-88900000D03*
%TO.P,A1,20,A1*%
%TO.N,unconnected-(A1-Pad20)*%
X73660000Y-88900000D03*
%TO.P,A1,21,A2*%
%TO.N,unconnected-(A1-Pad21)*%
X76200000Y-88900000D03*
%TO.P,A1,22,A3*%
%TO.N,unconnected-(A1-Pad22)*%
X78740000Y-88900000D03*
%TO.P,A1,23,A4*%
%TO.N,unconnected-(A1-Pad23)*%
X81280000Y-88900000D03*
%TO.P,A1,24,A5*%
%TO.N,unconnected-(A1-Pad24)*%
X83820000Y-88900000D03*
%TO.P,A1,25,A6*%
%TO.N,unconnected-(A1-Pad25)*%
X86360000Y-88900000D03*
%TO.P,A1,26,A7*%
%TO.N,unconnected-(A1-Pad26)*%
X88900000Y-88900000D03*
%TO.P,A1,27,+5V*%
%TO.N,Net-(A1-Pad27)*%
X91440000Y-88900000D03*
%TO.P,A1,28,~{RESET}*%
%TO.N,unconnected-(A1-Pad28)*%
X93980000Y-88900000D03*
%TO.P,A1,29,GND*%
%TO.N,GND*%
X96520000Y-88900000D03*
%TO.P,A1,30,VIN*%
%TO.N,Net-(A1-Pad30)*%
X99060000Y-88900000D03*
%TD*%
D16*
%TO.P,D1,1,K*%
%TO.N,Net-(D1-Pad1)*%
X88900000Y-101600000D03*
D17*
%TO.P,D1,2,A*%
%TO.N,Net-(A1-Pad6)*%
X86360000Y-101600000D03*
%TD*%
D13*
%TO.P,R2,1*%
%TO.N,Net-(D1-Pad1)*%
X99060000Y-101600000D03*
D14*
%TO.P,R2,2*%
%TO.N,GND*%
X101600000Y-101600000D03*
%TD*%
D18*
%TO.N,GND*%
X106680000Y-63500000D03*
X101600000Y-101600000D03*
X73660000Y-48260000D03*
X96520000Y-88900000D03*
X58420000Y-96520000D03*
%TO.N,Net-(A1-Pad30)*%
X99060000Y-88900000D03*
X99060000Y-88900000D03*
%TD*%
D19*
%TO.N,GND*%
X81280000Y-96520000D02*
X58420000Y-96520000D01*
X83820000Y-93980000D02*
X81280000Y-96520000D01*
X91440000Y-83820000D02*
X96520000Y-88900000D01*
X91440000Y-73660000D02*
X91440000Y-83820000D01*
X106680000Y-63500000D02*
X101600000Y-63500000D01*
X101600000Y-63500000D02*
X91440000Y-73660000D01*
X101600000Y-93980000D02*
X96520000Y-88900000D01*
X101600000Y-101600000D02*
X101600000Y-93980000D01*
X91440000Y-93980000D02*
X96520000Y-88900000D01*
X83820000Y-93980000D02*
X91440000Y-93980000D01*
X83820000Y-66040000D02*
X91440000Y-73660000D01*
X78740000Y-66040000D02*
X83820000Y-66040000D01*
X73660000Y-60960000D02*
X78740000Y-66040000D01*
X73660000Y-48260000D02*
X73660000Y-60960000D01*
%TD*%
%TA.AperFunction,Conductor*%
%TO.N,GND*%
G36*
X129482121Y-45740002D02*
G01*
X129528614Y-45793658D01*
X129540000Y-45846000D01*
X129540000Y-116714000D01*
X129519998Y-116782121D01*
X129466342Y-116828614D01*
X129414000Y-116840000D01*
X53466000Y-116840000D01*
X53397879Y-116819998D01*
X53351386Y-116766342D01*
X53340000Y-116714000D01*
X53340000Y-111715132D01*
X55206757Y-111715132D01*
X55221781Y-112073588D01*
X55276668Y-112428136D01*
X55370734Y-112774356D01*
X55502806Y-113107933D01*
X55671239Y-113424709D01*
X55673224Y-113427607D01*
X55673230Y-113427618D01*
X55871942Y-113717829D01*
X55871947Y-113717835D01*
X55873933Y-113720736D01*
X56108361Y-113992324D01*
X56371602Y-114236087D01*
X56660375Y-114448989D01*
X56971080Y-114628375D01*
X56974301Y-114629782D01*
X57296622Y-114770601D01*
X57296632Y-114770605D01*
X57299844Y-114772008D01*
X57303201Y-114773047D01*
X57303206Y-114773049D01*
X57438744Y-114815005D01*
X57642570Y-114878100D01*
X57994987Y-114945327D01*
X58191571Y-114960453D01*
X58349203Y-114972582D01*
X58349204Y-114972582D01*
X58352700Y-114972851D01*
X58570001Y-114965263D01*
X58707738Y-114960453D01*
X58707743Y-114960453D01*
X58711253Y-114960330D01*
X58714734Y-114959816D01*
X59062683Y-114908436D01*
X59062689Y-114908435D01*
X59066175Y-114907920D01*
X59069579Y-114907021D01*
X59069582Y-114907020D01*
X59409652Y-114817169D01*
X59409653Y-114817169D01*
X59413043Y-114816273D01*
X59747534Y-114686533D01*
X60065478Y-114520316D01*
X60362913Y-114319693D01*
X60636131Y-114087167D01*
X60727702Y-113989654D01*
X60879316Y-113828202D01*
X60879320Y-113828197D01*
X60881727Y-113825634D01*
X60883832Y-113822820D01*
X60883838Y-113822813D01*
X61094530Y-113541174D01*
X61096639Y-113538355D01*
X61278189Y-113228910D01*
X61424115Y-112901156D01*
X61532596Y-112559179D01*
X61602282Y-112207241D01*
X61632303Y-111849728D01*
X61633556Y-111760000D01*
X61631048Y-111715132D01*
X121246757Y-111715132D01*
X121261781Y-112073588D01*
X121316668Y-112428136D01*
X121410734Y-112774356D01*
X121542806Y-113107933D01*
X121711239Y-113424709D01*
X121713224Y-113427607D01*
X121713230Y-113427618D01*
X121911942Y-113717829D01*
X121911947Y-113717835D01*
X121913933Y-113720736D01*
X122148361Y-113992324D01*
X122411602Y-114236087D01*
X122700375Y-114448989D01*
X123011080Y-114628375D01*
X123014301Y-114629782D01*
X123336622Y-114770601D01*
X123336632Y-114770605D01*
X123339844Y-114772008D01*
X123343201Y-114773047D01*
X123343206Y-114773049D01*
X123478744Y-114815005D01*
X123682570Y-114878100D01*
X124034987Y-114945327D01*
X124231571Y-114960453D01*
X124389203Y-114972582D01*
X124389204Y-114972582D01*
X124392700Y-114972851D01*
X124610001Y-114965263D01*
X124747738Y-114960453D01*
X124747743Y-114960453D01*
X124751253Y-114960330D01*
X124754734Y-114959816D01*
X125102683Y-114908436D01*
X125102689Y-114908435D01*
X125106175Y-114907920D01*
X125109579Y-114907021D01*
X125109582Y-114907020D01*
X125449652Y-114817169D01*
X125449653Y-114817169D01*
X125453043Y-114816273D01*
X125787534Y-114686533D01*
X126105478Y-114520316D01*
X126402913Y-114319693D01*
X126676131Y-114087167D01*
X126767702Y-113989654D01*
X126919316Y-113828202D01*
X126919320Y-113828197D01*
X126921727Y-113825634D01*
X126923832Y-113822820D01*
X126923838Y-113822813D01*
X127134530Y-113541174D01*
X127136639Y-113538355D01*
X127318189Y-113228910D01*
X127464115Y-112901156D01*
X127572596Y-112559179D01*
X127642282Y-112207241D01*
X127672303Y-111849728D01*
X127673556Y-111760000D01*
X127653529Y-111401788D01*
X127646589Y-111360757D01*
X127594286Y-111051522D01*
X127594285Y-111051518D01*
X127593697Y-111048041D01*
X127494806Y-110703169D01*
X127446662Y-110586362D01*
X127359427Y-110374713D01*
X127359423Y-110374705D01*
X127358089Y-110371468D01*
X127185250Y-110057075D01*
X126978443Y-109763907D01*
X126740245Y-109495619D01*
X126473626Y-109255554D01*
X126470776Y-109253513D01*
X126470769Y-109253508D01*
X126184763Y-109048748D01*
X126184760Y-109048746D01*
X126181909Y-109046705D01*
X125868730Y-108871675D01*
X125537992Y-108732646D01*
X125534623Y-108731655D01*
X125534619Y-108731653D01*
X125382754Y-108686957D01*
X125193818Y-108631350D01*
X124910904Y-108581464D01*
X124843958Y-108569660D01*
X124843956Y-108569660D01*
X124840498Y-108569050D01*
X124836987Y-108568829D01*
X124836986Y-108568829D01*
X124485953Y-108546743D01*
X124485947Y-108546743D01*
X124482435Y-108546522D01*
X124381046Y-108551481D01*
X124127599Y-108563876D01*
X124127591Y-108563877D01*
X124124092Y-108564048D01*
X124120624Y-108564610D01*
X124120621Y-108564610D01*
X123773411Y-108620846D01*
X123773408Y-108620847D01*
X123769936Y-108621409D01*
X123766549Y-108622355D01*
X123766543Y-108622356D01*
X123482406Y-108701689D01*
X123424381Y-108717890D01*
X123258057Y-108785089D01*
X123094998Y-108850969D01*
X123094994Y-108850971D01*
X123091734Y-108852288D01*
X123088647Y-108853957D01*
X123088643Y-108853959D01*
X123052699Y-108873394D01*
X122776142Y-109022928D01*
X122481537Y-109227683D01*
X122211593Y-109464002D01*
X121969672Y-109728938D01*
X121758792Y-110019190D01*
X121581580Y-110331140D01*
X121440245Y-110660899D01*
X121336549Y-111004358D01*
X121271784Y-111357235D01*
X121246757Y-111715132D01*
X61631048Y-111715132D01*
X61613529Y-111401788D01*
X61606589Y-111360757D01*
X61554286Y-111051522D01*
X61554285Y-111051518D01*
X61553697Y-111048041D01*
X61454806Y-110703169D01*
X61406662Y-110586362D01*
X61319427Y-110374713D01*
X61319423Y-110374705D01*
X61318089Y-110371468D01*
X61145250Y-110057075D01*
X60938443Y-109763907D01*
X60700245Y-109495619D01*
X60433626Y-109255554D01*
X60430776Y-109253513D01*
X60430769Y-109253508D01*
X60144763Y-109048748D01*
X60144760Y-109048746D01*
X60141909Y-109046705D01*
X59828730Y-108871675D01*
X59497992Y-108732646D01*
X59494623Y-108731655D01*
X59494619Y-108731653D01*
X59342754Y-108686957D01*
X59153818Y-108631350D01*
X58870904Y-108581464D01*
X58803958Y-108569660D01*
X58803956Y-108569660D01*
X58800498Y-108569050D01*
X58796987Y-108568829D01*
X58796986Y-108568829D01*
X58445953Y-108546743D01*
X58445947Y-108546743D01*
X58442435Y-108546522D01*
X58341046Y-108551481D01*
X58087599Y-108563876D01*
X58087591Y-108563877D01*
X58084092Y-108564048D01*
X58080624Y-108564610D01*
X58080621Y-108564610D01*
X57733411Y-108620846D01*
X57733408Y-108620847D01*
X57729936Y-108621409D01*
X57726549Y-108622355D01*
X57726543Y-108622356D01*
X57442406Y-108701689D01*
X57384381Y-108717890D01*
X57218057Y-108785089D01*
X57054998Y-108850969D01*
X57054994Y-108850971D01*
X57051734Y-108852288D01*
X57048647Y-108853957D01*
X57048643Y-108853959D01*
X57012699Y-108873394D01*
X56736142Y-109022928D01*
X56441537Y-109227683D01*
X56171593Y-109464002D01*
X55929672Y-109728938D01*
X55718792Y-110019190D01*
X55541580Y-110331140D01*
X55400245Y-110660899D01*
X55296549Y-111004358D01*
X55231784Y-111357235D01*
X55206757Y-111715132D01*
X53340000Y-111715132D01*
X53340000Y-101565469D01*
X84947095Y-101565469D01*
X84947392Y-101570622D01*
X84947392Y-101570625D01*
X84960129Y-101791529D01*
X84960427Y-101796697D01*
X84961564Y-101801743D01*
X84961565Y-101801749D01*
X84976394Y-101867548D01*
X85011346Y-102022642D01*
X85013288Y-102027424D01*
X85013289Y-102027428D01*
X85096540Y-102232450D01*
X85098484Y-102237237D01*
X85219501Y-102434719D01*
X85371147Y-102609784D01*
X85549349Y-102757730D01*
X85749322Y-102874584D01*
X85754147Y-102876426D01*
X85754148Y-102876427D01*
X85767428Y-102881498D01*
X85965694Y-102957209D01*
X85970760Y-102958240D01*
X85970761Y-102958240D01*
X86023846Y-102969040D01*
X86192656Y-103003385D01*
X86322089Y-103008131D01*
X86418949Y-103011683D01*
X86418953Y-103011683D01*
X86424113Y-103011872D01*
X86429233Y-103011216D01*
X86429235Y-103011216D01*
X86503166Y-103001745D01*
X86653847Y-102982442D01*
X86658795Y-102980957D01*
X86658802Y-102980956D01*
X86870747Y-102917369D01*
X86875690Y-102915886D01*
X86880565Y-102913498D01*
X87079049Y-102816262D01*
X87079052Y-102816260D01*
X87083684Y-102813991D01*
X87272243Y-102679494D01*
X87317309Y-102634585D01*
X87379681Y-102600669D01*
X87450487Y-102605857D01*
X87507249Y-102648503D01*
X87524231Y-102679607D01*
X87549385Y-102746705D01*
X87636739Y-102863261D01*
X87753295Y-102950615D01*
X87889684Y-103001745D01*
X87951866Y-103008500D01*
X89848134Y-103008500D01*
X89910316Y-103001745D01*
X90046705Y-102950615D01*
X90163261Y-102863261D01*
X90250615Y-102746705D01*
X90301745Y-102610316D01*
X90308500Y-102548134D01*
X90308500Y-101600000D01*
X97746502Y-101600000D01*
X97766457Y-101828087D01*
X97767881Y-101833400D01*
X97767881Y-101833402D01*
X97819871Y-102027428D01*
X97825716Y-102049243D01*
X97828039Y-102054224D01*
X97828039Y-102054225D01*
X97920151Y-102251762D01*
X97920154Y-102251767D01*
X97922477Y-102256749D01*
X97925634Y-102261257D01*
X98044012Y-102430318D01*
X98053802Y-102444300D01*
X98215700Y-102606198D01*
X98220208Y-102609355D01*
X98220211Y-102609357D01*
X98298389Y-102664098D01*
X98403251Y-102737523D01*
X98408233Y-102739846D01*
X98408238Y-102739849D01*
X98567238Y-102813991D01*
X98610757Y-102834284D01*
X98616065Y-102835706D01*
X98616067Y-102835707D01*
X98826598Y-102892119D01*
X98826600Y-102892119D01*
X98831913Y-102893543D01*
X99060000Y-102913498D01*
X99288087Y-102893543D01*
X99293400Y-102892119D01*
X99293402Y-102892119D01*
X99503933Y-102835707D01*
X99503935Y-102835706D01*
X99509243Y-102834284D01*
X99552762Y-102813991D01*
X99711762Y-102739849D01*
X99711767Y-102739846D01*
X99716749Y-102737523D01*
X99821611Y-102664098D01*
X99899789Y-102609357D01*
X99899792Y-102609355D01*
X99904300Y-102606198D01*
X100066198Y-102444300D01*
X100075989Y-102430318D01*
X100194366Y-102261257D01*
X100197523Y-102256749D01*
X100199846Y-102251767D01*
X100199849Y-102251762D01*
X100216081Y-102216951D01*
X100262998Y-102163666D01*
X100331275Y-102144205D01*
X100399235Y-102164747D01*
X100444471Y-102216951D01*
X100460586Y-102251511D01*
X100466069Y-102261007D01*
X100591028Y-102439467D01*
X100598084Y-102447875D01*
X100752125Y-102601916D01*
X100760533Y-102608972D01*
X100938993Y-102733931D01*
X100948489Y-102739414D01*
X101145947Y-102831490D01*
X101156239Y-102835236D01*
X101328503Y-102881394D01*
X101342599Y-102881058D01*
X101346000Y-102873116D01*
X101346000Y-102867967D01*
X101854000Y-102867967D01*
X101857973Y-102881498D01*
X101866522Y-102882727D01*
X102043761Y-102835236D01*
X102054053Y-102831490D01*
X102251511Y-102739414D01*
X102261007Y-102733931D01*
X102439467Y-102608972D01*
X102447875Y-102601916D01*
X102601916Y-102447875D01*
X102608972Y-102439467D01*
X102733931Y-102261007D01*
X102739414Y-102251511D01*
X102831490Y-102054053D01*
X102835236Y-102043761D01*
X102881394Y-101871497D01*
X102881058Y-101857401D01*
X102873116Y-101854000D01*
X101872115Y-101854000D01*
X101856876Y-101858475D01*
X101855671Y-101859865D01*
X101854000Y-101867548D01*
X101854000Y-102867967D01*
X101346000Y-102867967D01*
X101346000Y-101327885D01*
X101854000Y-101327885D01*
X101858475Y-101343124D01*
X101859865Y-101344329D01*
X101867548Y-101346000D01*
X102867967Y-101346000D01*
X102881498Y-101342027D01*
X102882727Y-101333478D01*
X102835236Y-101156239D01*
X102831490Y-101145947D01*
X102739414Y-100948489D01*
X102733931Y-100938993D01*
X102608972Y-100760533D01*
X102601916Y-100752125D01*
X102447875Y-100598084D01*
X102439467Y-100591028D01*
X102261007Y-100466069D01*
X102251511Y-100460586D01*
X102054053Y-100368510D01*
X102043761Y-100364764D01*
X101871497Y-100318606D01*
X101857401Y-100318942D01*
X101854000Y-100326884D01*
X101854000Y-101327885D01*
X101346000Y-101327885D01*
X101346000Y-100332033D01*
X101342027Y-100318502D01*
X101333478Y-100317273D01*
X101156239Y-100364764D01*
X101145947Y-100368510D01*
X100948489Y-100460586D01*
X100938993Y-100466069D01*
X100760533Y-100591028D01*
X100752125Y-100598084D01*
X100598084Y-100752125D01*
X100591028Y-100760533D01*
X100466069Y-100938993D01*
X100460586Y-100948489D01*
X100444471Y-100983049D01*
X100397554Y-101036334D01*
X100329277Y-101055795D01*
X100261317Y-101035253D01*
X100216081Y-100983049D01*
X100199849Y-100948238D01*
X100199846Y-100948233D01*
X100197523Y-100943251D01*
X100066198Y-100755700D01*
X99904300Y-100593802D01*
X99899792Y-100590645D01*
X99899789Y-100590643D01*
X99794481Y-100516906D01*
X99716749Y-100462477D01*
X99711767Y-100460154D01*
X99711762Y-100460151D01*
X99514225Y-100368039D01*
X99514224Y-100368039D01*
X99509243Y-100365716D01*
X99503935Y-100364294D01*
X99503933Y-100364293D01*
X99293402Y-100307881D01*
X99293400Y-100307881D01*
X99288087Y-100306457D01*
X99060000Y-100286502D01*
X98831913Y-100306457D01*
X98826600Y-100307881D01*
X98826598Y-100307881D01*
X98616067Y-100364293D01*
X98616065Y-100364294D01*
X98610757Y-100365716D01*
X98605776Y-100368039D01*
X98605775Y-100368039D01*
X98408238Y-100460151D01*
X98408233Y-100460154D01*
X98403251Y-100462477D01*
X98325519Y-100516906D01*
X98220211Y-100590643D01*
X98220208Y-100590645D01*
X98215700Y-100593802D01*
X98053802Y-100755700D01*
X97922477Y-100943251D01*
X97920154Y-100948233D01*
X97920151Y-100948238D01*
X97920034Y-100948489D01*
X97825716Y-101150757D01*
X97824294Y-101156065D01*
X97824293Y-101156067D01*
X97774927Y-101340301D01*
X97766457Y-101371913D01*
X97746502Y-101600000D01*
X90308500Y-101600000D01*
X90308500Y-100651866D01*
X90301745Y-100589684D01*
X90250615Y-100453295D01*
X90163261Y-100336739D01*
X90046705Y-100249385D01*
X89910316Y-100198255D01*
X89848134Y-100191500D01*
X87951866Y-100191500D01*
X87889684Y-100198255D01*
X87753295Y-100249385D01*
X87636739Y-100336739D01*
X87549385Y-100453295D01*
X87546233Y-100461703D01*
X87546232Y-100461705D01*
X87525538Y-100516906D01*
X87482897Y-100573671D01*
X87416335Y-100598371D01*
X87346986Y-100583164D01*
X87324167Y-100566666D01*
X87323887Y-100566358D01*
X87196348Y-100465634D01*
X87146177Y-100426011D01*
X87146172Y-100426008D01*
X87142123Y-100422810D01*
X87137607Y-100420317D01*
X87137604Y-100420315D01*
X86943879Y-100313373D01*
X86943875Y-100313371D01*
X86939355Y-100310876D01*
X86934486Y-100309152D01*
X86934482Y-100309150D01*
X86725903Y-100235288D01*
X86725899Y-100235287D01*
X86721028Y-100233562D01*
X86715935Y-100232655D01*
X86715932Y-100232654D01*
X86498095Y-100193851D01*
X86498089Y-100193850D01*
X86493006Y-100192945D01*
X86420096Y-100192054D01*
X86266581Y-100190179D01*
X86266579Y-100190179D01*
X86261411Y-100190116D01*
X86032464Y-100225150D01*
X85812314Y-100297106D01*
X85807726Y-100299494D01*
X85807722Y-100299496D01*
X85611461Y-100401663D01*
X85606872Y-100404052D01*
X85602739Y-100407155D01*
X85602736Y-100407157D01*
X85425790Y-100540012D01*
X85421655Y-100543117D01*
X85261639Y-100710564D01*
X85131119Y-100901899D01*
X85033602Y-101111981D01*
X84971707Y-101335169D01*
X84947095Y-101565469D01*
X53340000Y-101565469D01*
X53340000Y-88900000D01*
X62186502Y-88900000D01*
X62206457Y-89128087D01*
X62265716Y-89349243D01*
X62268039Y-89354224D01*
X62268039Y-89354225D01*
X62360151Y-89551762D01*
X62360154Y-89551767D01*
X62362477Y-89556749D01*
X62493802Y-89744300D01*
X62655700Y-89906198D01*
X62660208Y-89909355D01*
X62660211Y-89909357D01*
X62738389Y-89964098D01*
X62843251Y-90037523D01*
X62848233Y-90039846D01*
X62848238Y-90039849D01*
X63044765Y-90131490D01*
X63050757Y-90134284D01*
X63056065Y-90135706D01*
X63056067Y-90135707D01*
X63266598Y-90192119D01*
X63266600Y-90192119D01*
X63271913Y-90193543D01*
X63500000Y-90213498D01*
X63728087Y-90193543D01*
X63733400Y-90192119D01*
X63733402Y-90192119D01*
X63943933Y-90135707D01*
X63943935Y-90135706D01*
X63949243Y-90134284D01*
X63955235Y-90131490D01*
X64151762Y-90039849D01*
X64151767Y-90039846D01*
X64156749Y-90037523D01*
X64261611Y-89964098D01*
X64339789Y-89909357D01*
X64339792Y-89909355D01*
X64344300Y-89906198D01*
X64506198Y-89744300D01*
X64637523Y-89556749D01*
X64639846Y-89551767D01*
X64639849Y-89551762D01*
X64655805Y-89517543D01*
X64702722Y-89464258D01*
X64770999Y-89444797D01*
X64838959Y-89465339D01*
X64884195Y-89517543D01*
X64900151Y-89551762D01*
X64900154Y-89551767D01*
X64902477Y-89556749D01*
X65033802Y-89744300D01*
X65195700Y-89906198D01*
X65200208Y-89909355D01*
X65200211Y-89909357D01*
X65278389Y-89964098D01*
X65383251Y-90037523D01*
X65388233Y-90039846D01*
X65388238Y-90039849D01*
X65584765Y-90131490D01*
X65590757Y-90134284D01*
X65596065Y-90135706D01*
X65596067Y-90135707D01*
X65806598Y-90192119D01*
X65806600Y-90192119D01*
X65811913Y-90193543D01*
X66040000Y-90213498D01*
X66268087Y-90193543D01*
X66273400Y-90192119D01*
X66273402Y-90192119D01*
X66483933Y-90135707D01*
X66483935Y-90135706D01*
X66489243Y-90134284D01*
X66495235Y-90131490D01*
X66691762Y-90039849D01*
X66691767Y-90039846D01*
X66696749Y-90037523D01*
X66801611Y-89964098D01*
X66879789Y-89909357D01*
X66879792Y-89909355D01*
X66884300Y-89906198D01*
X67046198Y-89744300D01*
X67177523Y-89556749D01*
X67179846Y-89551767D01*
X67179849Y-89551762D01*
X67195805Y-89517543D01*
X67242722Y-89464258D01*
X67310999Y-89444797D01*
X67378959Y-89465339D01*
X67424195Y-89517543D01*
X67440151Y-89551762D01*
X67440154Y-89551767D01*
X67442477Y-89556749D01*
X67573802Y-89744300D01*
X67735700Y-89906198D01*
X67740208Y-89909355D01*
X67740211Y-89909357D01*
X67818389Y-89964098D01*
X67923251Y-90037523D01*
X67928233Y-90039846D01*
X67928238Y-90039849D01*
X68124765Y-90131490D01*
X68130757Y-90134284D01*
X68136065Y-90135706D01*
X68136067Y-90135707D01*
X68346598Y-90192119D01*
X68346600Y-90192119D01*
X68351913Y-90193543D01*
X68580000Y-90213498D01*
X68808087Y-90193543D01*
X68813400Y-90192119D01*
X68813402Y-90192119D01*
X69023933Y-90135707D01*
X69023935Y-90135706D01*
X69029243Y-90134284D01*
X69035235Y-90131490D01*
X69231762Y-90039849D01*
X69231767Y-90039846D01*
X69236749Y-90037523D01*
X69341611Y-89964098D01*
X69419789Y-89909357D01*
X69419792Y-89909355D01*
X69424300Y-89906198D01*
X69586198Y-89744300D01*
X69717523Y-89556749D01*
X69719846Y-89551767D01*
X69719849Y-89551762D01*
X69735805Y-89517543D01*
X69782722Y-89464258D01*
X69850999Y-89444797D01*
X69918959Y-89465339D01*
X69964195Y-89517543D01*
X69980151Y-89551762D01*
X69980154Y-89551767D01*
X69982477Y-89556749D01*
X70113802Y-89744300D01*
X70275700Y-89906198D01*
X70280208Y-89909355D01*
X70280211Y-89909357D01*
X70358389Y-89964098D01*
X70463251Y-90037523D01*
X70468233Y-90039846D01*
X70468238Y-90039849D01*
X70664765Y-90131490D01*
X70670757Y-90134284D01*
X70676065Y-90135706D01*
X70676067Y-90135707D01*
X70886598Y-90192119D01*
X70886600Y-90192119D01*
X70891913Y-90193543D01*
X71120000Y-90213498D01*
X71348087Y-90193543D01*
X71353400Y-90192119D01*
X71353402Y-90192119D01*
X71563933Y-90135707D01*
X71563935Y-90135706D01*
X71569243Y-90134284D01*
X71575235Y-90131490D01*
X71771762Y-90039849D01*
X71771767Y-90039846D01*
X71776749Y-90037523D01*
X71881611Y-89964098D01*
X71959789Y-89909357D01*
X71959792Y-89909355D01*
X71964300Y-89906198D01*
X72126198Y-89744300D01*
X72257523Y-89556749D01*
X72259846Y-89551767D01*
X72259849Y-89551762D01*
X72275805Y-89517543D01*
X72322722Y-89464258D01*
X72390999Y-89444797D01*
X72458959Y-89465339D01*
X72504195Y-89517543D01*
X72520151Y-89551762D01*
X72520154Y-89551767D01*
X72522477Y-89556749D01*
X72653802Y-89744300D01*
X72815700Y-89906198D01*
X72820208Y-89909355D01*
X72820211Y-89909357D01*
X72898389Y-89964098D01*
X73003251Y-90037523D01*
X73008233Y-90039846D01*
X73008238Y-90039849D01*
X73204765Y-90131490D01*
X73210757Y-90134284D01*
X73216065Y-90135706D01*
X73216067Y-90135707D01*
X73426598Y-90192119D01*
X73426600Y-90192119D01*
X73431913Y-90193543D01*
X73660000Y-90213498D01*
X73888087Y-90193543D01*
X73893400Y-90192119D01*
X73893402Y-90192119D01*
X74103933Y-90135707D01*
X74103935Y-90135706D01*
X74109243Y-90134284D01*
X74115235Y-90131490D01*
X74311762Y-90039849D01*
X74311767Y-90039846D01*
X74316749Y-90037523D01*
X74421611Y-89964098D01*
X74499789Y-89909357D01*
X74499792Y-89909355D01*
X74504300Y-89906198D01*
X74666198Y-89744300D01*
X74797523Y-89556749D01*
X74799846Y-89551767D01*
X74799849Y-89551762D01*
X74815805Y-89517543D01*
X74862722Y-89464258D01*
X74930999Y-89444797D01*
X74998959Y-89465339D01*
X75044195Y-89517543D01*
X75060151Y-89551762D01*
X75060154Y-89551767D01*
X75062477Y-89556749D01*
X75193802Y-89744300D01*
X75355700Y-89906198D01*
X75360208Y-89909355D01*
X75360211Y-89909357D01*
X75438389Y-89964098D01*
X75543251Y-90037523D01*
X75548233Y-90039846D01*
X75548238Y-90039849D01*
X75744765Y-90131490D01*
X75750757Y-90134284D01*
X75756065Y-90135706D01*
X75756067Y-90135707D01*
X75966598Y-90192119D01*
X75966600Y-90192119D01*
X75971913Y-90193543D01*
X76200000Y-90213498D01*
X76428087Y-90193543D01*
X76433400Y-90192119D01*
X76433402Y-90192119D01*
X76643933Y-90135707D01*
X76643935Y-90135706D01*
X76649243Y-90134284D01*
X76655235Y-90131490D01*
X76851762Y-90039849D01*
X76851767Y-90039846D01*
X76856749Y-90037523D01*
X76961611Y-89964098D01*
X77039789Y-89909357D01*
X77039792Y-89909355D01*
X77044300Y-89906198D01*
X77206198Y-89744300D01*
X77337523Y-89556749D01*
X77339846Y-89551767D01*
X77339849Y-89551762D01*
X77355805Y-89517543D01*
X77402722Y-89464258D01*
X77470999Y-89444797D01*
X77538959Y-89465339D01*
X77584195Y-89517543D01*
X77600151Y-89551762D01*
X77600154Y-89551767D01*
X77602477Y-89556749D01*
X77733802Y-89744300D01*
X77895700Y-89906198D01*
X77900208Y-89909355D01*
X77900211Y-89909357D01*
X77978389Y-89964098D01*
X78083251Y-90037523D01*
X78088233Y-90039846D01*
X78088238Y-90039849D01*
X78284765Y-90131490D01*
X78290757Y-90134284D01*
X78296065Y-90135706D01*
X78296067Y-90135707D01*
X78506598Y-90192119D01*
X78506600Y-90192119D01*
X78511913Y-90193543D01*
X78740000Y-90213498D01*
X78968087Y-90193543D01*
X78973400Y-90192119D01*
X78973402Y-90192119D01*
X79183933Y-90135707D01*
X79183935Y-90135706D01*
X79189243Y-90134284D01*
X79195235Y-90131490D01*
X79391762Y-90039849D01*
X79391767Y-90039846D01*
X79396749Y-90037523D01*
X79501611Y-89964098D01*
X79579789Y-89909357D01*
X79579792Y-89909355D01*
X79584300Y-89906198D01*
X79746198Y-89744300D01*
X79877523Y-89556749D01*
X79879846Y-89551767D01*
X79879849Y-89551762D01*
X79895805Y-89517543D01*
X79942722Y-89464258D01*
X80010999Y-89444797D01*
X80078959Y-89465339D01*
X80124195Y-89517543D01*
X80140151Y-89551762D01*
X80140154Y-89551767D01*
X80142477Y-89556749D01*
X80273802Y-89744300D01*
X80435700Y-89906198D01*
X80440208Y-89909355D01*
X80440211Y-89909357D01*
X80518389Y-89964098D01*
X80623251Y-90037523D01*
X80628233Y-90039846D01*
X80628238Y-90039849D01*
X80824765Y-90131490D01*
X80830757Y-90134284D01*
X80836065Y-90135706D01*
X80836067Y-90135707D01*
X81046598Y-90192119D01*
X81046600Y-90192119D01*
X81051913Y-90193543D01*
X81280000Y-90213498D01*
X81508087Y-90193543D01*
X81513400Y-90192119D01*
X81513402Y-90192119D01*
X81723933Y-90135707D01*
X81723935Y-90135706D01*
X81729243Y-90134284D01*
X81735235Y-90131490D01*
X81931762Y-90039849D01*
X81931767Y-90039846D01*
X81936749Y-90037523D01*
X82041611Y-89964098D01*
X82119789Y-89909357D01*
X82119792Y-89909355D01*
X82124300Y-89906198D01*
X82286198Y-89744300D01*
X82417523Y-89556749D01*
X82419846Y-89551767D01*
X82419849Y-89551762D01*
X82435805Y-89517543D01*
X82482722Y-89464258D01*
X82550999Y-89444797D01*
X82618959Y-89465339D01*
X82664195Y-89517543D01*
X82680151Y-89551762D01*
X82680154Y-89551767D01*
X82682477Y-89556749D01*
X82813802Y-89744300D01*
X82975700Y-89906198D01*
X82980208Y-89909355D01*
X82980211Y-89909357D01*
X83058389Y-89964098D01*
X83163251Y-90037523D01*
X83168233Y-90039846D01*
X83168238Y-90039849D01*
X83364765Y-90131490D01*
X83370757Y-90134284D01*
X83376065Y-90135706D01*
X83376067Y-90135707D01*
X83586598Y-90192119D01*
X83586600Y-90192119D01*
X83591913Y-90193543D01*
X83820000Y-90213498D01*
X84048087Y-90193543D01*
X84053400Y-90192119D01*
X84053402Y-90192119D01*
X84263933Y-90135707D01*
X84263935Y-90135706D01*
X84269243Y-90134284D01*
X84275235Y-90131490D01*
X84471762Y-90039849D01*
X84471767Y-90039846D01*
X84476749Y-90037523D01*
X84581611Y-89964098D01*
X84659789Y-89909357D01*
X84659792Y-89909355D01*
X84664300Y-89906198D01*
X84826198Y-89744300D01*
X84957523Y-89556749D01*
X84959846Y-89551767D01*
X84959849Y-89551762D01*
X84975805Y-89517543D01*
X85022722Y-89464258D01*
X85090999Y-89444797D01*
X85158959Y-89465339D01*
X85204195Y-89517543D01*
X85220151Y-89551762D01*
X85220154Y-89551767D01*
X85222477Y-89556749D01*
X85353802Y-89744300D01*
X85515700Y-89906198D01*
X85520208Y-89909355D01*
X85520211Y-89909357D01*
X85598389Y-89964098D01*
X85703251Y-90037523D01*
X85708233Y-90039846D01*
X85708238Y-90039849D01*
X85904765Y-90131490D01*
X85910757Y-90134284D01*
X85916065Y-90135706D01*
X85916067Y-90135707D01*
X86126598Y-90192119D01*
X86126600Y-90192119D01*
X86131913Y-90193543D01*
X86360000Y-90213498D01*
X86588087Y-90193543D01*
X86593400Y-90192119D01*
X86593402Y-90192119D01*
X86803933Y-90135707D01*
X86803935Y-90135706D01*
X86809243Y-90134284D01*
X86815235Y-90131490D01*
X87011762Y-90039849D01*
X87011767Y-90039846D01*
X87016749Y-90037523D01*
X87121611Y-89964098D01*
X87199789Y-89909357D01*
X87199792Y-89909355D01*
X87204300Y-89906198D01*
X87366198Y-89744300D01*
X87497523Y-89556749D01*
X87499846Y-89551767D01*
X87499849Y-89551762D01*
X87515805Y-89517543D01*
X87562722Y-89464258D01*
X87630999Y-89444797D01*
X87698959Y-89465339D01*
X87744195Y-89517543D01*
X87760151Y-89551762D01*
X87760154Y-89551767D01*
X87762477Y-89556749D01*
X87893802Y-89744300D01*
X88055700Y-89906198D01*
X88060208Y-89909355D01*
X88060211Y-89909357D01*
X88138389Y-89964098D01*
X88243251Y-90037523D01*
X88248233Y-90039846D01*
X88248238Y-90039849D01*
X88444765Y-90131490D01*
X88450757Y-90134284D01*
X88456065Y-90135706D01*
X88456067Y-90135707D01*
X88666598Y-90192119D01*
X88666600Y-90192119D01*
X88671913Y-90193543D01*
X88900000Y-90213498D01*
X89128087Y-90193543D01*
X89133400Y-90192119D01*
X89133402Y-90192119D01*
X89343933Y-90135707D01*
X89343935Y-90135706D01*
X89349243Y-90134284D01*
X89355235Y-90131490D01*
X89551762Y-90039849D01*
X89551767Y-90039846D01*
X89556749Y-90037523D01*
X89661611Y-89964098D01*
X89739789Y-89909357D01*
X89739792Y-89909355D01*
X89744300Y-89906198D01*
X89906198Y-89744300D01*
X90037523Y-89556749D01*
X90039846Y-89551767D01*
X90039849Y-89551762D01*
X90055805Y-89517543D01*
X90102722Y-89464258D01*
X90170999Y-89444797D01*
X90238959Y-89465339D01*
X90284195Y-89517543D01*
X90300151Y-89551762D01*
X90300154Y-89551767D01*
X90302477Y-89556749D01*
X90433802Y-89744300D01*
X90595700Y-89906198D01*
X90600208Y-89909355D01*
X90600211Y-89909357D01*
X90678389Y-89964098D01*
X90783251Y-90037523D01*
X90788233Y-90039846D01*
X90788238Y-90039849D01*
X90984765Y-90131490D01*
X90990757Y-90134284D01*
X90996065Y-90135706D01*
X90996067Y-90135707D01*
X91206598Y-90192119D01*
X91206600Y-90192119D01*
X91211913Y-90193543D01*
X91440000Y-90213498D01*
X91668087Y-90193543D01*
X91673400Y-90192119D01*
X91673402Y-90192119D01*
X91883933Y-90135707D01*
X91883935Y-90135706D01*
X91889243Y-90134284D01*
X91895235Y-90131490D01*
X92091762Y-90039849D01*
X92091767Y-90039846D01*
X92096749Y-90037523D01*
X92201611Y-89964098D01*
X92279789Y-89909357D01*
X92279792Y-89909355D01*
X92284300Y-89906198D01*
X92446198Y-89744300D01*
X92577523Y-89556749D01*
X92579846Y-89551767D01*
X92579849Y-89551762D01*
X92595805Y-89517543D01*
X92642722Y-89464258D01*
X92710999Y-89444797D01*
X92778959Y-89465339D01*
X92824195Y-89517543D01*
X92840151Y-89551762D01*
X92840154Y-89551767D01*
X92842477Y-89556749D01*
X92973802Y-89744300D01*
X93135700Y-89906198D01*
X93140208Y-89909355D01*
X93140211Y-89909357D01*
X93218389Y-89964098D01*
X93323251Y-90037523D01*
X93328233Y-90039846D01*
X93328238Y-90039849D01*
X93524765Y-90131490D01*
X93530757Y-90134284D01*
X93536065Y-90135706D01*
X93536067Y-90135707D01*
X93746598Y-90192119D01*
X93746600Y-90192119D01*
X93751913Y-90193543D01*
X93980000Y-90213498D01*
X94208087Y-90193543D01*
X94213400Y-90192119D01*
X94213402Y-90192119D01*
X94423933Y-90135707D01*
X94423935Y-90135706D01*
X94429243Y-90134284D01*
X94435235Y-90131490D01*
X94631762Y-90039849D01*
X94631767Y-90039846D01*
X94636749Y-90037523D01*
X94741611Y-89964098D01*
X94819789Y-89909357D01*
X94819792Y-89909355D01*
X94824300Y-89906198D01*
X94986198Y-89744300D01*
X95117523Y-89556749D01*
X95119846Y-89551767D01*
X95119849Y-89551762D01*
X95136081Y-89516951D01*
X95182998Y-89463666D01*
X95251275Y-89444205D01*
X95319235Y-89464747D01*
X95364471Y-89516951D01*
X95380586Y-89551511D01*
X95386069Y-89561007D01*
X95511028Y-89739467D01*
X95518084Y-89747875D01*
X95672125Y-89901916D01*
X95680533Y-89908972D01*
X95858993Y-90033931D01*
X95868489Y-90039414D01*
X96065947Y-90131490D01*
X96076239Y-90135236D01*
X96248503Y-90181394D01*
X96262599Y-90181058D01*
X96266000Y-90173116D01*
X96266000Y-90167967D01*
X96774000Y-90167967D01*
X96777973Y-90181498D01*
X96786522Y-90182727D01*
X96963761Y-90135236D01*
X96974053Y-90131490D01*
X97171511Y-90039414D01*
X97181007Y-90033931D01*
X97359467Y-89908972D01*
X97367875Y-89901916D01*
X97521916Y-89747875D01*
X97528972Y-89739467D01*
X97653931Y-89561007D01*
X97659414Y-89551511D01*
X97675529Y-89516951D01*
X97722446Y-89463666D01*
X97790723Y-89444205D01*
X97858683Y-89464747D01*
X97903919Y-89516951D01*
X97920151Y-89551762D01*
X97920154Y-89551767D01*
X97922477Y-89556749D01*
X98053802Y-89744300D01*
X98215700Y-89906198D01*
X98220208Y-89909355D01*
X98220211Y-89909357D01*
X98298389Y-89964098D01*
X98403251Y-90037523D01*
X98408233Y-90039846D01*
X98408238Y-90039849D01*
X98604765Y-90131490D01*
X98610757Y-90134284D01*
X98616065Y-90135706D01*
X98616067Y-90135707D01*
X98826598Y-90192119D01*
X98826600Y-90192119D01*
X98831913Y-90193543D01*
X99060000Y-90213498D01*
X99288087Y-90193543D01*
X99293400Y-90192119D01*
X99293402Y-90192119D01*
X99503933Y-90135707D01*
X99503935Y-90135706D01*
X99509243Y-90134284D01*
X99515235Y-90131490D01*
X99711762Y-90039849D01*
X99711767Y-90039846D01*
X99716749Y-90037523D01*
X99821611Y-89964098D01*
X99899789Y-89909357D01*
X99899792Y-89909355D01*
X99904300Y-89906198D01*
X100066198Y-89744300D01*
X100197523Y-89556749D01*
X100199846Y-89551767D01*
X100199849Y-89551762D01*
X100291961Y-89354225D01*
X100291961Y-89354224D01*
X100294284Y-89349243D01*
X100353543Y-89128087D01*
X100373498Y-88900000D01*
X100353543Y-88671913D01*
X100294284Y-88450757D01*
X100199966Y-88248489D01*
X100199849Y-88248238D01*
X100199846Y-88248233D01*
X100197523Y-88243251D01*
X100066198Y-88055700D01*
X99904300Y-87893802D01*
X99899792Y-87890645D01*
X99899789Y-87890643D01*
X99821611Y-87835902D01*
X99716749Y-87762477D01*
X99711767Y-87760154D01*
X99711762Y-87760151D01*
X99514225Y-87668039D01*
X99514224Y-87668039D01*
X99509243Y-87665716D01*
X99503935Y-87664294D01*
X99503933Y-87664293D01*
X99293402Y-87607881D01*
X99293400Y-87607881D01*
X99288087Y-87606457D01*
X99060000Y-87586502D01*
X98831913Y-87606457D01*
X98826600Y-87607881D01*
X98826598Y-87607881D01*
X98616067Y-87664293D01*
X98616065Y-87664294D01*
X98610757Y-87665716D01*
X98605776Y-87668039D01*
X98605775Y-87668039D01*
X98408238Y-87760151D01*
X98408233Y-87760154D01*
X98403251Y-87762477D01*
X98298389Y-87835902D01*
X98220211Y-87890643D01*
X98220208Y-87890645D01*
X98215700Y-87893802D01*
X98053802Y-88055700D01*
X97922477Y-88243251D01*
X97920154Y-88248233D01*
X97920151Y-88248238D01*
X97903919Y-88283049D01*
X97857002Y-88336334D01*
X97788725Y-88355795D01*
X97720765Y-88335253D01*
X97675529Y-88283049D01*
X97659414Y-88248489D01*
X97653931Y-88238993D01*
X97528972Y-88060533D01*
X97521916Y-88052125D01*
X97367875Y-87898084D01*
X97359467Y-87891028D01*
X97181007Y-87766069D01*
X97171511Y-87760586D01*
X96974053Y-87668510D01*
X96963761Y-87664764D01*
X96791497Y-87618606D01*
X96777401Y-87618942D01*
X96774000Y-87626884D01*
X96774000Y-90167967D01*
X96266000Y-90167967D01*
X96266000Y-87632033D01*
X96262027Y-87618502D01*
X96253478Y-87617273D01*
X96076239Y-87664764D01*
X96065947Y-87668510D01*
X95868489Y-87760586D01*
X95858993Y-87766069D01*
X95680533Y-87891028D01*
X95672125Y-87898084D01*
X95518084Y-88052125D01*
X95511028Y-88060533D01*
X95386069Y-88238993D01*
X95380586Y-88248489D01*
X95364471Y-88283049D01*
X95317554Y-88336334D01*
X95249277Y-88355795D01*
X95181317Y-88335253D01*
X95136081Y-88283049D01*
X95119849Y-88248238D01*
X95119846Y-88248233D01*
X95117523Y-88243251D01*
X94986198Y-88055700D01*
X94824300Y-87893802D01*
X94819792Y-87890645D01*
X94819789Y-87890643D01*
X94741611Y-87835902D01*
X94636749Y-87762477D01*
X94631767Y-87760154D01*
X94631762Y-87760151D01*
X94434225Y-87668039D01*
X94434224Y-87668039D01*
X94429243Y-87665716D01*
X94423935Y-87664294D01*
X94423933Y-87664293D01*
X94213402Y-87607881D01*
X94213400Y-87607881D01*
X94208087Y-87606457D01*
X93980000Y-87586502D01*
X93751913Y-87606457D01*
X93746600Y-87607881D01*
X93746598Y-87607881D01*
X93536067Y-87664293D01*
X93536065Y-87664294D01*
X93530757Y-87665716D01*
X93525776Y-87668039D01*
X93525775Y-87668039D01*
X93328238Y-87760151D01*
X93328233Y-87760154D01*
X93323251Y-87762477D01*
X93218389Y-87835902D01*
X93140211Y-87890643D01*
X93140208Y-87890645D01*
X93135700Y-87893802D01*
X92973802Y-88055700D01*
X92842477Y-88243251D01*
X92840154Y-88248233D01*
X92840151Y-88248238D01*
X92824195Y-88282457D01*
X92777278Y-88335742D01*
X92709001Y-88355203D01*
X92641041Y-88334661D01*
X92595805Y-88282457D01*
X92579849Y-88248238D01*
X92579846Y-88248233D01*
X92577523Y-88243251D01*
X92446198Y-88055700D01*
X92284300Y-87893802D01*
X92279792Y-87890645D01*
X92279789Y-87890643D01*
X92201611Y-87835902D01*
X92096749Y-87762477D01*
X92091767Y-87760154D01*
X92091762Y-87760151D01*
X91894225Y-87668039D01*
X91894224Y-87668039D01*
X91889243Y-87665716D01*
X91883935Y-87664294D01*
X91883933Y-87664293D01*
X91673402Y-87607881D01*
X91673400Y-87607881D01*
X91668087Y-87606457D01*
X91440000Y-87586502D01*
X91211913Y-87606457D01*
X91206600Y-87607881D01*
X91206598Y-87607881D01*
X90996067Y-87664293D01*
X90996065Y-87664294D01*
X90990757Y-87665716D01*
X90985776Y-87668039D01*
X90985775Y-87668039D01*
X90788238Y-87760151D01*
X90788233Y-87760154D01*
X90783251Y-87762477D01*
X90678389Y-87835902D01*
X90600211Y-87890643D01*
X90600208Y-87890645D01*
X90595700Y-87893802D01*
X90433802Y-88055700D01*
X90302477Y-88243251D01*
X90300154Y-88248233D01*
X90300151Y-88248238D01*
X90284195Y-88282457D01*
X90237278Y-88335742D01*
X90169001Y-88355203D01*
X90101041Y-88334661D01*
X90055805Y-88282457D01*
X90039849Y-88248238D01*
X90039846Y-88248233D01*
X90037523Y-88243251D01*
X89906198Y-88055700D01*
X89744300Y-87893802D01*
X89739792Y-87890645D01*
X89739789Y-87890643D01*
X89661611Y-87835902D01*
X89556749Y-87762477D01*
X89551767Y-87760154D01*
X89551762Y-87760151D01*
X89354225Y-87668039D01*
X89354224Y-87668039D01*
X89349243Y-87665716D01*
X89343935Y-87664294D01*
X89343933Y-87664293D01*
X89133402Y-87607881D01*
X89133400Y-87607881D01*
X89128087Y-87606457D01*
X88900000Y-87586502D01*
X88671913Y-87606457D01*
X88666600Y-87607881D01*
X88666598Y-87607881D01*
X88456067Y-87664293D01*
X88456065Y-87664294D01*
X88450757Y-87665716D01*
X88445776Y-87668039D01*
X88445775Y-87668039D01*
X88248238Y-87760151D01*
X88248233Y-87760154D01*
X88243251Y-87762477D01*
X88138389Y-87835902D01*
X88060211Y-87890643D01*
X88060208Y-87890645D01*
X88055700Y-87893802D01*
X87893802Y-88055700D01*
X87762477Y-88243251D01*
X87760154Y-88248233D01*
X87760151Y-88248238D01*
X87744195Y-88282457D01*
X87697278Y-88335742D01*
X87629001Y-88355203D01*
X87561041Y-88334661D01*
X87515805Y-88282457D01*
X87499849Y-88248238D01*
X87499846Y-88248233D01*
X87497523Y-88243251D01*
X87366198Y-88055700D01*
X87204300Y-87893802D01*
X87199792Y-87890645D01*
X87199789Y-87890643D01*
X87121611Y-87835902D01*
X87016749Y-87762477D01*
X87011767Y-87760154D01*
X87011762Y-87760151D01*
X86814225Y-87668039D01*
X86814224Y-87668039D01*
X86809243Y-87665716D01*
X86803935Y-87664294D01*
X86803933Y-87664293D01*
X86593402Y-87607881D01*
X86593400Y-87607881D01*
X86588087Y-87606457D01*
X86360000Y-87586502D01*
X86131913Y-87606457D01*
X86126600Y-87607881D01*
X86126598Y-87607881D01*
X85916067Y-87664293D01*
X85916065Y-87664294D01*
X85910757Y-87665716D01*
X85905776Y-87668039D01*
X85905775Y-87668039D01*
X85708238Y-87760151D01*
X85708233Y-87760154D01*
X85703251Y-87762477D01*
X85598389Y-87835902D01*
X85520211Y-87890643D01*
X85520208Y-87890645D01*
X85515700Y-87893802D01*
X85353802Y-88055700D01*
X85222477Y-88243251D01*
X85220154Y-88248233D01*
X85220151Y-88248238D01*
X85204195Y-88282457D01*
X85157278Y-88335742D01*
X85089001Y-88355203D01*
X85021041Y-88334661D01*
X84975805Y-88282457D01*
X84959849Y-88248238D01*
X84959846Y-88248233D01*
X84957523Y-88243251D01*
X84826198Y-88055700D01*
X84664300Y-87893802D01*
X84659792Y-87890645D01*
X84659789Y-87890643D01*
X84581611Y-87835902D01*
X84476749Y-87762477D01*
X84471767Y-87760154D01*
X84471762Y-87760151D01*
X84274225Y-87668039D01*
X84274224Y-87668039D01*
X84269243Y-87665716D01*
X84263935Y-87664294D01*
X84263933Y-87664293D01*
X84053402Y-87607881D01*
X84053400Y-87607881D01*
X84048087Y-87606457D01*
X83820000Y-87586502D01*
X83591913Y-87606457D01*
X83586600Y-87607881D01*
X83586598Y-87607881D01*
X83376067Y-87664293D01*
X83376065Y-87664294D01*
X83370757Y-87665716D01*
X83365776Y-87668039D01*
X83365775Y-87668039D01*
X83168238Y-87760151D01*
X83168233Y-87760154D01*
X83163251Y-87762477D01*
X83058389Y-87835902D01*
X82980211Y-87890643D01*
X82980208Y-87890645D01*
X82975700Y-87893802D01*
X82813802Y-88055700D01*
X82682477Y-88243251D01*
X82680154Y-88248233D01*
X82680151Y-88248238D01*
X82664195Y-88282457D01*
X82617278Y-88335742D01*
X82549001Y-88355203D01*
X82481041Y-88334661D01*
X82435805Y-88282457D01*
X82419849Y-88248238D01*
X82419846Y-88248233D01*
X82417523Y-88243251D01*
X82286198Y-88055700D01*
X82124300Y-87893802D01*
X82119792Y-87890645D01*
X82119789Y-87890643D01*
X82041611Y-87835902D01*
X81936749Y-87762477D01*
X81931767Y-87760154D01*
X81931762Y-87760151D01*
X81734225Y-87668039D01*
X81734224Y-87668039D01*
X81729243Y-87665716D01*
X81723935Y-87664294D01*
X81723933Y-87664293D01*
X81513402Y-87607881D01*
X81513400Y-87607881D01*
X81508087Y-87606457D01*
X81280000Y-87586502D01*
X81051913Y-87606457D01*
X81046600Y-87607881D01*
X81046598Y-87607881D01*
X80836067Y-87664293D01*
X80836065Y-87664294D01*
X80830757Y-87665716D01*
X80825776Y-87668039D01*
X80825775Y-87668039D01*
X80628238Y-87760151D01*
X80628233Y-87760154D01*
X80623251Y-87762477D01*
X80518389Y-87835902D01*
X80440211Y-87890643D01*
X80440208Y-87890645D01*
X80435700Y-87893802D01*
X80273802Y-88055700D01*
X80142477Y-88243251D01*
X80140154Y-88248233D01*
X80140151Y-88248238D01*
X80124195Y-88282457D01*
X80077278Y-88335742D01*
X80009001Y-88355203D01*
X79941041Y-88334661D01*
X79895805Y-88282457D01*
X79879849Y-88248238D01*
X79879846Y-88248233D01*
X79877523Y-88243251D01*
X79746198Y-88055700D01*
X79584300Y-87893802D01*
X79579792Y-87890645D01*
X79579789Y-87890643D01*
X79501611Y-87835902D01*
X79396749Y-87762477D01*
X79391767Y-87760154D01*
X79391762Y-87760151D01*
X79194225Y-87668039D01*
X79194224Y-87668039D01*
X79189243Y-87665716D01*
X79183935Y-87664294D01*
X79183933Y-87664293D01*
X78973402Y-87607881D01*
X78973400Y-87607881D01*
X78968087Y-87606457D01*
X78740000Y-87586502D01*
X78511913Y-87606457D01*
X78506600Y-87607881D01*
X78506598Y-87607881D01*
X78296067Y-87664293D01*
X78296065Y-87664294D01*
X78290757Y-87665716D01*
X78285776Y-87668039D01*
X78285775Y-87668039D01*
X78088238Y-87760151D01*
X78088233Y-87760154D01*
X78083251Y-87762477D01*
X77978389Y-87835902D01*
X77900211Y-87890643D01*
X77900208Y-87890645D01*
X77895700Y-87893802D01*
X77733802Y-88055700D01*
X77602477Y-88243251D01*
X77600154Y-88248233D01*
X77600151Y-88248238D01*
X77584195Y-88282457D01*
X77537278Y-88335742D01*
X77469001Y-88355203D01*
X77401041Y-88334661D01*
X77355805Y-88282457D01*
X77339849Y-88248238D01*
X77339846Y-88248233D01*
X77337523Y-88243251D01*
X77206198Y-88055700D01*
X77044300Y-87893802D01*
X77039792Y-87890645D01*
X77039789Y-87890643D01*
X76961611Y-87835902D01*
X76856749Y-87762477D01*
X76851767Y-87760154D01*
X76851762Y-87760151D01*
X76654225Y-87668039D01*
X76654224Y-87668039D01*
X76649243Y-87665716D01*
X76643935Y-87664294D01*
X76643933Y-87664293D01*
X76433402Y-87607881D01*
X76433400Y-87607881D01*
X76428087Y-87606457D01*
X76200000Y-87586502D01*
X75971913Y-87606457D01*
X75966600Y-87607881D01*
X75966598Y-87607881D01*
X75756067Y-87664293D01*
X75756065Y-87664294D01*
X75750757Y-87665716D01*
X75745776Y-87668039D01*
X75745775Y-87668039D01*
X75548238Y-87760151D01*
X75548233Y-87760154D01*
X75543251Y-87762477D01*
X75438389Y-87835902D01*
X75360211Y-87890643D01*
X75360208Y-87890645D01*
X75355700Y-87893802D01*
X75193802Y-88055700D01*
X75062477Y-88243251D01*
X75060154Y-88248233D01*
X75060151Y-88248238D01*
X75044195Y-88282457D01*
X74997278Y-88335742D01*
X74929001Y-88355203D01*
X74861041Y-88334661D01*
X74815805Y-88282457D01*
X74799849Y-88248238D01*
X74799846Y-88248233D01*
X74797523Y-88243251D01*
X74666198Y-88055700D01*
X74504300Y-87893802D01*
X74499792Y-87890645D01*
X74499789Y-87890643D01*
X74421611Y-87835902D01*
X74316749Y-87762477D01*
X74311767Y-87760154D01*
X74311762Y-87760151D01*
X74114225Y-87668039D01*
X74114224Y-87668039D01*
X74109243Y-87665716D01*
X74103935Y-87664294D01*
X74103933Y-87664293D01*
X73893402Y-87607881D01*
X73893400Y-87607881D01*
X73888087Y-87606457D01*
X73660000Y-87586502D01*
X73431913Y-87606457D01*
X73426600Y-87607881D01*
X73426598Y-87607881D01*
X73216067Y-87664293D01*
X73216065Y-87664294D01*
X73210757Y-87665716D01*
X73205776Y-87668039D01*
X73205775Y-87668039D01*
X73008238Y-87760151D01*
X73008233Y-87760154D01*
X73003251Y-87762477D01*
X72898389Y-87835902D01*
X72820211Y-87890643D01*
X72820208Y-87890645D01*
X72815700Y-87893802D01*
X72653802Y-88055700D01*
X72522477Y-88243251D01*
X72520154Y-88248233D01*
X72520151Y-88248238D01*
X72504195Y-88282457D01*
X72457278Y-88335742D01*
X72389001Y-88355203D01*
X72321041Y-88334661D01*
X72275805Y-88282457D01*
X72259849Y-88248238D01*
X72259846Y-88248233D01*
X72257523Y-88243251D01*
X72126198Y-88055700D01*
X71964300Y-87893802D01*
X71959792Y-87890645D01*
X71959789Y-87890643D01*
X71881611Y-87835902D01*
X71776749Y-87762477D01*
X71771767Y-87760154D01*
X71771762Y-87760151D01*
X71574225Y-87668039D01*
X71574224Y-87668039D01*
X71569243Y-87665716D01*
X71563935Y-87664294D01*
X71563933Y-87664293D01*
X71353402Y-87607881D01*
X71353400Y-87607881D01*
X71348087Y-87606457D01*
X71120000Y-87586502D01*
X70891913Y-87606457D01*
X70886600Y-87607881D01*
X70886598Y-87607881D01*
X70676067Y-87664293D01*
X70676065Y-87664294D01*
X70670757Y-87665716D01*
X70665776Y-87668039D01*
X70665775Y-87668039D01*
X70468238Y-87760151D01*
X70468233Y-87760154D01*
X70463251Y-87762477D01*
X70358389Y-87835902D01*
X70280211Y-87890643D01*
X70280208Y-87890645D01*
X70275700Y-87893802D01*
X70113802Y-88055700D01*
X69982477Y-88243251D01*
X69980154Y-88248233D01*
X69980151Y-88248238D01*
X69964195Y-88282457D01*
X69917278Y-88335742D01*
X69849001Y-88355203D01*
X69781041Y-88334661D01*
X69735805Y-88282457D01*
X69719849Y-88248238D01*
X69719846Y-88248233D01*
X69717523Y-88243251D01*
X69586198Y-88055700D01*
X69424300Y-87893802D01*
X69419792Y-87890645D01*
X69419789Y-87890643D01*
X69341611Y-87835902D01*
X69236749Y-87762477D01*
X69231767Y-87760154D01*
X69231762Y-87760151D01*
X69034225Y-87668039D01*
X69034224Y-87668039D01*
X69029243Y-87665716D01*
X69023935Y-87664294D01*
X69023933Y-87664293D01*
X68813402Y-87607881D01*
X68813400Y-87607881D01*
X68808087Y-87606457D01*
X68580000Y-87586502D01*
X68351913Y-87606457D01*
X68346600Y-87607881D01*
X68346598Y-87607881D01*
X68136067Y-87664293D01*
X68136065Y-87664294D01*
X68130757Y-87665716D01*
X68125776Y-87668039D01*
X68125775Y-87668039D01*
X67928238Y-87760151D01*
X67928233Y-87760154D01*
X67923251Y-87762477D01*
X67818389Y-87835902D01*
X67740211Y-87890643D01*
X67740208Y-87890645D01*
X67735700Y-87893802D01*
X67573802Y-88055700D01*
X67442477Y-88243251D01*
X67440154Y-88248233D01*
X67440151Y-88248238D01*
X67424195Y-88282457D01*
X67377278Y-88335742D01*
X67309001Y-88355203D01*
X67241041Y-88334661D01*
X67195805Y-88282457D01*
X67179849Y-88248238D01*
X67179846Y-88248233D01*
X67177523Y-88243251D01*
X67046198Y-88055700D01*
X66884300Y-87893802D01*
X66879792Y-87890645D01*
X66879789Y-87890643D01*
X66801611Y-87835902D01*
X66696749Y-87762477D01*
X66691767Y-87760154D01*
X66691762Y-87760151D01*
X66494225Y-87668039D01*
X66494224Y-87668039D01*
X66489243Y-87665716D01*
X66483935Y-87664294D01*
X66483933Y-87664293D01*
X66273402Y-87607881D01*
X66273400Y-87607881D01*
X66268087Y-87606457D01*
X66040000Y-87586502D01*
X65811913Y-87606457D01*
X65806600Y-87607881D01*
X65806598Y-87607881D01*
X65596067Y-87664293D01*
X65596065Y-87664294D01*
X65590757Y-87665716D01*
X65585776Y-87668039D01*
X65585775Y-87668039D01*
X65388238Y-87760151D01*
X65388233Y-87760154D01*
X65383251Y-87762477D01*
X65278389Y-87835902D01*
X65200211Y-87890643D01*
X65200208Y-87890645D01*
X65195700Y-87893802D01*
X65033802Y-88055700D01*
X64902477Y-88243251D01*
X64900154Y-88248233D01*
X64900151Y-88248238D01*
X64884195Y-88282457D01*
X64837278Y-88335742D01*
X64769001Y-88355203D01*
X64701041Y-88334661D01*
X64655805Y-88282457D01*
X64639849Y-88248238D01*
X64639846Y-88248233D01*
X64637523Y-88243251D01*
X64506198Y-88055700D01*
X64344300Y-87893802D01*
X64339792Y-87890645D01*
X64339789Y-87890643D01*
X64261611Y-87835902D01*
X64156749Y-87762477D01*
X64151767Y-87760154D01*
X64151762Y-87760151D01*
X63954225Y-87668039D01*
X63954224Y-87668039D01*
X63949243Y-87665716D01*
X63943935Y-87664294D01*
X63943933Y-87664293D01*
X63733402Y-87607881D01*
X63733400Y-87607881D01*
X63728087Y-87606457D01*
X63500000Y-87586502D01*
X63271913Y-87606457D01*
X63266600Y-87607881D01*
X63266598Y-87607881D01*
X63056067Y-87664293D01*
X63056065Y-87664294D01*
X63050757Y-87665716D01*
X63045776Y-87668039D01*
X63045775Y-87668039D01*
X62848238Y-87760151D01*
X62848233Y-87760154D01*
X62843251Y-87762477D01*
X62738389Y-87835902D01*
X62660211Y-87890643D01*
X62660208Y-87890645D01*
X62655700Y-87893802D01*
X62493802Y-88055700D01*
X62362477Y-88243251D01*
X62360154Y-88248233D01*
X62360151Y-88248238D01*
X62360034Y-88248489D01*
X62265716Y-88450757D01*
X62206457Y-88671913D01*
X62186502Y-88900000D01*
X53340000Y-88900000D01*
X53340000Y-83820000D01*
X113906835Y-83820000D01*
X113925465Y-84056711D01*
X113980895Y-84287594D01*
X114071760Y-84506963D01*
X114074346Y-84511183D01*
X114193241Y-84705202D01*
X114193245Y-84705208D01*
X114195824Y-84709416D01*
X114350031Y-84889969D01*
X114530584Y-85044176D01*
X114534792Y-85046755D01*
X114534798Y-85046759D01*
X114728817Y-85165654D01*
X114733037Y-85168240D01*
X114737607Y-85170133D01*
X114737611Y-85170135D01*
X114947833Y-85257211D01*
X114952406Y-85259105D01*
X115032609Y-85278360D01*
X115178476Y-85313380D01*
X115178482Y-85313381D01*
X115183289Y-85314535D01*
X115420000Y-85333165D01*
X115656711Y-85314535D01*
X115661518Y-85313381D01*
X115661524Y-85313380D01*
X115807391Y-85278360D01*
X115887594Y-85259105D01*
X115892167Y-85257211D01*
X116102389Y-85170135D01*
X116102393Y-85170133D01*
X116106963Y-85168240D01*
X116111183Y-85165654D01*
X116305202Y-85046759D01*
X116305208Y-85046755D01*
X116309416Y-85044176D01*
X116489969Y-84889969D01*
X116644176Y-84709416D01*
X116646755Y-84705208D01*
X116646759Y-84705202D01*
X116765654Y-84511183D01*
X116768240Y-84506963D01*
X116859105Y-84287594D01*
X116914535Y-84056711D01*
X116933165Y-83820000D01*
X120406835Y-83820000D01*
X120425465Y-84056711D01*
X120480895Y-84287594D01*
X120571760Y-84506963D01*
X120574346Y-84511183D01*
X120693241Y-84705202D01*
X120693245Y-84705208D01*
X120695824Y-84709416D01*
X120850031Y-84889969D01*
X121030584Y-85044176D01*
X121034792Y-85046755D01*
X121034798Y-85046759D01*
X121228817Y-85165654D01*
X121233037Y-85168240D01*
X121237607Y-85170133D01*
X121237611Y-85170135D01*
X121447833Y-85257211D01*
X121452406Y-85259105D01*
X121532609Y-85278360D01*
X121678476Y-85313380D01*
X121678482Y-85313381D01*
X121683289Y-85314535D01*
X121920000Y-85333165D01*
X122156711Y-85314535D01*
X122161518Y-85313381D01*
X122161524Y-85313380D01*
X122307391Y-85278360D01*
X122387594Y-85259105D01*
X122392167Y-85257211D01*
X122602389Y-85170135D01*
X122602393Y-85170133D01*
X122606963Y-85168240D01*
X122611183Y-85165654D01*
X122805202Y-85046759D01*
X122805208Y-85046755D01*
X122809416Y-85044176D01*
X122989969Y-84889969D01*
X123144176Y-84709416D01*
X123146755Y-84705208D01*
X123146759Y-84705202D01*
X123265654Y-84511183D01*
X123268240Y-84506963D01*
X123359105Y-84287594D01*
X123414535Y-84056711D01*
X123433165Y-83820000D01*
X123414535Y-83583289D01*
X123359105Y-83352406D01*
X123268240Y-83133037D01*
X123265654Y-83128817D01*
X123146759Y-82934798D01*
X123146755Y-82934792D01*
X123144176Y-82930584D01*
X122989969Y-82750031D01*
X122809416Y-82595824D01*
X122805208Y-82593245D01*
X122805202Y-82593241D01*
X122611183Y-82474346D01*
X122606963Y-82471760D01*
X122602393Y-82469867D01*
X122602389Y-82469865D01*
X122392167Y-82382789D01*
X122392165Y-82382788D01*
X122387594Y-82380895D01*
X122307391Y-82361640D01*
X122161524Y-82326620D01*
X122161518Y-82326619D01*
X122156711Y-82325465D01*
X121920000Y-82306835D01*
X121683289Y-82325465D01*
X121678482Y-82326619D01*
X121678476Y-82326620D01*
X121532609Y-82361640D01*
X121452406Y-82380895D01*
X121447835Y-82382788D01*
X121447833Y-82382789D01*
X121237611Y-82469865D01*
X121237607Y-82469867D01*
X121233037Y-82471760D01*
X121228817Y-82474346D01*
X121034798Y-82593241D01*
X121034792Y-82593245D01*
X121030584Y-82595824D01*
X120850031Y-82750031D01*
X120695824Y-82930584D01*
X120693245Y-82934792D01*
X120693241Y-82934798D01*
X120574346Y-83128817D01*
X120571760Y-83133037D01*
X120480895Y-83352406D01*
X120425465Y-83583289D01*
X120406835Y-83820000D01*
X116933165Y-83820000D01*
X116914535Y-83583289D01*
X116859105Y-83352406D01*
X116768240Y-83133037D01*
X116765654Y-83128817D01*
X116646759Y-82934798D01*
X116646755Y-82934792D01*
X116644176Y-82930584D01*
X116489969Y-82750031D01*
X116309416Y-82595824D01*
X116305208Y-82593245D01*
X116305202Y-82593241D01*
X116111183Y-82474346D01*
X116106963Y-82471760D01*
X116102393Y-82469867D01*
X116102389Y-82469865D01*
X115892167Y-82382789D01*
X115892165Y-82382788D01*
X115887594Y-82380895D01*
X115807391Y-82361640D01*
X115661524Y-82326620D01*
X115661518Y-82326619D01*
X115656711Y-82325465D01*
X115420000Y-82306835D01*
X115183289Y-82325465D01*
X115178482Y-82326619D01*
X115178476Y-82326620D01*
X115032609Y-82361640D01*
X114952406Y-82380895D01*
X114947835Y-82382788D01*
X114947833Y-82382789D01*
X114737611Y-82469865D01*
X114737607Y-82469867D01*
X114733037Y-82471760D01*
X114728817Y-82474346D01*
X114534798Y-82593241D01*
X114534792Y-82593245D01*
X114530584Y-82595824D01*
X114350031Y-82750031D01*
X114195824Y-82930584D01*
X114193245Y-82934792D01*
X114193241Y-82934798D01*
X114074346Y-83128817D01*
X114071760Y-83133037D01*
X113980895Y-83352406D01*
X113925465Y-83583289D01*
X113906835Y-83820000D01*
X53340000Y-83820000D01*
X53340000Y-79320000D01*
X113906835Y-79320000D01*
X113925465Y-79556711D01*
X113980895Y-79787594D01*
X114071760Y-80006963D01*
X114074346Y-80011183D01*
X114193241Y-80205202D01*
X114193245Y-80205208D01*
X114195824Y-80209416D01*
X114350031Y-80389969D01*
X114530584Y-80544176D01*
X114534792Y-80546755D01*
X114534798Y-80546759D01*
X114728817Y-80665654D01*
X114733037Y-80668240D01*
X114737607Y-80670133D01*
X114737611Y-80670135D01*
X114947833Y-80757211D01*
X114952406Y-80759105D01*
X115032609Y-80778360D01*
X115178476Y-80813380D01*
X115178482Y-80813381D01*
X115183289Y-80814535D01*
X115420000Y-80833165D01*
X115656711Y-80814535D01*
X115661518Y-80813381D01*
X115661524Y-80813380D01*
X115807391Y-80778360D01*
X115887594Y-80759105D01*
X115892167Y-80757211D01*
X116102389Y-80670135D01*
X116102393Y-80670133D01*
X116106963Y-80668240D01*
X116111183Y-80665654D01*
X116305202Y-80546759D01*
X116305208Y-80546755D01*
X116309416Y-80544176D01*
X116489969Y-80389969D01*
X116644176Y-80209416D01*
X116646755Y-80205208D01*
X116646759Y-80205202D01*
X116765654Y-80011183D01*
X116768240Y-80006963D01*
X116859105Y-79787594D01*
X116914535Y-79556711D01*
X116933165Y-79320000D01*
X120406835Y-79320000D01*
X120425465Y-79556711D01*
X120480895Y-79787594D01*
X120571760Y-80006963D01*
X120574346Y-80011183D01*
X120693241Y-80205202D01*
X120693245Y-80205208D01*
X120695824Y-80209416D01*
X120850031Y-80389969D01*
X121030584Y-80544176D01*
X121034792Y-80546755D01*
X121034798Y-80546759D01*
X121228817Y-80665654D01*
X121233037Y-80668240D01*
X121237607Y-80670133D01*
X121237611Y-80670135D01*
X121447833Y-80757211D01*
X121452406Y-80759105D01*
X121532609Y-80778360D01*
X121678476Y-80813380D01*
X121678482Y-80813381D01*
X121683289Y-80814535D01*
X121920000Y-80833165D01*
X122156711Y-80814535D01*
X122161518Y-80813381D01*
X122161524Y-80813380D01*
X122307391Y-80778360D01*
X122387594Y-80759105D01*
X122392167Y-80757211D01*
X122602389Y-80670135D01*
X122602393Y-80670133D01*
X122606963Y-80668240D01*
X122611183Y-80665654D01*
X122805202Y-80546759D01*
X122805208Y-80546755D01*
X122809416Y-80544176D01*
X122989969Y-80389969D01*
X123144176Y-80209416D01*
X123146755Y-80205208D01*
X123146759Y-80205202D01*
X123265654Y-80011183D01*
X123268240Y-80006963D01*
X123359105Y-79787594D01*
X123414535Y-79556711D01*
X123433165Y-79320000D01*
X123414535Y-79083289D01*
X123359105Y-78852406D01*
X123268240Y-78633037D01*
X123265654Y-78628817D01*
X123146759Y-78434798D01*
X123146755Y-78434792D01*
X123144176Y-78430584D01*
X122989969Y-78250031D01*
X122809416Y-78095824D01*
X122805208Y-78093245D01*
X122805202Y-78093241D01*
X122611183Y-77974346D01*
X122606963Y-77971760D01*
X122602393Y-77969867D01*
X122602389Y-77969865D01*
X122392167Y-77882789D01*
X122392165Y-77882788D01*
X122387594Y-77880895D01*
X122307391Y-77861640D01*
X122161524Y-77826620D01*
X122161518Y-77826619D01*
X122156711Y-77825465D01*
X121920000Y-77806835D01*
X121683289Y-77825465D01*
X121678482Y-77826619D01*
X121678476Y-77826620D01*
X121532609Y-77861640D01*
X121452406Y-77880895D01*
X121447835Y-77882788D01*
X121447833Y-77882789D01*
X121237611Y-77969865D01*
X121237607Y-77969867D01*
X121233037Y-77971760D01*
X121228817Y-77974346D01*
X121034798Y-78093241D01*
X121034792Y-78093245D01*
X121030584Y-78095824D01*
X120850031Y-78250031D01*
X120695824Y-78430584D01*
X120693245Y-78434792D01*
X120693241Y-78434798D01*
X120574346Y-78628817D01*
X120571760Y-78633037D01*
X120480895Y-78852406D01*
X120425465Y-79083289D01*
X120406835Y-79320000D01*
X116933165Y-79320000D01*
X116914535Y-79083289D01*
X116859105Y-78852406D01*
X116768240Y-78633037D01*
X116765654Y-78628817D01*
X116646759Y-78434798D01*
X116646755Y-78434792D01*
X116644176Y-78430584D01*
X116489969Y-78250031D01*
X116309416Y-78095824D01*
X116305208Y-78093245D01*
X116305202Y-78093241D01*
X116111183Y-77974346D01*
X116106963Y-77971760D01*
X116102393Y-77969867D01*
X116102389Y-77969865D01*
X115892167Y-77882789D01*
X115892165Y-77882788D01*
X115887594Y-77880895D01*
X115807391Y-77861640D01*
X115661524Y-77826620D01*
X115661518Y-77826619D01*
X115656711Y-77825465D01*
X115420000Y-77806835D01*
X115183289Y-77825465D01*
X115178482Y-77826619D01*
X115178476Y-77826620D01*
X115032609Y-77861640D01*
X114952406Y-77880895D01*
X114947835Y-77882788D01*
X114947833Y-77882789D01*
X114737611Y-77969865D01*
X114737607Y-77969867D01*
X114733037Y-77971760D01*
X114728817Y-77974346D01*
X114534798Y-78093241D01*
X114534792Y-78093245D01*
X114530584Y-78095824D01*
X114350031Y-78250031D01*
X114195824Y-78430584D01*
X114193245Y-78434792D01*
X114193241Y-78434798D01*
X114074346Y-78628817D01*
X114071760Y-78633037D01*
X113980895Y-78852406D01*
X113925465Y-79083289D01*
X113906835Y-79320000D01*
X53340000Y-79320000D01*
X53340000Y-73660000D01*
X62186502Y-73660000D01*
X62206457Y-73888087D01*
X62265716Y-74109243D01*
X62268039Y-74114224D01*
X62268039Y-74114225D01*
X62360151Y-74311762D01*
X62360154Y-74311767D01*
X62362477Y-74316749D01*
X62493802Y-74504300D01*
X62655700Y-74666198D01*
X62660208Y-74669355D01*
X62660211Y-74669357D01*
X62701542Y-74698297D01*
X62843251Y-74797523D01*
X62848233Y-74799846D01*
X62848238Y-74799849D01*
X63044765Y-74891490D01*
X63050757Y-74894284D01*
X63056065Y-74895706D01*
X63056067Y-74895707D01*
X63266598Y-74952119D01*
X63266600Y-74952119D01*
X63271913Y-74953543D01*
X63500000Y-74973498D01*
X63728087Y-74953543D01*
X63733400Y-74952119D01*
X63733402Y-74952119D01*
X63943933Y-74895707D01*
X63943935Y-74895706D01*
X63949243Y-74894284D01*
X63955235Y-74891490D01*
X64151762Y-74799849D01*
X64151767Y-74799846D01*
X64156749Y-74797523D01*
X64298458Y-74698297D01*
X64339789Y-74669357D01*
X64339792Y-74669355D01*
X64344300Y-74666198D01*
X64506198Y-74504300D01*
X64637523Y-74316749D01*
X64639846Y-74311767D01*
X64639849Y-74311762D01*
X64655805Y-74277543D01*
X64702722Y-74224258D01*
X64770999Y-74204797D01*
X64838959Y-74225339D01*
X64884195Y-74277543D01*
X64900151Y-74311762D01*
X64900154Y-74311767D01*
X64902477Y-74316749D01*
X65033802Y-74504300D01*
X65195700Y-74666198D01*
X65200208Y-74669355D01*
X65200211Y-74669357D01*
X65241542Y-74698297D01*
X65383251Y-74797523D01*
X65388233Y-74799846D01*
X65388238Y-74799849D01*
X65584765Y-74891490D01*
X65590757Y-74894284D01*
X65596065Y-74895706D01*
X65596067Y-74895707D01*
X65806598Y-74952119D01*
X65806600Y-74952119D01*
X65811913Y-74953543D01*
X66040000Y-74973498D01*
X66268087Y-74953543D01*
X66273400Y-74952119D01*
X66273402Y-74952119D01*
X66483933Y-74895707D01*
X66483935Y-74895706D01*
X66489243Y-74894284D01*
X66495235Y-74891490D01*
X66691762Y-74799849D01*
X66691767Y-74799846D01*
X66696749Y-74797523D01*
X66838458Y-74698297D01*
X66879789Y-74669357D01*
X66879792Y-74669355D01*
X66884300Y-74666198D01*
X67046198Y-74504300D01*
X67177523Y-74316749D01*
X67179846Y-74311767D01*
X67179849Y-74311762D01*
X67195805Y-74277543D01*
X67242722Y-74224258D01*
X67310999Y-74204797D01*
X67378959Y-74225339D01*
X67424195Y-74277543D01*
X67440151Y-74311762D01*
X67440154Y-74311767D01*
X67442477Y-74316749D01*
X67573802Y-74504300D01*
X67735700Y-74666198D01*
X67740208Y-74669355D01*
X67740211Y-74669357D01*
X67781542Y-74698297D01*
X67923251Y-74797523D01*
X67928233Y-74799846D01*
X67928238Y-74799849D01*
X68124765Y-74891490D01*
X68130757Y-74894284D01*
X68136065Y-74895706D01*
X68136067Y-74895707D01*
X68346598Y-74952119D01*
X68346600Y-74952119D01*
X68351913Y-74953543D01*
X68580000Y-74973498D01*
X68808087Y-74953543D01*
X68813400Y-74952119D01*
X68813402Y-74952119D01*
X69023933Y-74895707D01*
X69023935Y-74895706D01*
X69029243Y-74894284D01*
X69035235Y-74891490D01*
X69231762Y-74799849D01*
X69231767Y-74799846D01*
X69236749Y-74797523D01*
X69378458Y-74698297D01*
X69419789Y-74669357D01*
X69419792Y-74669355D01*
X69424300Y-74666198D01*
X69586198Y-74504300D01*
X69717523Y-74316749D01*
X69719846Y-74311767D01*
X69719849Y-74311762D01*
X69735805Y-74277543D01*
X69782722Y-74224258D01*
X69850999Y-74204797D01*
X69918959Y-74225339D01*
X69964195Y-74277543D01*
X69980151Y-74311762D01*
X69980154Y-74311767D01*
X69982477Y-74316749D01*
X70113802Y-74504300D01*
X70275700Y-74666198D01*
X70280208Y-74669355D01*
X70280211Y-74669357D01*
X70321542Y-74698297D01*
X70463251Y-74797523D01*
X70468233Y-74799846D01*
X70468238Y-74799849D01*
X70664765Y-74891490D01*
X70670757Y-74894284D01*
X70676065Y-74895706D01*
X70676067Y-74895707D01*
X70886598Y-74952119D01*
X70886600Y-74952119D01*
X70891913Y-74953543D01*
X71120000Y-74973498D01*
X71348087Y-74953543D01*
X71353400Y-74952119D01*
X71353402Y-74952119D01*
X71563933Y-74895707D01*
X71563935Y-74895706D01*
X71569243Y-74894284D01*
X71575235Y-74891490D01*
X71771762Y-74799849D01*
X71771767Y-74799846D01*
X71776749Y-74797523D01*
X71918458Y-74698297D01*
X71959789Y-74669357D01*
X71959792Y-74669355D01*
X71964300Y-74666198D01*
X72126198Y-74504300D01*
X72257523Y-74316749D01*
X72259846Y-74311767D01*
X72259849Y-74311762D01*
X72275805Y-74277543D01*
X72322722Y-74224258D01*
X72390999Y-74204797D01*
X72458959Y-74225339D01*
X72504195Y-74277543D01*
X72520151Y-74311762D01*
X72520154Y-74311767D01*
X72522477Y-74316749D01*
X72653802Y-74504300D01*
X72815700Y-74666198D01*
X72820208Y-74669355D01*
X72820211Y-74669357D01*
X72861542Y-74698297D01*
X73003251Y-74797523D01*
X73008233Y-74799846D01*
X73008238Y-74799849D01*
X73204765Y-74891490D01*
X73210757Y-74894284D01*
X73216065Y-74895706D01*
X73216067Y-74895707D01*
X73426598Y-74952119D01*
X73426600Y-74952119D01*
X73431913Y-74953543D01*
X73660000Y-74973498D01*
X73888087Y-74953543D01*
X73893400Y-74952119D01*
X73893402Y-74952119D01*
X74103933Y-74895707D01*
X74103935Y-74895706D01*
X74109243Y-74894284D01*
X74115235Y-74891490D01*
X74311762Y-74799849D01*
X74311767Y-74799846D01*
X74316749Y-74797523D01*
X74458458Y-74698297D01*
X74499789Y-74669357D01*
X74499792Y-74669355D01*
X74504300Y-74666198D01*
X74666198Y-74504300D01*
X74797523Y-74316749D01*
X74799846Y-74311767D01*
X74799849Y-74311762D01*
X74815805Y-74277543D01*
X74862722Y-74224258D01*
X74930999Y-74204797D01*
X74998959Y-74225339D01*
X75044195Y-74277543D01*
X75060151Y-74311762D01*
X75060154Y-74311767D01*
X75062477Y-74316749D01*
X75193802Y-74504300D01*
X75355700Y-74666198D01*
X75360208Y-74669355D01*
X75360211Y-74669357D01*
X75401542Y-74698297D01*
X75543251Y-74797523D01*
X75548233Y-74799846D01*
X75548238Y-74799849D01*
X75744765Y-74891490D01*
X75750757Y-74894284D01*
X75756065Y-74895706D01*
X75756067Y-74895707D01*
X75966598Y-74952119D01*
X75966600Y-74952119D01*
X75971913Y-74953543D01*
X76200000Y-74973498D01*
X76428087Y-74953543D01*
X76433400Y-74952119D01*
X76433402Y-74952119D01*
X76643933Y-74895707D01*
X76643935Y-74895706D01*
X76649243Y-74894284D01*
X76655235Y-74891490D01*
X76851762Y-74799849D01*
X76851767Y-74799846D01*
X76856749Y-74797523D01*
X76998458Y-74698297D01*
X77039789Y-74669357D01*
X77039792Y-74669355D01*
X77044300Y-74666198D01*
X77206198Y-74504300D01*
X77337523Y-74316749D01*
X77339846Y-74311767D01*
X77339849Y-74311762D01*
X77355805Y-74277543D01*
X77402722Y-74224258D01*
X77470999Y-74204797D01*
X77538959Y-74225339D01*
X77584195Y-74277543D01*
X77600151Y-74311762D01*
X77600154Y-74311767D01*
X77602477Y-74316749D01*
X77733802Y-74504300D01*
X77895700Y-74666198D01*
X77900208Y-74669355D01*
X77900211Y-74669357D01*
X77941542Y-74698297D01*
X78083251Y-74797523D01*
X78088233Y-74799846D01*
X78088238Y-74799849D01*
X78284765Y-74891490D01*
X78290757Y-74894284D01*
X78296065Y-74895706D01*
X78296067Y-74895707D01*
X78506598Y-74952119D01*
X78506600Y-74952119D01*
X78511913Y-74953543D01*
X78740000Y-74973498D01*
X78968087Y-74953543D01*
X78973400Y-74952119D01*
X78973402Y-74952119D01*
X79183933Y-74895707D01*
X79183935Y-74895706D01*
X79189243Y-74894284D01*
X79195235Y-74891490D01*
X79391762Y-74799849D01*
X79391767Y-74799846D01*
X79396749Y-74797523D01*
X79538458Y-74698297D01*
X79579789Y-74669357D01*
X79579792Y-74669355D01*
X79584300Y-74666198D01*
X79746198Y-74504300D01*
X79877523Y-74316749D01*
X79879846Y-74311767D01*
X79879849Y-74311762D01*
X79895805Y-74277543D01*
X79942722Y-74224258D01*
X80010999Y-74204797D01*
X80078959Y-74225339D01*
X80124195Y-74277543D01*
X80140151Y-74311762D01*
X80140154Y-74311767D01*
X80142477Y-74316749D01*
X80273802Y-74504300D01*
X80435700Y-74666198D01*
X80440208Y-74669355D01*
X80440211Y-74669357D01*
X80481542Y-74698297D01*
X80623251Y-74797523D01*
X80628233Y-74799846D01*
X80628238Y-74799849D01*
X80824765Y-74891490D01*
X80830757Y-74894284D01*
X80836065Y-74895706D01*
X80836067Y-74895707D01*
X81046598Y-74952119D01*
X81046600Y-74952119D01*
X81051913Y-74953543D01*
X81280000Y-74973498D01*
X81508087Y-74953543D01*
X81513400Y-74952119D01*
X81513402Y-74952119D01*
X81723933Y-74895707D01*
X81723935Y-74895706D01*
X81729243Y-74894284D01*
X81735235Y-74891490D01*
X81931762Y-74799849D01*
X81931767Y-74799846D01*
X81936749Y-74797523D01*
X82078458Y-74698297D01*
X82119789Y-74669357D01*
X82119792Y-74669355D01*
X82124300Y-74666198D01*
X82286198Y-74504300D01*
X82417523Y-74316749D01*
X82419846Y-74311767D01*
X82419849Y-74311762D01*
X82435805Y-74277543D01*
X82482722Y-74224258D01*
X82550999Y-74204797D01*
X82618959Y-74225339D01*
X82664195Y-74277543D01*
X82680151Y-74311762D01*
X82680154Y-74311767D01*
X82682477Y-74316749D01*
X82813802Y-74504300D01*
X82975700Y-74666198D01*
X82980208Y-74669355D01*
X82980211Y-74669357D01*
X83021542Y-74698297D01*
X83163251Y-74797523D01*
X83168233Y-74799846D01*
X83168238Y-74799849D01*
X83364765Y-74891490D01*
X83370757Y-74894284D01*
X83376065Y-74895706D01*
X83376067Y-74895707D01*
X83586598Y-74952119D01*
X83586600Y-74952119D01*
X83591913Y-74953543D01*
X83820000Y-74973498D01*
X84048087Y-74953543D01*
X84053400Y-74952119D01*
X84053402Y-74952119D01*
X84263933Y-74895707D01*
X84263935Y-74895706D01*
X84269243Y-74894284D01*
X84275235Y-74891490D01*
X84471762Y-74799849D01*
X84471767Y-74799846D01*
X84476749Y-74797523D01*
X84618458Y-74698297D01*
X84659789Y-74669357D01*
X84659792Y-74669355D01*
X84664300Y-74666198D01*
X84826198Y-74504300D01*
X84957523Y-74316749D01*
X84959846Y-74311767D01*
X84959849Y-74311762D01*
X84975805Y-74277543D01*
X85022722Y-74224258D01*
X85090999Y-74204797D01*
X85158959Y-74225339D01*
X85204195Y-74277543D01*
X85220151Y-74311762D01*
X85220154Y-74311767D01*
X85222477Y-74316749D01*
X85353802Y-74504300D01*
X85515700Y-74666198D01*
X85520208Y-74669355D01*
X85520211Y-74669357D01*
X85561542Y-74698297D01*
X85703251Y-74797523D01*
X85708233Y-74799846D01*
X85708238Y-74799849D01*
X85904765Y-74891490D01*
X85910757Y-74894284D01*
X85916065Y-74895706D01*
X85916067Y-74895707D01*
X86126598Y-74952119D01*
X86126600Y-74952119D01*
X86131913Y-74953543D01*
X86360000Y-74973498D01*
X86588087Y-74953543D01*
X86593400Y-74952119D01*
X86593402Y-74952119D01*
X86803933Y-74895707D01*
X86803935Y-74895706D01*
X86809243Y-74894284D01*
X86815235Y-74891490D01*
X87011762Y-74799849D01*
X87011767Y-74799846D01*
X87016749Y-74797523D01*
X87158458Y-74698297D01*
X87199789Y-74669357D01*
X87199792Y-74669355D01*
X87204300Y-74666198D01*
X87366198Y-74504300D01*
X87497523Y-74316749D01*
X87499846Y-74311767D01*
X87499849Y-74311762D01*
X87515805Y-74277543D01*
X87562722Y-74224258D01*
X87630999Y-74204797D01*
X87698959Y-74225339D01*
X87744195Y-74277543D01*
X87760151Y-74311762D01*
X87760154Y-74311767D01*
X87762477Y-74316749D01*
X87893802Y-74504300D01*
X88055700Y-74666198D01*
X88060208Y-74669355D01*
X88060211Y-74669357D01*
X88101542Y-74698297D01*
X88243251Y-74797523D01*
X88248233Y-74799846D01*
X88248238Y-74799849D01*
X88444765Y-74891490D01*
X88450757Y-74894284D01*
X88456065Y-74895706D01*
X88456067Y-74895707D01*
X88666598Y-74952119D01*
X88666600Y-74952119D01*
X88671913Y-74953543D01*
X88900000Y-74973498D01*
X89128087Y-74953543D01*
X89133400Y-74952119D01*
X89133402Y-74952119D01*
X89343933Y-74895707D01*
X89343935Y-74895706D01*
X89349243Y-74894284D01*
X89355235Y-74891490D01*
X89551762Y-74799849D01*
X89551767Y-74799846D01*
X89556749Y-74797523D01*
X89698458Y-74698297D01*
X89739789Y-74669357D01*
X89739792Y-74669355D01*
X89744300Y-74666198D01*
X89906198Y-74504300D01*
X90037523Y-74316749D01*
X90039846Y-74311767D01*
X90039849Y-74311762D01*
X90056081Y-74276951D01*
X90102998Y-74223666D01*
X90171275Y-74204205D01*
X90239235Y-74224747D01*
X90284471Y-74276951D01*
X90300586Y-74311511D01*
X90306069Y-74321007D01*
X90431028Y-74499467D01*
X90438084Y-74507875D01*
X90592125Y-74661916D01*
X90600533Y-74668972D01*
X90778993Y-74793931D01*
X90788489Y-74799414D01*
X90985947Y-74891490D01*
X90996239Y-74895236D01*
X91168503Y-74941394D01*
X91182599Y-74941058D01*
X91186000Y-74933116D01*
X91186000Y-74927967D01*
X91694000Y-74927967D01*
X91697973Y-74941498D01*
X91706522Y-74942727D01*
X91883761Y-74895236D01*
X91894053Y-74891490D01*
X92091511Y-74799414D01*
X92101007Y-74793931D01*
X92279467Y-74668972D01*
X92287875Y-74661916D01*
X92441916Y-74507875D01*
X92448972Y-74499467D01*
X92573931Y-74321007D01*
X92579414Y-74311511D01*
X92595529Y-74276951D01*
X92642446Y-74223666D01*
X92710723Y-74204205D01*
X92778683Y-74224747D01*
X92823919Y-74276951D01*
X92840151Y-74311762D01*
X92840154Y-74311767D01*
X92842477Y-74316749D01*
X92973802Y-74504300D01*
X93135700Y-74666198D01*
X93140208Y-74669355D01*
X93140211Y-74669357D01*
X93181542Y-74698297D01*
X93323251Y-74797523D01*
X93328233Y-74799846D01*
X93328238Y-74799849D01*
X93524765Y-74891490D01*
X93530757Y-74894284D01*
X93536065Y-74895706D01*
X93536067Y-74895707D01*
X93746598Y-74952119D01*
X93746600Y-74952119D01*
X93751913Y-74953543D01*
X93980000Y-74973498D01*
X94208087Y-74953543D01*
X94213400Y-74952119D01*
X94213402Y-74952119D01*
X94423933Y-74895707D01*
X94423935Y-74895706D01*
X94429243Y-74894284D01*
X94435235Y-74891490D01*
X94631762Y-74799849D01*
X94631767Y-74799846D01*
X94636749Y-74797523D01*
X94778458Y-74698297D01*
X94819789Y-74669357D01*
X94819792Y-74669355D01*
X94824300Y-74666198D01*
X94986198Y-74504300D01*
X95117523Y-74316749D01*
X95119846Y-74311767D01*
X95119849Y-74311762D01*
X95135805Y-74277543D01*
X95182722Y-74224258D01*
X95250999Y-74204797D01*
X95318959Y-74225339D01*
X95364195Y-74277543D01*
X95380151Y-74311762D01*
X95380154Y-74311767D01*
X95382477Y-74316749D01*
X95513802Y-74504300D01*
X95675700Y-74666198D01*
X95680208Y-74669355D01*
X95680211Y-74669357D01*
X95721542Y-74698297D01*
X95863251Y-74797523D01*
X95868233Y-74799846D01*
X95868238Y-74799849D01*
X96064765Y-74891490D01*
X96070757Y-74894284D01*
X96076065Y-74895706D01*
X96076067Y-74895707D01*
X96286598Y-74952119D01*
X96286600Y-74952119D01*
X96291913Y-74953543D01*
X96520000Y-74973498D01*
X96748087Y-74953543D01*
X96753400Y-74952119D01*
X96753402Y-74952119D01*
X96963933Y-74895707D01*
X96963935Y-74895706D01*
X96969243Y-74894284D01*
X96975235Y-74891490D01*
X97171762Y-74799849D01*
X97171767Y-74799846D01*
X97176749Y-74797523D01*
X97318458Y-74698297D01*
X97359789Y-74669357D01*
X97359792Y-74669355D01*
X97364300Y-74666198D01*
X97526198Y-74504300D01*
X97529357Y-74499789D01*
X97532892Y-74495576D01*
X97534026Y-74496527D01*
X97584071Y-74456529D01*
X97654690Y-74449224D01*
X97718049Y-74481258D01*
X97754030Y-74542462D01*
X97757082Y-74559517D01*
X97758255Y-74570316D01*
X97809385Y-74706705D01*
X97896739Y-74823261D01*
X98013295Y-74910615D01*
X98149684Y-74961745D01*
X98211866Y-74968500D01*
X99908134Y-74968500D01*
X99970316Y-74961745D01*
X100106705Y-74910615D01*
X100223261Y-74823261D01*
X100310615Y-74706705D01*
X100361745Y-74570316D01*
X100368500Y-74508134D01*
X100368500Y-72811866D01*
X100361745Y-72749684D01*
X100310615Y-72613295D01*
X100223261Y-72496739D01*
X100106705Y-72409385D01*
X99970316Y-72358255D01*
X99908134Y-72351500D01*
X98211866Y-72351500D01*
X98149684Y-72358255D01*
X98013295Y-72409385D01*
X97896739Y-72496739D01*
X97809385Y-72613295D01*
X97758255Y-72749684D01*
X97757083Y-72760474D01*
X97756197Y-72762606D01*
X97755575Y-72765222D01*
X97755152Y-72765121D01*
X97729845Y-72826035D01*
X97671483Y-72866463D01*
X97600529Y-72868922D01*
X97539510Y-72832629D01*
X97532511Y-72823969D01*
X97529354Y-72820207D01*
X97526198Y-72815700D01*
X97364300Y-72653802D01*
X97359792Y-72650645D01*
X97359789Y-72650643D01*
X97281611Y-72595902D01*
X97176749Y-72522477D01*
X97171767Y-72520154D01*
X97171762Y-72520151D01*
X96974225Y-72428039D01*
X96974224Y-72428039D01*
X96969243Y-72425716D01*
X96963935Y-72424294D01*
X96963933Y-72424293D01*
X96753402Y-72367881D01*
X96753400Y-72367881D01*
X96748087Y-72366457D01*
X96520000Y-72346502D01*
X96291913Y-72366457D01*
X96286600Y-72367881D01*
X96286598Y-72367881D01*
X96076067Y-72424293D01*
X96076065Y-72424294D01*
X96070757Y-72425716D01*
X96065776Y-72428039D01*
X96065775Y-72428039D01*
X95868238Y-72520151D01*
X95868233Y-72520154D01*
X95863251Y-72522477D01*
X95758389Y-72595902D01*
X95680211Y-72650643D01*
X95680208Y-72650645D01*
X95675700Y-72653802D01*
X95513802Y-72815700D01*
X95382477Y-73003251D01*
X95380154Y-73008233D01*
X95380151Y-73008238D01*
X95364195Y-73042457D01*
X95317278Y-73095742D01*
X95249001Y-73115203D01*
X95181041Y-73094661D01*
X95135805Y-73042457D01*
X95119849Y-73008238D01*
X95119846Y-73008233D01*
X95117523Y-73003251D01*
X94986198Y-72815700D01*
X94824300Y-72653802D01*
X94819792Y-72650645D01*
X94819789Y-72650643D01*
X94741611Y-72595902D01*
X94636749Y-72522477D01*
X94631767Y-72520154D01*
X94631762Y-72520151D01*
X94434225Y-72428039D01*
X94434224Y-72428039D01*
X94429243Y-72425716D01*
X94423935Y-72424294D01*
X94423933Y-72424293D01*
X94213402Y-72367881D01*
X94213400Y-72367881D01*
X94208087Y-72366457D01*
X93980000Y-72346502D01*
X93751913Y-72366457D01*
X93746600Y-72367881D01*
X93746598Y-72367881D01*
X93536067Y-72424293D01*
X93536065Y-72424294D01*
X93530757Y-72425716D01*
X93525776Y-72428039D01*
X93525775Y-72428039D01*
X93328238Y-72520151D01*
X93328233Y-72520154D01*
X93323251Y-72522477D01*
X93218389Y-72595902D01*
X93140211Y-72650643D01*
X93140208Y-72650645D01*
X93135700Y-72653802D01*
X92973802Y-72815700D01*
X92842477Y-73003251D01*
X92840154Y-73008233D01*
X92840151Y-73008238D01*
X92823919Y-73043049D01*
X92777002Y-73096334D01*
X92708725Y-73115795D01*
X92640765Y-73095253D01*
X92595529Y-73043049D01*
X92579414Y-73008489D01*
X92573931Y-72998993D01*
X92448972Y-72820533D01*
X92441916Y-72812125D01*
X92287875Y-72658084D01*
X92279467Y-72651028D01*
X92101007Y-72526069D01*
X92091511Y-72520586D01*
X91894053Y-72428510D01*
X91883761Y-72424764D01*
X91711497Y-72378606D01*
X91697401Y-72378942D01*
X91694000Y-72386884D01*
X91694000Y-74927967D01*
X91186000Y-74927967D01*
X91186000Y-72392033D01*
X91182027Y-72378502D01*
X91173478Y-72377273D01*
X90996239Y-72424764D01*
X90985947Y-72428510D01*
X90788489Y-72520586D01*
X90778993Y-72526069D01*
X90600533Y-72651028D01*
X90592125Y-72658084D01*
X90438084Y-72812125D01*
X90431028Y-72820533D01*
X90306069Y-72998993D01*
X90300586Y-73008489D01*
X90284471Y-73043049D01*
X90237554Y-73096334D01*
X90169277Y-73115795D01*
X90101317Y-73095253D01*
X90056081Y-73043049D01*
X90039849Y-73008238D01*
X90039846Y-73008233D01*
X90037523Y-73003251D01*
X89906198Y-72815700D01*
X89744300Y-72653802D01*
X89739792Y-72650645D01*
X89739789Y-72650643D01*
X89661611Y-72595902D01*
X89556749Y-72522477D01*
X89551767Y-72520154D01*
X89551762Y-72520151D01*
X89354225Y-72428039D01*
X89354224Y-72428039D01*
X89349243Y-72425716D01*
X89343935Y-72424294D01*
X89343933Y-72424293D01*
X89133402Y-72367881D01*
X89133400Y-72367881D01*
X89128087Y-72366457D01*
X88900000Y-72346502D01*
X88671913Y-72366457D01*
X88666600Y-72367881D01*
X88666598Y-72367881D01*
X88456067Y-72424293D01*
X88456065Y-72424294D01*
X88450757Y-72425716D01*
X88445776Y-72428039D01*
X88445775Y-72428039D01*
X88248238Y-72520151D01*
X88248233Y-72520154D01*
X88243251Y-72522477D01*
X88138389Y-72595902D01*
X88060211Y-72650643D01*
X88060208Y-72650645D01*
X88055700Y-72653802D01*
X87893802Y-72815700D01*
X87762477Y-73003251D01*
X87760154Y-73008233D01*
X87760151Y-73008238D01*
X87744195Y-73042457D01*
X87697278Y-73095742D01*
X87629001Y-73115203D01*
X87561041Y-73094661D01*
X87515805Y-73042457D01*
X87499849Y-73008238D01*
X87499846Y-73008233D01*
X87497523Y-73003251D01*
X87366198Y-72815700D01*
X87204300Y-72653802D01*
X87199792Y-72650645D01*
X87199789Y-72650643D01*
X87121611Y-72595902D01*
X87016749Y-72522477D01*
X87011767Y-72520154D01*
X87011762Y-72520151D01*
X86814225Y-72428039D01*
X86814224Y-72428039D01*
X86809243Y-72425716D01*
X86803935Y-72424294D01*
X86803933Y-72424293D01*
X86593402Y-72367881D01*
X86593400Y-72367881D01*
X86588087Y-72366457D01*
X86360000Y-72346502D01*
X86131913Y-72366457D01*
X86126600Y-72367881D01*
X86126598Y-72367881D01*
X85916067Y-72424293D01*
X85916065Y-72424294D01*
X85910757Y-72425716D01*
X85905776Y-72428039D01*
X85905775Y-72428039D01*
X85708238Y-72520151D01*
X85708233Y-72520154D01*
X85703251Y-72522477D01*
X85598389Y-72595902D01*
X85520211Y-72650643D01*
X85520208Y-72650645D01*
X85515700Y-72653802D01*
X85353802Y-72815700D01*
X85222477Y-73003251D01*
X85220154Y-73008233D01*
X85220151Y-73008238D01*
X85204195Y-73042457D01*
X85157278Y-73095742D01*
X85089001Y-73115203D01*
X85021041Y-73094661D01*
X84975805Y-73042457D01*
X84959849Y-73008238D01*
X84959846Y-73008233D01*
X84957523Y-73003251D01*
X84826198Y-72815700D01*
X84664300Y-72653802D01*
X84659792Y-72650645D01*
X84659789Y-72650643D01*
X84581611Y-72595902D01*
X84476749Y-72522477D01*
X84471767Y-72520154D01*
X84471762Y-72520151D01*
X84274225Y-72428039D01*
X84274224Y-72428039D01*
X84269243Y-72425716D01*
X84263935Y-72424294D01*
X84263933Y-72424293D01*
X84053402Y-72367881D01*
X84053400Y-72367881D01*
X84048087Y-72366457D01*
X83820000Y-72346502D01*
X83591913Y-72366457D01*
X83586600Y-72367881D01*
X83586598Y-72367881D01*
X83376067Y-72424293D01*
X83376065Y-72424294D01*
X83370757Y-72425716D01*
X83365776Y-72428039D01*
X83365775Y-72428039D01*
X83168238Y-72520151D01*
X83168233Y-72520154D01*
X83163251Y-72522477D01*
X83058389Y-72595902D01*
X82980211Y-72650643D01*
X82980208Y-72650645D01*
X82975700Y-72653802D01*
X82813802Y-72815700D01*
X82682477Y-73003251D01*
X82680154Y-73008233D01*
X82680151Y-73008238D01*
X82664195Y-73042457D01*
X82617278Y-73095742D01*
X82549001Y-73115203D01*
X82481041Y-73094661D01*
X82435805Y-73042457D01*
X82419849Y-73008238D01*
X82419846Y-73008233D01*
X82417523Y-73003251D01*
X82286198Y-72815700D01*
X82124300Y-72653802D01*
X82119792Y-72650645D01*
X82119789Y-72650643D01*
X82041611Y-72595902D01*
X81936749Y-72522477D01*
X81931767Y-72520154D01*
X81931762Y-72520151D01*
X81734225Y-72428039D01*
X81734224Y-72428039D01*
X81729243Y-72425716D01*
X81723935Y-72424294D01*
X81723933Y-72424293D01*
X81513402Y-72367881D01*
X81513400Y-72367881D01*
X81508087Y-72366457D01*
X81280000Y-72346502D01*
X81051913Y-72366457D01*
X81046600Y-72367881D01*
X81046598Y-72367881D01*
X80836067Y-72424293D01*
X80836065Y-72424294D01*
X80830757Y-72425716D01*
X80825776Y-72428039D01*
X80825775Y-72428039D01*
X80628238Y-72520151D01*
X80628233Y-72520154D01*
X80623251Y-72522477D01*
X80518389Y-72595902D01*
X80440211Y-72650643D01*
X80440208Y-72650645D01*
X80435700Y-72653802D01*
X80273802Y-72815700D01*
X80142477Y-73003251D01*
X80140154Y-73008233D01*
X80140151Y-73008238D01*
X80124195Y-73042457D01*
X80077278Y-73095742D01*
X80009001Y-73115203D01*
X79941041Y-73094661D01*
X79895805Y-73042457D01*
X79879849Y-73008238D01*
X79879846Y-73008233D01*
X79877523Y-73003251D01*
X79746198Y-72815700D01*
X79584300Y-72653802D01*
X79579792Y-72650645D01*
X79579789Y-72650643D01*
X79501611Y-72595902D01*
X79396749Y-72522477D01*
X79391767Y-72520154D01*
X79391762Y-72520151D01*
X79194225Y-72428039D01*
X79194224Y-72428039D01*
X79189243Y-72425716D01*
X79183935Y-72424294D01*
X79183933Y-72424293D01*
X78973402Y-72367881D01*
X78973400Y-72367881D01*
X78968087Y-72366457D01*
X78740000Y-72346502D01*
X78511913Y-72366457D01*
X78506600Y-72367881D01*
X78506598Y-72367881D01*
X78296067Y-72424293D01*
X78296065Y-72424294D01*
X78290757Y-72425716D01*
X78285776Y-72428039D01*
X78285775Y-72428039D01*
X78088238Y-72520151D01*
X78088233Y-72520154D01*
X78083251Y-72522477D01*
X77978389Y-72595902D01*
X77900211Y-72650643D01*
X77900208Y-72650645D01*
X77895700Y-72653802D01*
X77733802Y-72815700D01*
X77602477Y-73003251D01*
X77600154Y-73008233D01*
X77600151Y-73008238D01*
X77584195Y-73042457D01*
X77537278Y-73095742D01*
X77469001Y-73115203D01*
X77401041Y-73094661D01*
X77355805Y-73042457D01*
X77339849Y-73008238D01*
X77339846Y-73008233D01*
X77337523Y-73003251D01*
X77206198Y-72815700D01*
X77044300Y-72653802D01*
X77039792Y-72650645D01*
X77039789Y-72650643D01*
X76961611Y-72595902D01*
X76856749Y-72522477D01*
X76851767Y-72520154D01*
X76851762Y-72520151D01*
X76654225Y-72428039D01*
X76654224Y-72428039D01*
X76649243Y-72425716D01*
X76643935Y-72424294D01*
X76643933Y-72424293D01*
X76433402Y-72367881D01*
X76433400Y-72367881D01*
X76428087Y-72366457D01*
X76200000Y-72346502D01*
X75971913Y-72366457D01*
X75966600Y-72367881D01*
X75966598Y-72367881D01*
X75756067Y-72424293D01*
X75756065Y-72424294D01*
X75750757Y-72425716D01*
X75745776Y-72428039D01*
X75745775Y-72428039D01*
X75548238Y-72520151D01*
X75548233Y-72520154D01*
X75543251Y-72522477D01*
X75438389Y-72595902D01*
X75360211Y-72650643D01*
X75360208Y-72650645D01*
X75355700Y-72653802D01*
X75193802Y-72815700D01*
X75062477Y-73003251D01*
X75060154Y-73008233D01*
X75060151Y-73008238D01*
X75044195Y-73042457D01*
X74997278Y-73095742D01*
X74929001Y-73115203D01*
X74861041Y-73094661D01*
X74815805Y-73042457D01*
X74799849Y-73008238D01*
X74799846Y-73008233D01*
X74797523Y-73003251D01*
X74666198Y-72815700D01*
X74504300Y-72653802D01*
X74499792Y-72650645D01*
X74499789Y-72650643D01*
X74421611Y-72595902D01*
X74316749Y-72522477D01*
X74311767Y-72520154D01*
X74311762Y-72520151D01*
X74114225Y-72428039D01*
X74114224Y-72428039D01*
X74109243Y-72425716D01*
X74103935Y-72424294D01*
X74103933Y-72424293D01*
X73893402Y-72367881D01*
X73893400Y-72367881D01*
X73888087Y-72366457D01*
X73660000Y-72346502D01*
X73431913Y-72366457D01*
X73426600Y-72367881D01*
X73426598Y-72367881D01*
X73216067Y-72424293D01*
X73216065Y-72424294D01*
X73210757Y-72425716D01*
X73205776Y-72428039D01*
X73205775Y-72428039D01*
X73008238Y-72520151D01*
X73008233Y-72520154D01*
X73003251Y-72522477D01*
X72898389Y-72595902D01*
X72820211Y-72650643D01*
X72820208Y-72650645D01*
X72815700Y-72653802D01*
X72653802Y-72815700D01*
X72522477Y-73003251D01*
X72520154Y-73008233D01*
X72520151Y-73008238D01*
X72504195Y-73042457D01*
X72457278Y-73095742D01*
X72389001Y-73115203D01*
X72321041Y-73094661D01*
X72275805Y-73042457D01*
X72259849Y-73008238D01*
X72259846Y-73008233D01*
X72257523Y-73003251D01*
X72126198Y-72815700D01*
X71964300Y-72653802D01*
X71959792Y-72650645D01*
X71959789Y-72650643D01*
X71881611Y-72595902D01*
X71776749Y-72522477D01*
X71771767Y-72520154D01*
X71771762Y-72520151D01*
X71574225Y-72428039D01*
X71574224Y-72428039D01*
X71569243Y-72425716D01*
X71563935Y-72424294D01*
X71563933Y-72424293D01*
X71353402Y-72367881D01*
X71353400Y-72367881D01*
X71348087Y-72366457D01*
X71120000Y-72346502D01*
X70891913Y-72366457D01*
X70886600Y-72367881D01*
X70886598Y-72367881D01*
X70676067Y-72424293D01*
X70676065Y-72424294D01*
X70670757Y-72425716D01*
X70665776Y-72428039D01*
X70665775Y-72428039D01*
X70468238Y-72520151D01*
X70468233Y-72520154D01*
X70463251Y-72522477D01*
X70358389Y-72595902D01*
X70280211Y-72650643D01*
X70280208Y-72650645D01*
X70275700Y-72653802D01*
X70113802Y-72815700D01*
X69982477Y-73003251D01*
X69980154Y-73008233D01*
X69980151Y-73008238D01*
X69964195Y-73042457D01*
X69917278Y-73095742D01*
X69849001Y-73115203D01*
X69781041Y-73094661D01*
X69735805Y-73042457D01*
X69719849Y-73008238D01*
X69719846Y-73008233D01*
X69717523Y-73003251D01*
X69586198Y-72815700D01*
X69424300Y-72653802D01*
X69419792Y-72650645D01*
X69419789Y-72650643D01*
X69341611Y-72595902D01*
X69236749Y-72522477D01*
X69231767Y-72520154D01*
X69231762Y-72520151D01*
X69034225Y-72428039D01*
X69034224Y-72428039D01*
X69029243Y-72425716D01*
X69023935Y-72424294D01*
X69023933Y-72424293D01*
X68813402Y-72367881D01*
X68813400Y-72367881D01*
X68808087Y-72366457D01*
X68580000Y-72346502D01*
X68351913Y-72366457D01*
X68346600Y-72367881D01*
X68346598Y-72367881D01*
X68136067Y-72424293D01*
X68136065Y-72424294D01*
X68130757Y-72425716D01*
X68125776Y-72428039D01*
X68125775Y-72428039D01*
X67928238Y-72520151D01*
X67928233Y-72520154D01*
X67923251Y-72522477D01*
X67818389Y-72595902D01*
X67740211Y-72650643D01*
X67740208Y-72650645D01*
X67735700Y-72653802D01*
X67573802Y-72815700D01*
X67442477Y-73003251D01*
X67440154Y-73008233D01*
X67440151Y-73008238D01*
X67424195Y-73042457D01*
X67377278Y-73095742D01*
X67309001Y-73115203D01*
X67241041Y-73094661D01*
X67195805Y-73042457D01*
X67179849Y-73008238D01*
X67179846Y-73008233D01*
X67177523Y-73003251D01*
X67046198Y-72815700D01*
X66884300Y-72653802D01*
X66879792Y-72650645D01*
X66879789Y-72650643D01*
X66801611Y-72595902D01*
X66696749Y-72522477D01*
X66691767Y-72520154D01*
X66691762Y-72520151D01*
X66494225Y-72428039D01*
X66494224Y-72428039D01*
X66489243Y-72425716D01*
X66483935Y-72424294D01*
X66483933Y-72424293D01*
X66273402Y-72367881D01*
X66273400Y-72367881D01*
X66268087Y-72366457D01*
X66040000Y-72346502D01*
X65811913Y-72366457D01*
X65806600Y-72367881D01*
X65806598Y-72367881D01*
X65596067Y-72424293D01*
X65596065Y-72424294D01*
X65590757Y-72425716D01*
X65585776Y-72428039D01*
X65585775Y-72428039D01*
X65388238Y-72520151D01*
X65388233Y-72520154D01*
X65383251Y-72522477D01*
X65278389Y-72595902D01*
X65200211Y-72650643D01*
X65200208Y-72650645D01*
X65195700Y-72653802D01*
X65033802Y-72815700D01*
X64902477Y-73003251D01*
X64900154Y-73008233D01*
X64900151Y-73008238D01*
X64884195Y-73042457D01*
X64837278Y-73095742D01*
X64769001Y-73115203D01*
X64701041Y-73094661D01*
X64655805Y-73042457D01*
X64639849Y-73008238D01*
X64639846Y-73008233D01*
X64637523Y-73003251D01*
X64506198Y-72815700D01*
X64344300Y-72653802D01*
X64339792Y-72650645D01*
X64339789Y-72650643D01*
X64261611Y-72595902D01*
X64156749Y-72522477D01*
X64151767Y-72520154D01*
X64151762Y-72520151D01*
X63954225Y-72428039D01*
X63954224Y-72428039D01*
X63949243Y-72425716D01*
X63943935Y-72424294D01*
X63943933Y-72424293D01*
X63733402Y-72367881D01*
X63733400Y-72367881D01*
X63728087Y-72366457D01*
X63500000Y-72346502D01*
X63271913Y-72366457D01*
X63266600Y-72367881D01*
X63266598Y-72367881D01*
X63056067Y-72424293D01*
X63056065Y-72424294D01*
X63050757Y-72425716D01*
X63045776Y-72428039D01*
X63045775Y-72428039D01*
X62848238Y-72520151D01*
X62848233Y-72520154D01*
X62843251Y-72522477D01*
X62738389Y-72595902D01*
X62660211Y-72650643D01*
X62660208Y-72650645D01*
X62655700Y-72653802D01*
X62493802Y-72815700D01*
X62362477Y-73003251D01*
X62360154Y-73008233D01*
X62360151Y-73008238D01*
X62360034Y-73008489D01*
X62265716Y-73210757D01*
X62206457Y-73431913D01*
X62186502Y-73660000D01*
X53340000Y-73660000D01*
X53340000Y-63766522D01*
X105397273Y-63766522D01*
X105444764Y-63943761D01*
X105448510Y-63954053D01*
X105540586Y-64151511D01*
X105546069Y-64161007D01*
X105671028Y-64339467D01*
X105678084Y-64347875D01*
X105832125Y-64501916D01*
X105840533Y-64508972D01*
X106018993Y-64633931D01*
X106028489Y-64639414D01*
X106225947Y-64731490D01*
X106236239Y-64735236D01*
X106408503Y-64781394D01*
X106422599Y-64781058D01*
X106426000Y-64773116D01*
X106426000Y-64767967D01*
X106934000Y-64767967D01*
X106937973Y-64781498D01*
X106946522Y-64782727D01*
X107123761Y-64735236D01*
X107134053Y-64731490D01*
X107331511Y-64639414D01*
X107341007Y-64633931D01*
X107519467Y-64508972D01*
X107527875Y-64501916D01*
X107681916Y-64347875D01*
X107688972Y-64339467D01*
X107813931Y-64161007D01*
X107819414Y-64151511D01*
X107835529Y-64116951D01*
X107882446Y-64063666D01*
X107950723Y-64044205D01*
X108018683Y-64064747D01*
X108063919Y-64116951D01*
X108080151Y-64151762D01*
X108080154Y-64151767D01*
X108082477Y-64156749D01*
X108213802Y-64344300D01*
X108375700Y-64506198D01*
X108380208Y-64509355D01*
X108380211Y-64509357D01*
X108458389Y-64564098D01*
X108563251Y-64637523D01*
X108568233Y-64639846D01*
X108568238Y-64639849D01*
X108764765Y-64731490D01*
X108770757Y-64734284D01*
X108776065Y-64735706D01*
X108776067Y-64735707D01*
X108986598Y-64792119D01*
X108986600Y-64792119D01*
X108991913Y-64793543D01*
X109220000Y-64813498D01*
X109448087Y-64793543D01*
X109453400Y-64792119D01*
X109453402Y-64792119D01*
X109663933Y-64735707D01*
X109663935Y-64735706D01*
X109669243Y-64734284D01*
X109675235Y-64731490D01*
X109871762Y-64639849D01*
X109871767Y-64639846D01*
X109876749Y-64637523D01*
X109981611Y-64564098D01*
X110059789Y-64509357D01*
X110059792Y-64509355D01*
X110064300Y-64506198D01*
X110226198Y-64344300D01*
X110357523Y-64156749D01*
X110359846Y-64151767D01*
X110359849Y-64151762D01*
X110451961Y-63954225D01*
X110451961Y-63954224D01*
X110454284Y-63949243D01*
X110513543Y-63728087D01*
X110533498Y-63500000D01*
X110513543Y-63271913D01*
X110505028Y-63240135D01*
X110455707Y-63056067D01*
X110455706Y-63056065D01*
X110454284Y-63050757D01*
X110359966Y-62848489D01*
X110359849Y-62848238D01*
X110359846Y-62848233D01*
X110357523Y-62843251D01*
X110226198Y-62655700D01*
X110064300Y-62493802D01*
X110059792Y-62490645D01*
X110059789Y-62490643D01*
X109981611Y-62435902D01*
X109876749Y-62362477D01*
X109871767Y-62360154D01*
X109871762Y-62360151D01*
X109674225Y-62268039D01*
X109674224Y-62268039D01*
X109669243Y-62265716D01*
X109663935Y-62264294D01*
X109663933Y-62264293D01*
X109453402Y-62207881D01*
X109453400Y-62207881D01*
X109448087Y-62206457D01*
X109220000Y-62186502D01*
X108991913Y-62206457D01*
X108986600Y-62207881D01*
X108986598Y-62207881D01*
X108776067Y-62264293D01*
X108776065Y-62264294D01*
X108770757Y-62265716D01*
X108765776Y-62268039D01*
X108765775Y-62268039D01*
X108568238Y-62360151D01*
X108568233Y-62360154D01*
X108563251Y-62362477D01*
X108458389Y-62435902D01*
X108380211Y-62490643D01*
X108380208Y-62490645D01*
X108375700Y-62493802D01*
X108213802Y-62655700D01*
X108082477Y-62843251D01*
X108080154Y-62848233D01*
X108080151Y-62848238D01*
X108063919Y-62883049D01*
X108017002Y-62936334D01*
X107948725Y-62955795D01*
X107880765Y-62935253D01*
X107835529Y-62883049D01*
X107819414Y-62848489D01*
X107813931Y-62838993D01*
X107688972Y-62660533D01*
X107681916Y-62652125D01*
X107527875Y-62498084D01*
X107519467Y-62491028D01*
X107341007Y-62366069D01*
X107331511Y-62360586D01*
X107134053Y-62268510D01*
X107123761Y-62264764D01*
X106951497Y-62218606D01*
X106937401Y-62218942D01*
X106934000Y-62226884D01*
X106934000Y-64767967D01*
X106426000Y-64767967D01*
X106426000Y-63772115D01*
X106421525Y-63756876D01*
X106420135Y-63755671D01*
X106412452Y-63754000D01*
X105412033Y-63754000D01*
X105398502Y-63757973D01*
X105397273Y-63766522D01*
X53340000Y-63766522D01*
X53340000Y-63228503D01*
X105398606Y-63228503D01*
X105398942Y-63242599D01*
X105406884Y-63246000D01*
X106407885Y-63246000D01*
X106423124Y-63241525D01*
X106424329Y-63240135D01*
X106426000Y-63232452D01*
X106426000Y-62232033D01*
X106422027Y-62218502D01*
X106413478Y-62217273D01*
X106236239Y-62264764D01*
X106225947Y-62268510D01*
X106028489Y-62360586D01*
X106018993Y-62366069D01*
X105840533Y-62491028D01*
X105832125Y-62498084D01*
X105678084Y-62652125D01*
X105671028Y-62660533D01*
X105546069Y-62838993D01*
X105540586Y-62848489D01*
X105448510Y-63045947D01*
X105444764Y-63056239D01*
X105398606Y-63228503D01*
X53340000Y-63228503D01*
X53340000Y-60960000D01*
X79966502Y-60960000D01*
X79986457Y-61188087D01*
X80045716Y-61409243D01*
X80048039Y-61414224D01*
X80048039Y-61414225D01*
X80140151Y-61611762D01*
X80140154Y-61611767D01*
X80142477Y-61616749D01*
X80273802Y-61804300D01*
X80435700Y-61966198D01*
X80440208Y-61969355D01*
X80440211Y-61969357D01*
X80518389Y-62024098D01*
X80623251Y-62097523D01*
X80628233Y-62099846D01*
X80628238Y-62099849D01*
X80825775Y-62191961D01*
X80830757Y-62194284D01*
X80836065Y-62195706D01*
X80836067Y-62195707D01*
X81046598Y-62252119D01*
X81046600Y-62252119D01*
X81051913Y-62253543D01*
X81280000Y-62273498D01*
X81508087Y-62253543D01*
X81513400Y-62252119D01*
X81513402Y-62252119D01*
X81723933Y-62195707D01*
X81723935Y-62195706D01*
X81729243Y-62194284D01*
X81734225Y-62191961D01*
X81931762Y-62099849D01*
X81931767Y-62099846D01*
X81936749Y-62097523D01*
X82041611Y-62024098D01*
X82119789Y-61969357D01*
X82119792Y-61969355D01*
X82124300Y-61966198D01*
X82286198Y-61804300D01*
X82417523Y-61616749D01*
X82419846Y-61611767D01*
X82419849Y-61611762D01*
X82511961Y-61414225D01*
X82511961Y-61414224D01*
X82514284Y-61409243D01*
X82573543Y-61188087D01*
X82593498Y-60960000D01*
X82573543Y-60731913D01*
X82514284Y-60510757D01*
X82511961Y-60505775D01*
X82419849Y-60308238D01*
X82419846Y-60308233D01*
X82417523Y-60303251D01*
X82286198Y-60115700D01*
X82124300Y-59953802D01*
X82119792Y-59950645D01*
X82119789Y-59950643D01*
X82041611Y-59895902D01*
X81936749Y-59822477D01*
X81931767Y-59820154D01*
X81931762Y-59820151D01*
X81897543Y-59804195D01*
X81844258Y-59757278D01*
X81824797Y-59689001D01*
X81845339Y-59621041D01*
X81897543Y-59575805D01*
X81931762Y-59559849D01*
X81931767Y-59559846D01*
X81936749Y-59557523D01*
X82041611Y-59484098D01*
X82119789Y-59429357D01*
X82119792Y-59429355D01*
X82124300Y-59426198D01*
X82286198Y-59264300D01*
X82417523Y-59076749D01*
X82419846Y-59071767D01*
X82419849Y-59071762D01*
X82511961Y-58874225D01*
X82511961Y-58874224D01*
X82514284Y-58869243D01*
X82573543Y-58648087D01*
X82593498Y-58420000D01*
X82573543Y-58191913D01*
X82514284Y-57970757D01*
X82511961Y-57965775D01*
X82419849Y-57768238D01*
X82419846Y-57768233D01*
X82417523Y-57763251D01*
X82286198Y-57575700D01*
X82124300Y-57413802D01*
X82119792Y-57410645D01*
X82119789Y-57410643D01*
X82041611Y-57355902D01*
X81936749Y-57282477D01*
X81931767Y-57280154D01*
X81931762Y-57280151D01*
X81734225Y-57188039D01*
X81734224Y-57188039D01*
X81729243Y-57185716D01*
X81723935Y-57184294D01*
X81723933Y-57184293D01*
X81513402Y-57127881D01*
X81513400Y-57127881D01*
X81508087Y-57126457D01*
X81280000Y-57106502D01*
X81051913Y-57126457D01*
X81046600Y-57127881D01*
X81046598Y-57127881D01*
X80836067Y-57184293D01*
X80836065Y-57184294D01*
X80830757Y-57185716D01*
X80825776Y-57188039D01*
X80825775Y-57188039D01*
X80628238Y-57280151D01*
X80628233Y-57280154D01*
X80623251Y-57282477D01*
X80518389Y-57355902D01*
X80440211Y-57410643D01*
X80440208Y-57410645D01*
X80435700Y-57413802D01*
X80273802Y-57575700D01*
X80142477Y-57763251D01*
X80140154Y-57768233D01*
X80140151Y-57768238D01*
X80048039Y-57965775D01*
X80045716Y-57970757D01*
X79986457Y-58191913D01*
X79966502Y-58420000D01*
X79986457Y-58648087D01*
X80045716Y-58869243D01*
X80048039Y-58874224D01*
X80048039Y-58874225D01*
X80140151Y-59071762D01*
X80140154Y-59071767D01*
X80142477Y-59076749D01*
X80273802Y-59264300D01*
X80435700Y-59426198D01*
X80440208Y-59429355D01*
X80440211Y-59429357D01*
X80518389Y-59484098D01*
X80623251Y-59557523D01*
X80628233Y-59559846D01*
X80628238Y-59559849D01*
X80662457Y-59575805D01*
X80715742Y-59622722D01*
X80735203Y-59690999D01*
X80714661Y-59758959D01*
X80662457Y-59804195D01*
X80628238Y-59820151D01*
X80628233Y-59820154D01*
X80623251Y-59822477D01*
X80518389Y-59895902D01*
X80440211Y-59950643D01*
X80440208Y-59950645D01*
X80435700Y-59953802D01*
X80273802Y-60115700D01*
X80142477Y-60303251D01*
X80140154Y-60308233D01*
X80140151Y-60308238D01*
X80048039Y-60505775D01*
X80045716Y-60510757D01*
X79986457Y-60731913D01*
X79966502Y-60960000D01*
X53340000Y-60960000D01*
X53340000Y-50755132D01*
X55206757Y-50755132D01*
X55221781Y-51113588D01*
X55276668Y-51468136D01*
X55370734Y-51814356D01*
X55502806Y-52147933D01*
X55671239Y-52464709D01*
X55673224Y-52467607D01*
X55673230Y-52467618D01*
X55871942Y-52757829D01*
X55871947Y-52757835D01*
X55873933Y-52760736D01*
X56108361Y-53032324D01*
X56371602Y-53276087D01*
X56374428Y-53278170D01*
X56374431Y-53278173D01*
X56481911Y-53357414D01*
X56660375Y-53488989D01*
X56971080Y-53668375D01*
X56974301Y-53669782D01*
X57296622Y-53810601D01*
X57296632Y-53810605D01*
X57299844Y-53812008D01*
X57303201Y-53813047D01*
X57303206Y-53813049D01*
X57438744Y-53855005D01*
X57642570Y-53918100D01*
X57994987Y-53985327D01*
X58237526Y-54003989D01*
X58349203Y-54012582D01*
X58349204Y-54012582D01*
X58352700Y-54012851D01*
X58570001Y-54005263D01*
X58707738Y-54000453D01*
X58707743Y-54000453D01*
X58711253Y-54000330D01*
X58714734Y-53999816D01*
X59062683Y-53948436D01*
X59062689Y-53948435D01*
X59066175Y-53947920D01*
X59069579Y-53947021D01*
X59069582Y-53947020D01*
X59409652Y-53857169D01*
X59409653Y-53857169D01*
X59413043Y-53856273D01*
X59747534Y-53726533D01*
X60065478Y-53560316D01*
X60362913Y-53359693D01*
X60636131Y-53127167D01*
X60771872Y-52982618D01*
X60879316Y-52868202D01*
X60879320Y-52868197D01*
X60881727Y-52865634D01*
X60883832Y-52862820D01*
X60883838Y-52862813D01*
X61094530Y-52581174D01*
X61096639Y-52578355D01*
X61278189Y-52268910D01*
X61424115Y-51941156D01*
X61532596Y-51599179D01*
X61597749Y-51270132D01*
X121246757Y-51270132D01*
X121261781Y-51628588D01*
X121316668Y-51983136D01*
X121410734Y-52329356D01*
X121542806Y-52662933D01*
X121711239Y-52979709D01*
X121713224Y-52982607D01*
X121713230Y-52982618D01*
X121911942Y-53272829D01*
X121911947Y-53272835D01*
X121913933Y-53275736D01*
X121916236Y-53278404D01*
X122098008Y-53488989D01*
X122148361Y-53547324D01*
X122411602Y-53791087D01*
X122414428Y-53793170D01*
X122414431Y-53793173D01*
X122498298Y-53855005D01*
X122700375Y-54003989D01*
X123011080Y-54183375D01*
X123014301Y-54184782D01*
X123336622Y-54325601D01*
X123336632Y-54325605D01*
X123339844Y-54327008D01*
X123343201Y-54328047D01*
X123343206Y-54328049D01*
X123478744Y-54370005D01*
X123682570Y-54433100D01*
X124034987Y-54500327D01*
X124231571Y-54515453D01*
X124389203Y-54527582D01*
X124389204Y-54527582D01*
X124392700Y-54527851D01*
X124610001Y-54520263D01*
X124747738Y-54515453D01*
X124747743Y-54515453D01*
X124751253Y-54515330D01*
X124754734Y-54514816D01*
X125102683Y-54463436D01*
X125102689Y-54463435D01*
X125106175Y-54462920D01*
X125109579Y-54462021D01*
X125109582Y-54462020D01*
X125449652Y-54372169D01*
X125449653Y-54372169D01*
X125453043Y-54371273D01*
X125787534Y-54241533D01*
X126105478Y-54075316D01*
X126402913Y-53874693D01*
X126424557Y-53856273D01*
X126575506Y-53727805D01*
X126676131Y-53642167D01*
X126821929Y-53486908D01*
X126919316Y-53383202D01*
X126919320Y-53383197D01*
X126921727Y-53380634D01*
X126923832Y-53377820D01*
X126923838Y-53377813D01*
X127134530Y-53096174D01*
X127136639Y-53093355D01*
X127171040Y-53034721D01*
X127271897Y-52862813D01*
X127318189Y-52783910D01*
X127464115Y-52456156D01*
X127572596Y-52114179D01*
X127642282Y-51762241D01*
X127672303Y-51404728D01*
X127673556Y-51315000D01*
X127669962Y-51250705D01*
X127653725Y-50960301D01*
X127653529Y-50956788D01*
X127646589Y-50915757D01*
X127594286Y-50606522D01*
X127594285Y-50606518D01*
X127593697Y-50603041D01*
X127494806Y-50258169D01*
X127426119Y-50091522D01*
X127359427Y-49929713D01*
X127359423Y-49929705D01*
X127358089Y-49926468D01*
X127185250Y-49612075D01*
X127015289Y-49371140D01*
X126980479Y-49321793D01*
X126980478Y-49321791D01*
X126978443Y-49318907D01*
X126740245Y-49050619D01*
X126473626Y-48810554D01*
X126470776Y-48808513D01*
X126470769Y-48808508D01*
X126184763Y-48603748D01*
X126184760Y-48603746D01*
X126181909Y-48601705D01*
X125868730Y-48426675D01*
X125537992Y-48287646D01*
X125534623Y-48286655D01*
X125534619Y-48286653D01*
X125382754Y-48241957D01*
X125193818Y-48186350D01*
X124910904Y-48136464D01*
X124843958Y-48124660D01*
X124843956Y-48124660D01*
X124840498Y-48124050D01*
X124836987Y-48123829D01*
X124836986Y-48123829D01*
X124485953Y-48101743D01*
X124485947Y-48101743D01*
X124482435Y-48101522D01*
X124381046Y-48106481D01*
X124127599Y-48118876D01*
X124127591Y-48118877D01*
X124124092Y-48119048D01*
X124120624Y-48119610D01*
X124120621Y-48119610D01*
X123773411Y-48175846D01*
X123773408Y-48175847D01*
X123769936Y-48176409D01*
X123766549Y-48177355D01*
X123766543Y-48177356D01*
X123482406Y-48256689D01*
X123424381Y-48272890D01*
X123373350Y-48293508D01*
X123094998Y-48405969D01*
X123094994Y-48405971D01*
X123091734Y-48407288D01*
X123088647Y-48408957D01*
X123088643Y-48408959D01*
X123052699Y-48428394D01*
X122776142Y-48577928D01*
X122481537Y-48782683D01*
X122478895Y-48784996D01*
X122478891Y-48784999D01*
X122457293Y-48803907D01*
X122211593Y-49019002D01*
X121969672Y-49283938D01*
X121758792Y-49574190D01*
X121581580Y-49886140D01*
X121440245Y-50215899D01*
X121336549Y-50559358D01*
X121335913Y-50562825D01*
X121275915Y-50889728D01*
X121271784Y-50912235D01*
X121246757Y-51270132D01*
X61597749Y-51270132D01*
X61602282Y-51247241D01*
X61626964Y-50953311D01*
X61632120Y-50891912D01*
X61632121Y-50891901D01*
X61632303Y-50889728D01*
X61633556Y-50800000D01*
X61613529Y-50441788D01*
X61606589Y-50400757D01*
X61554286Y-50091522D01*
X61554285Y-50091518D01*
X61553697Y-50088041D01*
X61454806Y-49743169D01*
X61383982Y-49571336D01*
X61319427Y-49414713D01*
X61319423Y-49414705D01*
X61318089Y-49411468D01*
X61145250Y-49097075D01*
X60938443Y-48803907D01*
X60700245Y-48535619D01*
X60433626Y-48295554D01*
X60430776Y-48293513D01*
X60430769Y-48293508D01*
X60144763Y-48088748D01*
X60144760Y-48088746D01*
X60141909Y-48086705D01*
X59828730Y-47911675D01*
X59497992Y-47772646D01*
X59494623Y-47771655D01*
X59494619Y-47771653D01*
X59342754Y-47726957D01*
X59153818Y-47671350D01*
X58870904Y-47621464D01*
X58803958Y-47609660D01*
X58803956Y-47609660D01*
X58800498Y-47609050D01*
X58796987Y-47608829D01*
X58796986Y-47608829D01*
X58445953Y-47586743D01*
X58445947Y-47586743D01*
X58442435Y-47586522D01*
X58341046Y-47591481D01*
X58087599Y-47603876D01*
X58087591Y-47603877D01*
X58084092Y-47604048D01*
X58080624Y-47604610D01*
X58080621Y-47604610D01*
X57733411Y-47660846D01*
X57733408Y-47660847D01*
X57729936Y-47661409D01*
X57726549Y-47662355D01*
X57726543Y-47662356D01*
X57442406Y-47741689D01*
X57384381Y-47757890D01*
X57218058Y-47825089D01*
X57054998Y-47890969D01*
X57054994Y-47890971D01*
X57051734Y-47892288D01*
X57048647Y-47893957D01*
X57048643Y-47893959D01*
X57012699Y-47913394D01*
X56736142Y-48062928D01*
X56441537Y-48267683D01*
X56438895Y-48269996D01*
X56438891Y-48269999D01*
X56257959Y-48428394D01*
X56171593Y-48504002D01*
X55929672Y-48768938D01*
X55718792Y-49059190D01*
X55541580Y-49371140D01*
X55400245Y-49700899D01*
X55296549Y-50044358D01*
X55231784Y-50397235D01*
X55206757Y-50755132D01*
X53340000Y-50755132D01*
X53340000Y-45846000D01*
X53360002Y-45777879D01*
X53413658Y-45731386D01*
X53466000Y-45720000D01*
X129414000Y-45720000D01*
X129482121Y-45740002D01*
G37*
%TD.AperFunction*%
%TD*%
M02*
