%TF.GenerationSoftware,KiCad,Pcbnew,(6.0.4)*%
%TF.CreationDate,2025-03-27T00:11:59-07:00*%
%TF.ProjectId,led-goals,6c65642d-676f-4616-9c73-2e6b69636164,rev?*%
%TF.SameCoordinates,Original*%
%TF.FileFunction,Legend,Top*%
%TF.FilePolarity,Positive*%
%FSLAX46Y46*%
G04 Gerber Fmt 4.6, Leading zero omitted, Abs format (unit mm)*
G04 Created by KiCad (PCBNEW (6.0.4)) date 2025-03-27 00:11:59*
%MOMM*%
%LPD*%
G01*
G04 APERTURE LIST*
%ADD10C,0.150000*%
%ADD11C,0.120000*%
G04 APERTURE END LIST*
D10*
X113650089Y-96292380D02*
X113173898Y-96292380D01*
X113298898Y-95292380D01*
X114048898Y-95768571D02*
X114382232Y-95768571D01*
X114459613Y-96292380D02*
X113983422Y-96292380D01*
X114108422Y-95292380D01*
X114584613Y-95292380D01*
X114888184Y-96292380D02*
X115013184Y-95292380D01*
X115251279Y-95292380D01*
X115388184Y-95340000D01*
X115471517Y-95435238D01*
X115507232Y-95530476D01*
X115531041Y-95720952D01*
X115513184Y-95863809D01*
X115441755Y-96054285D01*
X115382232Y-96149523D01*
X115275089Y-96244761D01*
X115126279Y-96292380D01*
X114888184Y-96292380D01*
X117292946Y-95340000D02*
X117203660Y-95292380D01*
X117060803Y-95292380D01*
X116911994Y-95340000D01*
X116804851Y-95435238D01*
X116745327Y-95530476D01*
X116673898Y-95720952D01*
X116656041Y-95863809D01*
X116679851Y-96054285D01*
X116715565Y-96149523D01*
X116798898Y-96244761D01*
X116935803Y-96292380D01*
X117031041Y-96292380D01*
X117179851Y-96244761D01*
X117233422Y-96197142D01*
X117275089Y-95863809D01*
X117084613Y-95863809D01*
X117792946Y-96292380D02*
X117703660Y-96244761D01*
X117661994Y-96197142D01*
X117626279Y-96101904D01*
X117661994Y-95816190D01*
X117721517Y-95720952D01*
X117775089Y-95673333D01*
X117876279Y-95625714D01*
X118019136Y-95625714D01*
X118108422Y-95673333D01*
X118150089Y-95720952D01*
X118185803Y-95816190D01*
X118150089Y-96101904D01*
X118090565Y-96197142D01*
X118036994Y-96244761D01*
X117935803Y-96292380D01*
X117792946Y-96292380D01*
X118983422Y-96292380D02*
X119048898Y-95768571D01*
X119013184Y-95673333D01*
X118923898Y-95625714D01*
X118733422Y-95625714D01*
X118632232Y-95673333D01*
X118989375Y-96244761D02*
X118888184Y-96292380D01*
X118650089Y-96292380D01*
X118560803Y-96244761D01*
X118525089Y-96149523D01*
X118536994Y-96054285D01*
X118596517Y-95959047D01*
X118697708Y-95911428D01*
X118935803Y-95911428D01*
X119036994Y-95863809D01*
X119602470Y-96292380D02*
X119513184Y-96244761D01*
X119477470Y-96149523D01*
X119584613Y-95292380D01*
X119941755Y-96244761D02*
X120031041Y-96292380D01*
X120221517Y-96292380D01*
X120322708Y-96244761D01*
X120382232Y-96149523D01*
X120388184Y-96101904D01*
X120352470Y-96006666D01*
X120263184Y-95959047D01*
X120120327Y-95959047D01*
X120031041Y-95911428D01*
X119995327Y-95816190D01*
X120001279Y-95768571D01*
X120060803Y-95673333D01*
X120161994Y-95625714D01*
X120304851Y-95625714D01*
X120394136Y-95673333D01*
X108560803Y-96902380D02*
X108536994Y-97092857D01*
X108941755Y-96902380D02*
X108917946Y-97092857D01*
X109721517Y-97902380D02*
X109245327Y-97902380D01*
X109370327Y-96902380D01*
X110054851Y-97902380D02*
X110138184Y-97235714D01*
X110179851Y-96902380D02*
X110126279Y-96950000D01*
X110167946Y-96997619D01*
X110221517Y-96950000D01*
X110179851Y-96902380D01*
X110167946Y-96997619D01*
X111042946Y-97235714D02*
X110941755Y-98045238D01*
X110882232Y-98140476D01*
X110828660Y-98188095D01*
X110727470Y-98235714D01*
X110584613Y-98235714D01*
X110495327Y-98188095D01*
X110965565Y-97854761D02*
X110864375Y-97902380D01*
X110673898Y-97902380D01*
X110584613Y-97854761D01*
X110542946Y-97807142D01*
X110507232Y-97711904D01*
X110542946Y-97426190D01*
X110602470Y-97330952D01*
X110656041Y-97283333D01*
X110757232Y-97235714D01*
X110947708Y-97235714D01*
X111036994Y-97283333D01*
X111435803Y-97902380D02*
X111560803Y-96902380D01*
X111864375Y-97902380D02*
X111929851Y-97378571D01*
X111894136Y-97283333D01*
X111804851Y-97235714D01*
X111661994Y-97235714D01*
X111560803Y-97283333D01*
X111507232Y-97330952D01*
X112281041Y-97235714D02*
X112661994Y-97235714D01*
X112465565Y-96902380D02*
X112358422Y-97759523D01*
X112394136Y-97854761D01*
X112483422Y-97902380D01*
X112578660Y-97902380D01*
X114185803Y-97235714D02*
X114102470Y-97902380D01*
X113757232Y-97235714D02*
X113691755Y-97759523D01*
X113727470Y-97854761D01*
X113816755Y-97902380D01*
X113959613Y-97902380D01*
X114060803Y-97854761D01*
X114114375Y-97807142D01*
X114661994Y-97235714D02*
X114536994Y-98235714D01*
X114656041Y-97283333D02*
X114757232Y-97235714D01*
X114947708Y-97235714D01*
X115036994Y-97283333D01*
X115078660Y-97330952D01*
X115114375Y-97426190D01*
X115078660Y-97711904D01*
X115019136Y-97807142D01*
X114965565Y-97854761D01*
X114864375Y-97902380D01*
X114673898Y-97902380D01*
X114584613Y-97854761D01*
X116233422Y-97235714D02*
X116388184Y-97902380D01*
X116709613Y-97235714D02*
X116388184Y-97902380D01*
X116263184Y-98140476D01*
X116209613Y-98188095D01*
X116108422Y-98235714D01*
X117150089Y-97902380D02*
X117060803Y-97854761D01*
X117019136Y-97807142D01*
X116983422Y-97711904D01*
X117019136Y-97426190D01*
X117078660Y-97330952D01*
X117132232Y-97283333D01*
X117233422Y-97235714D01*
X117376279Y-97235714D01*
X117465565Y-97283333D01*
X117507232Y-97330952D01*
X117542946Y-97426190D01*
X117507232Y-97711904D01*
X117447708Y-97807142D01*
X117394136Y-97854761D01*
X117292946Y-97902380D01*
X117150089Y-97902380D01*
X118423898Y-97235714D02*
X118340565Y-97902380D01*
X117995327Y-97235714D02*
X117929851Y-97759523D01*
X117965565Y-97854761D01*
X118054851Y-97902380D01*
X118197708Y-97902380D01*
X118298898Y-97854761D01*
X118352470Y-97807142D01*
X118816755Y-97902380D02*
X118900089Y-97235714D01*
X118876279Y-97426190D02*
X118935803Y-97330952D01*
X118989375Y-97283333D01*
X119090565Y-97235714D01*
X119185803Y-97235714D01*
X120709613Y-97235714D02*
X120608422Y-98045238D01*
X120548898Y-98140476D01*
X120495327Y-98188095D01*
X120394136Y-98235714D01*
X120251279Y-98235714D01*
X120161994Y-98188095D01*
X120632232Y-97854761D02*
X120531041Y-97902380D01*
X120340565Y-97902380D01*
X120251279Y-97854761D01*
X120209613Y-97807142D01*
X120173898Y-97711904D01*
X120209613Y-97426190D01*
X120269136Y-97330952D01*
X120322708Y-97283333D01*
X120423898Y-97235714D01*
X120614375Y-97235714D01*
X120703660Y-97283333D01*
X121245327Y-97902380D02*
X121156041Y-97854761D01*
X121114375Y-97807142D01*
X121078660Y-97711904D01*
X121114375Y-97426190D01*
X121173898Y-97330952D01*
X121227470Y-97283333D01*
X121328660Y-97235714D01*
X121471517Y-97235714D01*
X121560803Y-97283333D01*
X121602470Y-97330952D01*
X121638184Y-97426190D01*
X121602470Y-97711904D01*
X121542946Y-97807142D01*
X121489375Y-97854761D01*
X121388184Y-97902380D01*
X121245327Y-97902380D01*
X122435803Y-97902380D02*
X122501279Y-97378571D01*
X122465565Y-97283333D01*
X122376279Y-97235714D01*
X122185803Y-97235714D01*
X122084613Y-97283333D01*
X122441755Y-97854761D02*
X122340565Y-97902380D01*
X122102470Y-97902380D01*
X122013184Y-97854761D01*
X121977470Y-97759523D01*
X121989375Y-97664285D01*
X122048898Y-97569047D01*
X122150089Y-97521428D01*
X122388184Y-97521428D01*
X122489375Y-97473809D01*
X123054851Y-97902380D02*
X122965565Y-97854761D01*
X122929851Y-97759523D01*
X123036994Y-96902380D01*
X123394136Y-97854761D02*
X123483422Y-97902380D01*
X123673898Y-97902380D01*
X123775089Y-97854761D01*
X123834613Y-97759523D01*
X123840565Y-97711904D01*
X123804851Y-97616666D01*
X123715565Y-97569047D01*
X123572708Y-97569047D01*
X123483422Y-97521428D01*
X123447708Y-97426190D01*
X123453660Y-97378571D01*
X123513184Y-97283333D01*
X123614375Y-97235714D01*
X123757232Y-97235714D01*
X123846517Y-97283333D01*
X124298898Y-97854761D02*
X124292946Y-97902380D01*
X124233422Y-97997619D01*
X124179851Y-98045238D01*
X109221517Y-99512380D02*
X109132232Y-99464761D01*
X109090565Y-99417142D01*
X109054851Y-99321904D01*
X109090565Y-99036190D01*
X109150089Y-98940952D01*
X109203660Y-98893333D01*
X109304851Y-98845714D01*
X109447708Y-98845714D01*
X109536994Y-98893333D01*
X109578660Y-98940952D01*
X109614375Y-99036190D01*
X109578660Y-99321904D01*
X109519136Y-99417142D01*
X109465565Y-99464761D01*
X109364375Y-99512380D01*
X109221517Y-99512380D01*
X110066755Y-98845714D02*
X109983422Y-99512380D01*
X110054851Y-98940952D02*
X110108422Y-98893333D01*
X110209613Y-98845714D01*
X110352470Y-98845714D01*
X110441755Y-98893333D01*
X110477470Y-98988571D01*
X110411994Y-99512380D01*
X111275089Y-99464761D02*
X111173898Y-99512380D01*
X110983422Y-99512380D01*
X110894136Y-99464761D01*
X110858422Y-99369523D01*
X110906041Y-98988571D01*
X110965565Y-98893333D01*
X111066755Y-98845714D01*
X111257232Y-98845714D01*
X111346517Y-98893333D01*
X111382232Y-98988571D01*
X111370327Y-99083809D01*
X110882232Y-99179047D01*
X112590565Y-98845714D02*
X112465565Y-99845714D01*
X112584613Y-98893333D02*
X112685803Y-98845714D01*
X112876279Y-98845714D01*
X112965565Y-98893333D01*
X113007232Y-98940952D01*
X113042946Y-99036190D01*
X113007232Y-99321904D01*
X112947708Y-99417142D01*
X112894136Y-99464761D01*
X112792946Y-99512380D01*
X112602470Y-99512380D01*
X112513184Y-99464761D01*
X113411994Y-99512380D02*
X113495327Y-98845714D01*
X113536994Y-98512380D02*
X113483422Y-98560000D01*
X113525089Y-98607619D01*
X113578660Y-98560000D01*
X113536994Y-98512380D01*
X113525089Y-98607619D01*
X113971517Y-98845714D02*
X113888184Y-99512380D01*
X113959613Y-98940952D02*
X114013184Y-98893333D01*
X114114375Y-98845714D01*
X114257232Y-98845714D01*
X114346517Y-98893333D01*
X114382232Y-98988571D01*
X114316755Y-99512380D01*
X115983422Y-99512380D02*
X116048898Y-98988571D01*
X116013184Y-98893333D01*
X115923898Y-98845714D01*
X115733422Y-98845714D01*
X115632232Y-98893333D01*
X115989375Y-99464761D02*
X115888184Y-99512380D01*
X115650089Y-99512380D01*
X115560803Y-99464761D01*
X115525089Y-99369523D01*
X115536994Y-99274285D01*
X115596517Y-99179047D01*
X115697708Y-99131428D01*
X115935803Y-99131428D01*
X116036994Y-99083809D01*
X116400089Y-98845714D02*
X116781041Y-98845714D01*
X116584613Y-98512380D02*
X116477470Y-99369523D01*
X116513184Y-99464761D01*
X116602470Y-99512380D01*
X116697708Y-99512380D01*
X118221517Y-99512380D02*
X118286994Y-98988571D01*
X118251279Y-98893333D01*
X118161994Y-98845714D01*
X117971517Y-98845714D01*
X117870327Y-98893333D01*
X118227470Y-99464761D02*
X118126279Y-99512380D01*
X117888184Y-99512380D01*
X117798898Y-99464761D01*
X117763184Y-99369523D01*
X117775089Y-99274285D01*
X117834613Y-99179047D01*
X117935803Y-99131428D01*
X118173898Y-99131428D01*
X118275089Y-99083809D01*
X119400089Y-98845714D02*
X119781041Y-98845714D01*
X119584613Y-98512380D02*
X119477470Y-99369523D01*
X119513184Y-99464761D01*
X119602470Y-99512380D01*
X119697708Y-99512380D01*
X120031041Y-99512380D02*
X120114375Y-98845714D01*
X120156041Y-98512380D02*
X120102470Y-98560000D01*
X120144136Y-98607619D01*
X120197708Y-98560000D01*
X120156041Y-98512380D01*
X120144136Y-98607619D01*
X120507232Y-99512380D02*
X120590565Y-98845714D01*
X120578660Y-98940952D02*
X120632232Y-98893333D01*
X120733422Y-98845714D01*
X120876279Y-98845714D01*
X120965565Y-98893333D01*
X121001279Y-98988571D01*
X120935803Y-99512380D01*
X121001279Y-98988571D02*
X121060803Y-98893333D01*
X121161994Y-98845714D01*
X121304851Y-98845714D01*
X121394136Y-98893333D01*
X121429851Y-98988571D01*
X121364374Y-99512380D01*
X122227470Y-99464761D02*
X122126279Y-99512380D01*
X121935803Y-99512380D01*
X121846517Y-99464761D01*
X121810803Y-99369523D01*
X121858422Y-98988571D01*
X121917946Y-98893333D01*
X122019136Y-98845714D01*
X122209613Y-98845714D01*
X122298898Y-98893333D01*
X122334613Y-98988571D01*
X122322708Y-99083809D01*
X121834613Y-99179047D01*
X122709613Y-99417142D02*
X122751279Y-99464761D01*
X122697708Y-99512380D01*
X122656041Y-99464761D01*
X122709613Y-99417142D01*
X122697708Y-99512380D01*
X123185803Y-99417142D02*
X123227470Y-99464761D01*
X123173898Y-99512380D01*
X123132232Y-99464761D01*
X123185803Y-99417142D01*
X123173898Y-99512380D01*
X123661994Y-99417142D02*
X123703660Y-99464761D01*
X123650089Y-99512380D01*
X123608422Y-99464761D01*
X123661994Y-99417142D01*
X123650089Y-99512380D01*
X124203660Y-98512380D02*
X124179851Y-98702857D01*
X124584613Y-98512380D02*
X124560803Y-98702857D01*
X107150089Y-102732380D02*
X107275089Y-101732380D01*
X107513184Y-101732380D01*
X107650089Y-101780000D01*
X107733422Y-101875238D01*
X107769136Y-101970476D01*
X107792946Y-102160952D01*
X107775089Y-102303809D01*
X107703660Y-102494285D01*
X107644136Y-102589523D01*
X107536994Y-102684761D01*
X107388184Y-102732380D01*
X107150089Y-102732380D01*
X108536994Y-102684761D02*
X108435803Y-102732380D01*
X108245327Y-102732380D01*
X108156041Y-102684761D01*
X108120327Y-102589523D01*
X108167946Y-102208571D01*
X108227470Y-102113333D01*
X108328660Y-102065714D01*
X108519136Y-102065714D01*
X108608422Y-102113333D01*
X108644136Y-102208571D01*
X108632232Y-102303809D01*
X108144136Y-102399047D01*
X108965565Y-102684761D02*
X109054851Y-102732380D01*
X109245327Y-102732380D01*
X109346517Y-102684761D01*
X109406041Y-102589523D01*
X109411994Y-102541904D01*
X109376279Y-102446666D01*
X109286994Y-102399047D01*
X109144136Y-102399047D01*
X109054851Y-102351428D01*
X109019136Y-102256190D01*
X109025089Y-102208571D01*
X109084613Y-102113333D01*
X109185803Y-102065714D01*
X109328660Y-102065714D01*
X109417946Y-102113333D01*
X109816755Y-102732380D02*
X109900089Y-102065714D01*
X109941755Y-101732380D02*
X109888184Y-101780000D01*
X109929851Y-101827619D01*
X109983422Y-101780000D01*
X109941755Y-101732380D01*
X109929851Y-101827619D01*
X110804851Y-102065714D02*
X110703660Y-102875238D01*
X110644136Y-102970476D01*
X110590565Y-103018095D01*
X110489375Y-103065714D01*
X110346517Y-103065714D01*
X110257232Y-103018095D01*
X110727470Y-102684761D02*
X110626279Y-102732380D01*
X110435803Y-102732380D01*
X110346517Y-102684761D01*
X110304851Y-102637142D01*
X110269136Y-102541904D01*
X110304851Y-102256190D01*
X110364375Y-102160952D01*
X110417946Y-102113333D01*
X110519136Y-102065714D01*
X110709613Y-102065714D01*
X110798898Y-102113333D01*
X111281041Y-102065714D02*
X111197708Y-102732380D01*
X111269136Y-102160952D02*
X111322708Y-102113333D01*
X111423898Y-102065714D01*
X111566755Y-102065714D01*
X111656041Y-102113333D01*
X111691755Y-102208571D01*
X111626279Y-102732380D01*
X112864375Y-102732380D02*
X112989375Y-101732380D01*
X112941755Y-102113333D02*
X113042946Y-102065714D01*
X113233422Y-102065714D01*
X113322708Y-102113333D01*
X113364375Y-102160952D01*
X113400089Y-102256190D01*
X113364375Y-102541904D01*
X113304851Y-102637142D01*
X113251279Y-102684761D01*
X113150089Y-102732380D01*
X112959613Y-102732380D01*
X112870327Y-102684761D01*
X113757232Y-102065714D02*
X113911994Y-102732380D01*
X114233422Y-102065714D02*
X113911994Y-102732380D01*
X113786994Y-102970476D01*
X113733422Y-103018095D01*
X113632232Y-103065714D01*
X115251279Y-102684761D02*
X115388184Y-102732380D01*
X115626279Y-102732380D01*
X115727470Y-102684761D01*
X115781041Y-102637142D01*
X115840565Y-102541904D01*
X115852470Y-102446666D01*
X115816755Y-102351428D01*
X115775089Y-102303809D01*
X115685803Y-102256190D01*
X115501279Y-102208571D01*
X115411994Y-102160952D01*
X115370327Y-102113333D01*
X115334613Y-102018095D01*
X115346517Y-101922857D01*
X115406041Y-101827619D01*
X115459613Y-101780000D01*
X115560803Y-101732380D01*
X115798898Y-101732380D01*
X115935803Y-101780000D01*
X116632232Y-102684761D02*
X116531041Y-102732380D01*
X116340565Y-102732380D01*
X116251279Y-102684761D01*
X116215565Y-102589523D01*
X116263184Y-102208571D01*
X116322708Y-102113333D01*
X116423898Y-102065714D01*
X116614375Y-102065714D01*
X116703660Y-102113333D01*
X116739375Y-102208571D01*
X116727470Y-102303809D01*
X116239375Y-102399047D01*
X117531041Y-102732380D02*
X117596517Y-102208571D01*
X117560803Y-102113333D01*
X117471517Y-102065714D01*
X117281041Y-102065714D01*
X117179851Y-102113333D01*
X117536994Y-102684761D02*
X117435803Y-102732380D01*
X117197708Y-102732380D01*
X117108422Y-102684761D01*
X117072708Y-102589523D01*
X117084613Y-102494285D01*
X117144136Y-102399047D01*
X117245327Y-102351428D01*
X117483422Y-102351428D01*
X117584613Y-102303809D01*
X118090565Y-102065714D02*
X118007232Y-102732380D01*
X118078660Y-102160952D02*
X118132232Y-102113333D01*
X118233422Y-102065714D01*
X118376279Y-102065714D01*
X118465565Y-102113333D01*
X118501279Y-102208571D01*
X118435803Y-102732380D01*
X119673898Y-102732380D02*
X119798898Y-101732380D01*
X120245327Y-102732380D02*
X119888184Y-102160952D01*
X120370327Y-101732380D02*
X119727470Y-102303809D01*
X120661994Y-102065714D02*
X120816755Y-102732380D01*
X121138184Y-102065714D02*
X120816755Y-102732380D01*
X120691755Y-102970476D01*
X120638184Y-103018095D01*
X120536994Y-103065714D01*
X121822708Y-102684761D02*
X121721517Y-102732380D01*
X121531041Y-102732380D01*
X121441755Y-102684761D01*
X121406041Y-102589523D01*
X121453660Y-102208571D01*
X121513184Y-102113333D01*
X121614375Y-102065714D01*
X121804851Y-102065714D01*
X121894136Y-102113333D01*
X121929851Y-102208571D01*
X121917946Y-102303809D01*
X121429851Y-102399047D01*
X122292946Y-102732380D02*
X122376279Y-102065714D01*
X122352470Y-102256190D02*
X122411994Y-102160952D01*
X122465565Y-102113333D01*
X122566755Y-102065714D01*
X122661994Y-102065714D01*
X123661994Y-102065714D02*
X123816755Y-102732380D01*
X124138184Y-102065714D01*
X124959613Y-102732380D02*
X124388184Y-102732380D01*
X124673898Y-102732380D02*
X124798898Y-101732380D01*
X124685803Y-101875238D01*
X124578660Y-101970476D01*
X124477470Y-102018095D01*
X125400089Y-102637142D02*
X125441755Y-102684761D01*
X125388184Y-102732380D01*
X125346517Y-102684761D01*
X125400089Y-102637142D01*
X125388184Y-102732380D01*
X126179851Y-101732380D02*
X126275089Y-101732380D01*
X126364375Y-101780000D01*
X126406041Y-101827619D01*
X126441755Y-101922857D01*
X126465565Y-102113333D01*
X126435803Y-102351428D01*
X126364375Y-102541904D01*
X126304851Y-102637142D01*
X126251279Y-102684761D01*
X126150089Y-102732380D01*
X126054851Y-102732380D01*
X125965565Y-102684761D01*
X125923898Y-102637142D01*
X125888184Y-102541904D01*
X125864375Y-102351428D01*
X125894136Y-102113333D01*
X125965565Y-101922857D01*
X126025089Y-101827619D01*
X126078660Y-101780000D01*
X126179851Y-101732380D01*
X53920000Y-100335808D02*
X54062857Y-100383427D01*
X54110476Y-100431046D01*
X54158095Y-100526284D01*
X54158095Y-100669141D01*
X54110476Y-100764379D01*
X54062857Y-100811998D01*
X53967619Y-100859617D01*
X53586666Y-100859617D01*
X53586666Y-99859617D01*
X53920000Y-99859617D01*
X54015238Y-99907237D01*
X54062857Y-99954856D01*
X54110476Y-100050094D01*
X54110476Y-100145332D01*
X54062857Y-100240570D01*
X54015238Y-100288189D01*
X53920000Y-100335808D01*
X53586666Y-100335808D01*
X54539047Y-100573903D02*
X55015238Y-100573903D01*
X54443809Y-100859617D02*
X54777142Y-99859617D01*
X55110476Y-100859617D01*
X55300952Y-99859617D02*
X55872380Y-99859617D01*
X55586666Y-100859617D02*
X55586666Y-99859617D01*
X56062857Y-99859617D02*
X56634285Y-99859617D01*
X56348571Y-100859617D02*
X56348571Y-99859617D01*
X56729523Y-100954856D02*
X57491428Y-100954856D01*
X57586666Y-99859617D02*
X57920000Y-100859617D01*
X58253333Y-99859617D01*
X59158095Y-100764379D02*
X59110476Y-100811998D01*
X58967619Y-100859617D01*
X58872380Y-100859617D01*
X58729523Y-100811998D01*
X58634285Y-100716760D01*
X58586666Y-100621522D01*
X58539047Y-100431046D01*
X58539047Y-100288189D01*
X58586666Y-100097713D01*
X58634285Y-100002475D01*
X58729523Y-99907237D01*
X58872380Y-99859617D01*
X58967619Y-99859617D01*
X59110476Y-99907237D01*
X59158095Y-99954856D01*
X60158095Y-100764379D02*
X60110476Y-100811998D01*
X59967619Y-100859617D01*
X59872380Y-100859617D01*
X59729523Y-100811998D01*
X59634285Y-100716760D01*
X59586666Y-100621522D01*
X59539047Y-100431046D01*
X59539047Y-100288189D01*
X59586666Y-100097713D01*
X59634285Y-100002475D01*
X59729523Y-99907237D01*
X59872380Y-99859617D01*
X59967619Y-99859617D01*
X60110476Y-99907237D01*
X60158095Y-99954856D01*
X60872380Y-101240570D02*
X60824761Y-101192951D01*
X60729523Y-101050094D01*
X60681904Y-100954856D01*
X60634285Y-100811998D01*
X60586666Y-100573903D01*
X60586666Y-100383427D01*
X60634285Y-100145332D01*
X60681904Y-100002475D01*
X60729523Y-99907237D01*
X60824761Y-99764379D01*
X60872380Y-99716760D01*
X61300952Y-100859617D02*
X61491428Y-100859617D01*
X61586666Y-100811998D01*
X61634285Y-100764379D01*
X61729523Y-100621522D01*
X61777142Y-100431046D01*
X61777142Y-100050094D01*
X61729523Y-99954856D01*
X61681904Y-99907237D01*
X61586666Y-99859617D01*
X61396190Y-99859617D01*
X61300952Y-99907237D01*
X61253333Y-99954856D01*
X61205714Y-100050094D01*
X61205714Y-100288189D01*
X61253333Y-100383427D01*
X61300952Y-100431046D01*
X61396190Y-100478665D01*
X61586666Y-100478665D01*
X61681904Y-100431046D01*
X61729523Y-100383427D01*
X61777142Y-100288189D01*
X62062857Y-99859617D02*
X62396190Y-100859617D01*
X62729523Y-99859617D01*
X62967619Y-101240570D02*
X63015238Y-101192951D01*
X63110476Y-101050094D01*
X63158095Y-100954856D01*
X63205714Y-100811998D01*
X63253333Y-100573903D01*
X63253333Y-100383427D01*
X63205714Y-100145332D01*
X63158095Y-100002475D01*
X63110476Y-99907237D01*
X63015238Y-99764379D01*
X62967619Y-99716760D01*
X55396190Y-92603834D02*
X55539047Y-92651453D01*
X55586666Y-92699072D01*
X55634285Y-92794310D01*
X55634285Y-92937167D01*
X55586666Y-93032405D01*
X55539047Y-93080024D01*
X55443809Y-93127643D01*
X55062857Y-93127643D01*
X55062857Y-92127643D01*
X55396190Y-92127643D01*
X55491428Y-92175263D01*
X55539047Y-92222882D01*
X55586666Y-92318120D01*
X55586666Y-92413358D01*
X55539047Y-92508596D01*
X55491428Y-92556215D01*
X55396190Y-92603834D01*
X55062857Y-92603834D01*
X56015238Y-92841929D02*
X56491428Y-92841929D01*
X55920000Y-93127643D02*
X56253333Y-92127643D01*
X56586666Y-93127643D01*
X56777142Y-92127643D02*
X57348571Y-92127643D01*
X57062857Y-93127643D02*
X57062857Y-92127643D01*
X57539047Y-92127643D02*
X58110476Y-92127643D01*
X57824761Y-93127643D02*
X57824761Y-92127643D01*
X58205714Y-93222882D02*
X58967619Y-93222882D01*
X59729523Y-92175263D02*
X59634285Y-92127643D01*
X59491428Y-92127643D01*
X59348571Y-92175263D01*
X59253333Y-92270501D01*
X59205714Y-92365739D01*
X59158095Y-92556215D01*
X59158095Y-92699072D01*
X59205714Y-92889548D01*
X59253333Y-92984786D01*
X59348571Y-93080024D01*
X59491428Y-93127643D01*
X59586666Y-93127643D01*
X59729523Y-93080024D01*
X59777142Y-93032405D01*
X59777142Y-92699072D01*
X59586666Y-92699072D01*
X60205714Y-93127643D02*
X60205714Y-92127643D01*
X60777142Y-93127643D01*
X60777142Y-92127643D01*
X61253333Y-93127643D02*
X61253333Y-92127643D01*
X61491428Y-92127643D01*
X61634285Y-92175263D01*
X61729523Y-92270501D01*
X61777142Y-92365739D01*
X61824761Y-92556215D01*
X61824761Y-92699072D01*
X61777142Y-92889548D01*
X61729523Y-92984786D01*
X61634285Y-93080024D01*
X61491428Y-93127643D01*
X61253333Y-93127643D01*
X87569627Y-52293579D02*
X87093436Y-52293579D01*
X87093436Y-51293579D01*
X87902960Y-51769770D02*
X88236293Y-51769770D01*
X88379151Y-52293579D02*
X87902960Y-52293579D01*
X87902960Y-51293579D01*
X88379151Y-51293579D01*
X88807722Y-52293579D02*
X88807722Y-51293579D01*
X89045817Y-51293579D01*
X89188674Y-51341199D01*
X89283912Y-51436437D01*
X89331532Y-51531675D01*
X89379151Y-51722151D01*
X89379151Y-51865008D01*
X89331532Y-52055484D01*
X89283912Y-52150722D01*
X89188674Y-52245960D01*
X89045817Y-52293579D01*
X88807722Y-52293579D01*
X89807722Y-51912627D02*
X90569627Y-51912627D01*
X90188674Y-52293579D02*
X90188674Y-51531675D01*
X79756189Y-52267689D02*
X79279999Y-52267689D01*
X79279999Y-51267689D01*
X80089522Y-51743880D02*
X80422856Y-51743880D01*
X80565713Y-52267689D02*
X80089522Y-52267689D01*
X80089522Y-51267689D01*
X80565713Y-51267689D01*
X80994284Y-52267689D02*
X80994284Y-51267689D01*
X81232379Y-51267689D01*
X81375237Y-51315309D01*
X81470475Y-51410547D01*
X81518094Y-51505785D01*
X81565713Y-51696261D01*
X81565713Y-51839118D01*
X81518094Y-52029594D01*
X81470475Y-52124832D01*
X81375237Y-52220070D01*
X81232379Y-52267689D01*
X80994284Y-52267689D01*
X81756189Y-52362928D02*
X82518094Y-52362928D01*
X82756189Y-52267689D02*
X82756189Y-51267689D01*
X82994284Y-51267689D01*
X83137141Y-51315309D01*
X83232379Y-51410547D01*
X83279999Y-51505785D01*
X83327618Y-51696261D01*
X83327618Y-51839118D01*
X83279999Y-52029594D01*
X83232379Y-52124832D01*
X83137141Y-52220070D01*
X82994284Y-52267689D01*
X82756189Y-52267689D01*
X72336917Y-52394458D02*
X71860726Y-52394458D01*
X71860726Y-51394458D01*
X72670250Y-51870649D02*
X73003583Y-51870649D01*
X73146441Y-52394458D02*
X72670250Y-52394458D01*
X72670250Y-51394458D01*
X73146441Y-51394458D01*
X73575012Y-52394458D02*
X73575012Y-51394458D01*
X73813107Y-51394458D01*
X73955964Y-51442078D01*
X74051202Y-51537316D01*
X74098822Y-51632554D01*
X74146441Y-51823030D01*
X74146441Y-51965887D01*
X74098822Y-52156363D01*
X74051202Y-52251601D01*
X73955964Y-52346839D01*
X73813107Y-52394458D01*
X73575012Y-52394458D01*
X74575012Y-52013506D02*
X75336917Y-52013506D01*
%TO.C,H4*%
X57658095Y-108512380D02*
X57658095Y-107512380D01*
X57658095Y-107988571D02*
X58229523Y-107988571D01*
X58229523Y-108512380D02*
X58229523Y-107512380D01*
X59134285Y-107845714D02*
X59134285Y-108512380D01*
X58896190Y-107464761D02*
X58658095Y-108179047D01*
X59277142Y-108179047D01*
%TO.C,H3*%
X123698095Y-48067380D02*
X123698095Y-47067380D01*
X123698095Y-47543571D02*
X124269523Y-47543571D01*
X124269523Y-48067380D02*
X124269523Y-47067380D01*
X124650476Y-47067380D02*
X125269523Y-47067380D01*
X124936190Y-47448333D01*
X125079047Y-47448333D01*
X125174285Y-47495952D01*
X125221904Y-47543571D01*
X125269523Y-47638809D01*
X125269523Y-47876904D01*
X125221904Y-47972142D01*
X125174285Y-48019761D01*
X125079047Y-48067380D01*
X124793333Y-48067380D01*
X124698095Y-48019761D01*
X124650476Y-47972142D01*
%TO.C,H2*%
X57658095Y-47552380D02*
X57658095Y-46552380D01*
X57658095Y-47028571D02*
X58229523Y-47028571D01*
X58229523Y-47552380D02*
X58229523Y-46552380D01*
X58658095Y-46647619D02*
X58705714Y-46600000D01*
X58800952Y-46552380D01*
X59039047Y-46552380D01*
X59134285Y-46600000D01*
X59181904Y-46647619D01*
X59229523Y-46742857D01*
X59229523Y-46838095D01*
X59181904Y-46980952D01*
X58610476Y-47552380D01*
X59229523Y-47552380D01*
%TO.C,H1*%
X123698095Y-108512380D02*
X123698095Y-107512380D01*
X123698095Y-107988571D02*
X124269523Y-107988571D01*
X124269523Y-108512380D02*
X124269523Y-107512380D01*
X125269523Y-108512380D02*
X124698095Y-108512380D01*
X124983809Y-108512380D02*
X124983809Y-107512380D01*
X124888571Y-107655238D01*
X124793333Y-107750476D01*
X124698095Y-107798095D01*
%TO.C,SW1*%
X117336666Y-86224761D02*
X117479523Y-86272380D01*
X117717619Y-86272380D01*
X117812857Y-86224761D01*
X117860476Y-86177142D01*
X117908095Y-86081904D01*
X117908095Y-85986666D01*
X117860476Y-85891428D01*
X117812857Y-85843809D01*
X117717619Y-85796190D01*
X117527142Y-85748571D01*
X117431904Y-85700952D01*
X117384285Y-85653333D01*
X117336666Y-85558095D01*
X117336666Y-85462857D01*
X117384285Y-85367619D01*
X117431904Y-85320000D01*
X117527142Y-85272380D01*
X117765238Y-85272380D01*
X117908095Y-85320000D01*
X118241428Y-85272380D02*
X118479523Y-86272380D01*
X118670000Y-85558095D01*
X118860476Y-86272380D01*
X119098571Y-85272380D01*
X120003333Y-86272380D02*
X119431904Y-86272380D01*
X119717619Y-86272380D02*
X119717619Y-85272380D01*
X119622380Y-85415238D01*
X119527142Y-85510476D01*
X119431904Y-85558095D01*
%TO.C,R1*%
X79362380Y-59856666D02*
X78886190Y-60190000D01*
X79362380Y-60428095D02*
X78362380Y-60428095D01*
X78362380Y-60047142D01*
X78410000Y-59951904D01*
X78457619Y-59904285D01*
X78552857Y-59856666D01*
X78695714Y-59856666D01*
X78790952Y-59904285D01*
X78838571Y-59951904D01*
X78886190Y-60047142D01*
X78886190Y-60428095D01*
X79362380Y-58904285D02*
X79362380Y-59475714D01*
X79362380Y-59190000D02*
X78362380Y-59190000D01*
X78505238Y-59285238D01*
X78600476Y-59380476D01*
X78648095Y-59475714D01*
%TO.C,R3*%
X107783333Y-66322380D02*
X107450000Y-65846190D01*
X107211904Y-66322380D02*
X107211904Y-65322380D01*
X107592857Y-65322380D01*
X107688095Y-65370000D01*
X107735714Y-65417619D01*
X107783333Y-65512857D01*
X107783333Y-65655714D01*
X107735714Y-65750952D01*
X107688095Y-65798571D01*
X107592857Y-65846190D01*
X107211904Y-65846190D01*
X108116666Y-65322380D02*
X108735714Y-65322380D01*
X108402380Y-65703333D01*
X108545238Y-65703333D01*
X108640476Y-65750952D01*
X108688095Y-65798571D01*
X108735714Y-65893809D01*
X108735714Y-66131904D01*
X108688095Y-66227142D01*
X108640476Y-66274761D01*
X108545238Y-66322380D01*
X108259523Y-66322380D01*
X108164285Y-66274761D01*
X108116666Y-66227142D01*
%TO.C,A1*%
X104306666Y-81994285D02*
X104306666Y-81518095D01*
X104592380Y-82089523D02*
X103592380Y-81756190D01*
X104592380Y-81422857D01*
X104592380Y-80565714D02*
X104592380Y-81137142D01*
X104592380Y-80851428D02*
X103592380Y-80851428D01*
X103735238Y-80946666D01*
X103830476Y-81041904D01*
X103878095Y-81137142D01*
%TO.C,D1*%
X86891904Y-106012380D02*
X86891904Y-105012380D01*
X87130000Y-105012380D01*
X87272857Y-105060000D01*
X87368095Y-105155238D01*
X87415714Y-105250476D01*
X87463333Y-105440952D01*
X87463333Y-105583809D01*
X87415714Y-105774285D01*
X87368095Y-105869523D01*
X87272857Y-105964761D01*
X87130000Y-106012380D01*
X86891904Y-106012380D01*
X88415714Y-106012380D02*
X87844285Y-106012380D01*
X88130000Y-106012380D02*
X88130000Y-105012380D01*
X88034761Y-105155238D01*
X87939523Y-105250476D01*
X87844285Y-105298095D01*
%TO.C,R2*%
X100163333Y-99682380D02*
X99830000Y-99206190D01*
X99591904Y-99682380D02*
X99591904Y-98682380D01*
X99972857Y-98682380D01*
X100068095Y-98730000D01*
X100115714Y-98777619D01*
X100163333Y-98872857D01*
X100163333Y-99015714D01*
X100115714Y-99110952D01*
X100068095Y-99158571D01*
X99972857Y-99206190D01*
X99591904Y-99206190D01*
X100544285Y-98777619D02*
X100591904Y-98730000D01*
X100687142Y-98682380D01*
X100925238Y-98682380D01*
X101020476Y-98730000D01*
X101068095Y-98777619D01*
X101115714Y-98872857D01*
X101115714Y-98968095D01*
X101068095Y-99110952D01*
X100496666Y-99682380D01*
X101115714Y-99682380D01*
D11*
%TO.C,SW1*%
X116420000Y-84820000D02*
X120920000Y-84820000D01*
X122170000Y-82320000D02*
X122170000Y-80820000D01*
X115170000Y-80820000D02*
X115170000Y-82320000D01*
X120920000Y-78320000D02*
X116420000Y-78320000D01*
%TO.C,R1*%
X81280000Y-59590000D02*
X81280000Y-59520000D01*
X82650000Y-60960000D02*
G75*
G03*
X82650000Y-60960000I-1370000J0D01*
G01*
%TO.C,J4*%
X79080000Y-50460000D02*
X79080000Y-46060000D01*
X79080000Y-46060000D02*
X83480000Y-46060000D01*
X83480000Y-46060000D02*
X83480000Y-50460000D01*
X83480000Y-50460000D02*
X79080000Y-50460000D01*
%TO.C,R3*%
X107850000Y-63500000D02*
X107780000Y-63500000D01*
X110590000Y-63500000D02*
G75*
G03*
X110590000Y-63500000I-1370000J0D01*
G01*
%TO.C,J1*%
X56220000Y-98720000D02*
X56220000Y-94320000D01*
X60620000Y-94320000D02*
X60620000Y-98720000D01*
X56220000Y-94320000D02*
X60620000Y-94320000D01*
X60620000Y-98720000D02*
X56220000Y-98720000D01*
%TO.C,A1*%
X62230000Y-87630000D02*
X62230000Y-90300000D01*
X100330000Y-87630000D02*
X100330000Y-90300000D01*
X62230000Y-74930000D02*
X62230000Y-72260000D01*
X103000000Y-90300000D02*
X103000000Y-72260000D01*
X97790000Y-74930000D02*
X100330000Y-74930000D01*
X59560000Y-90300000D02*
X103000000Y-90300000D01*
X100330000Y-74930000D02*
X100330000Y-72260000D01*
X97790000Y-74930000D02*
X62230000Y-74930000D01*
X103000000Y-72260000D02*
X100330000Y-72260000D01*
X97790000Y-74930000D02*
X97790000Y-72260000D01*
X97790000Y-72260000D02*
X59560000Y-72260000D01*
X59560000Y-72260000D02*
X59560000Y-90300000D01*
X100330000Y-87630000D02*
X62230000Y-87630000D01*
%TO.C,J3*%
X91100000Y-50460000D02*
X86700000Y-50460000D01*
X91100000Y-46060000D02*
X91100000Y-50460000D01*
X86700000Y-46060000D02*
X91100000Y-46060000D01*
X86700000Y-50460000D02*
X86700000Y-46060000D01*
%TO.C,D1*%
X90190000Y-103145000D02*
X90190000Y-100055000D01*
X84640000Y-101599538D02*
G75*
G03*
X90190000Y-103144830I2990000J-462D01*
G01*
X90190000Y-100055170D02*
G75*
G03*
X84640000Y-101600462I-2560000J-1544830D01*
G01*
X90130000Y-101600000D02*
G75*
G03*
X90130000Y-101600000I-2500000J0D01*
G01*
%TO.C,J5*%
X71460000Y-50460000D02*
X71460000Y-46060000D01*
X75860000Y-50460000D02*
X71460000Y-50460000D01*
X71460000Y-46060000D02*
X75860000Y-46060000D01*
X75860000Y-46060000D02*
X75860000Y-50460000D01*
%TO.C,J2*%
X56220000Y-101940000D02*
X60620000Y-101940000D01*
X56220000Y-106340000D02*
X56220000Y-101940000D01*
X60620000Y-101940000D02*
X60620000Y-106340000D01*
X60620000Y-106340000D02*
X56220000Y-106340000D01*
%TO.C,R2*%
X100430000Y-101600000D02*
X100500000Y-101600000D01*
X100430000Y-101600000D02*
G75*
G03*
X100430000Y-101600000I-1370000J0D01*
G01*
%TD*%
M02*
